<?xml version="1.0" encoding="UTF-8" standalone="no" ?>
<!DOCTYPE svg PUBLIC "-//W3C//DTD SVG 1.1//EN" "http://www.w3.org/Graphics/SVG/1.1/DTD/svg11.dtd">
<svg xmlns="http://www.w3.org/2000/svg" xmlns:xlink="http://www.w3.org/1999/xlink" version="1.1" width="1080" height="1080" viewBox="-164 1215 1080 1080" xml:space="preserve">
<desc>Created with Fabric.js 5.2.4</desc>
<defs>
</defs>
<rect x="0" y="0" width="100%" height="100%" fill="transparent"></rect>
<g transform="matrix(1 0 0 1 540 540)" id="5c97567d-8967-4366-88df-3620979693d4"  >
<rect style="stroke: none; stroke-width: 1; stroke-dasharray: none; stroke-linecap: butt; stroke-dashoffset: 0; stroke-linejoin: miter; stroke-miterlimit: 4; fill: rgb(255,255,255); fill-rule: nonzero; opacity: 1; visibility: hidden;" vector-effect="non-scaling-stroke"  x="-540" y="-540" rx="0" ry="0" width="1080" height="1080" />
</g>
<g transform="matrix(1 0 0 1 540 540)" id="cc6ebf43-9c19-46e9-bb2b-4ca873ffb12c"  >
</g>
<g transform="matrix(0.13 0 0 -0.13 753.71 53.33)" id="path22"  >
<path style="stroke: none; stroke-width: 1; stroke-dasharray: none; stroke-linecap: butt; stroke-dashoffset: 0; stroke-linejoin: miter; stroke-miterlimit: 4; fill: rgb(225,225,223); fill-rule: nonzero; opacity: 1;" vector-effect="non-scaling-stroke"  transform=" translate(-3714.01, -15622.15)" d="M 6453.73 16211.6 C 5802.599999999999 16300 4948.599999999999 15652.9 3684.49 15650.2 C 2458.24 15652.800000000001 1617.8999999999996 16261.900000000001 974.2979999999998 16217.7 C 989.9989999999998 16013.1 1041.5699999999997 15672.800000000001 1210.8199999999997 15545.900000000001 C 1488.9799999999998 15337.300000000001 2358.2299999999996 15024.300000000001 3714.2499999999995 15024.300000000001 L 3714.2499999999995 15024.300000000001 L 3714.2599999999998 15024.300000000001 C 5070.28 15024.300000000001 5939.52 15337.300000000001 6217.68 15545.900000000001 C 6385.25 15671.600000000002 6437.47 16006.300000000001 6453.7300000000005 16211.600000000002" stroke-linecap="round" />
</g>
<g transform="matrix(0.14 0 0 -0.14 -26.65 283.41)" id="path32"  >
<path style="stroke: none; stroke-width: 1; stroke-dasharray: none; stroke-linecap: butt; stroke-dashoffset: 0; stroke-linejoin: miter; stroke-miterlimit: 4; fill: rgb(231,169,138); fill-rule: nonzero; opacity: 1;" vector-effect="non-scaling-stroke"  transform=" translate(-571.89, -15950.72)" d="M 0 15601.4 C 16.4858 15877.6 269.162 16205.1 591.93 16276 C 745.962 16318.1 962.1129999999999 16307.8 1143.78 16222 C 1102.3899999999999 16218.7 952.544 16217.3 876.306 16205.5 C 520.326 16155 260.035 16021.5 0 15601.4" stroke-linecap="round" />
</g>
<g transform="matrix(0.14 0 0 -0.14 800.26 283.38)" id="path36"  >
<path style="stroke: none; stroke-width: 1; stroke-dasharray: none; stroke-linecap: butt; stroke-dashoffset: 0; stroke-linejoin: miter; stroke-miterlimit: 4; fill: rgb(231,169,138); fill-rule: nonzero; opacity: 1;" vector-effect="non-scaling-stroke"  transform=" translate(-6632.07, -15950.94)" d="M 7203.96 15601.4 C 6805.18 16245.5 6372.63 16197.1 6060.17 16222 C 6280.34 16326 6548.9400000000005 16332.5 6792.46 16206 C 7054.88 16064.4 7192.88 15787.1 7203.96 15601.4" stroke-linecap="round" />
</g>
<g transform="matrix(0.2 0 0 -0.2 2596.59 2083.03)" id="path100"  >
<path style="stroke: none; stroke-width: 1; stroke-dasharray: none; stroke-linecap: butt; stroke-dashoffset: 0; stroke-linejoin: miter; stroke-miterlimit: 4; fill: rgb(108,19,39); fill-rule: nonzero; opacity: 1;" vector-effect="non-scaling-stroke"  transform=" translate(-13756.17, -1919.06)" d="M 15741 2293.18 C 15191.3 2613.87 14864.5 2131.1 13760.6 2106.25 C 12656.7 2131.1 12330 2613.87 11780.300000000001 2293.18 C 11216.2 1964.1299999999999 11575.300000000001 1485.31 12280.400000000001 1438.3199999999997 C 12675.7 1411.9099999999996 13438.800000000001 1570.9899999999998 13743.7 1570.9899999999998 C 14048.6 1570.9899999999998 14811.7 1411.9099999999999 15207 1438.3199999999997 C 15912.1 1485.3099999999997 16305.1 1964.1299999999997 15741 2293.18" stroke-linecap="round" />
</g>
<g transform="matrix(0.19 0 0 -0.19 2598.71 2055.52)" id="path104"  >
<path style="stroke: none; stroke-width: 1; stroke-dasharray: none; stroke-linecap: butt; stroke-dashoffset: 0; stroke-linejoin: miter; stroke-miterlimit: 4; fill: rgb(225,225,223); fill-rule: nonzero; opacity: 1;" vector-effect="non-scaling-stroke"  transform=" translate(-14434.2, -2158.96)" d="M 16300 2492.52 C 15831 2623.3 15442.7 2231.18 14427.5 2208.33 C 13422 2230.97 13031.5 2615.9 12568.4 2496.0099999999998 C 12588.699999999999 2338.39 12613.3 2194.3799999999997 12642.699999999999 2172.24 C 12841.9 2022.8799999999997 13464.3 1798.7699999999998 14435.3 1798.7699999999998 L 14435.3 1798.7699999999998 L 14435.3 1798.7699999999998 C 15406.3 1798.7699999999998 16028.8 2022.8799999999997 16227.9 2172.24 C 16256.3 2193.5899999999997 16280.1 2336.47 16300 2492.5199999999995" stroke-linecap="round" />
</g>
<g transform="matrix(0.19 0 0 -0.19 2598.76 2074.17)" id="path108"  >
<path style="stroke: none; stroke-width: 1; stroke-dasharray: none; stroke-linecap: butt; stroke-dashoffset: 0; stroke-linejoin: miter; stroke-miterlimit: 4; fill: rgb(255,255,255); fill-rule: nonzero; opacity: 1;" vector-effect="non-scaling-stroke"  transform=" translate(-14460.2, -2063.07)" d="M 16300 2304.99 C 15842.9 2412.3199999999997 15449.2 2035.12 14453.3 2012.7999999999997 C 13467.5 2034.9099999999996 13071.699999999999 2404.6899999999996 12620.4 2307.9799999999996 C 12633.9 2238.6599999999994 12648.8 2188.4499999999994 12665.3 2176.1199999999994 C 12864.8 2026.4899999999993 13488.4 1801.9799999999996 14461.099999999999 1801.9799999999996 L 14461.099999999999 1801.9799999999996 L 14461.099999999999 1801.9799999999996 C 15433.8 1801.9799999999996 16057.399999999998 2026.4899999999996 16256.899999999998 2176.1199999999994 C 16272.599999999999 2187.9599999999996 16286.899999999998 2237.0199999999995 16299.999999999998 2304.9899999999993" stroke-linecap="round" />
</g>
<g transform="matrix(0.17 0 0 -0.17 2556.82 2405.28)" id="path112"  >
<path style="stroke: none; stroke-width: 1; stroke-dasharray: none; stroke-linecap: butt; stroke-dashoffset: 0; stroke-linejoin: miter; stroke-miterlimit: 4; fill: rgb(70,50,52); fill-rule: nonzero; opacity: 1;" vector-effect="non-scaling-stroke"  transform=" translate(-16118.99, -330.64)" d="M 16300 461.091 C 16300 458.507 16297.7 457.296 16293.1 457.296 C 16275.7 457.296 16249.4 458.75 16214 461.819 C 16178.7 464.80600000000004 16152.2 466.339 16134.6 466.339 C 16112.4 466.339 16099.4 465.532 16095.7 463.917 C 16087.1 459.96099999999996 16082.900000000001 448.81699999999995 16082.900000000001 430.48699999999997 C 16082.900000000001 408.52 16088.400000000001 396.00699999999995 16099.500000000002 393.01699999999994 C 16104.200000000003 391.80499999999995 16111.200000000003 391.24099999999993 16120.700000000003 391.24099999999993 C 16136.700000000003 391.24099999999993 16160.600000000002 392.12999999999994 16192.400000000003 393.82399999999996 C 16224.300000000003 395.59999999999997 16248.200000000003 396.489 16264.200000000003 396.489 C 16271.900000000003 396.489 16275.700000000003 376.05899999999997 16275.700000000003 335.279 C 16275.700000000003 299.913 16274.400000000003 279.239 16271.900000000003 273.504 C 16270.300000000003 269.30600000000004 16267.100000000004 267.20500000000004 16262.500000000004 267.20500000000004 C 16265.500000000004 267.20500000000004 16258.200000000004 268.016 16240.600000000004 269.63100000000003 C 16215.800000000005 271.971 16178.300000000005 273.10100000000006 16128.000000000004 273.10100000000006 C 16111.800000000003 273.10100000000006 16102.600000000004 273.02200000000005 16100.500000000004 272.77900000000005 C 16088.800000000003 270.92100000000005 16082.900000000003 265.9150000000001 16082.900000000003 257.84000000000003 C 16082.900000000003 224.97500000000002 16084.200000000003 187.10000000000002 16087.100000000004 144.223 C 16089.300000000005 105.54500000000002 16090.500000000004 88.26190000000001 16090.500000000004 92.46040000000002 C 16090.500000000004 86.40400000000002 16083.200000000004 82.93110000000001 16068.600000000004 82.04470000000002 C 16072.500000000004 82.20560000000002 16062.300000000005 82.36650000000002 16037.700000000004 82.36650000000002 C 15994.400000000005 82.36650000000002 15966.400000000005 83.90260000000002 15954.000000000004 86.88980000000002 C 15947.200000000004 88.50480000000002 15943.900000000003 92.05660000000002 15943.900000000003 97.62720000000002 C 15943.900000000003 123.38900000000001 15944.700000000003 161.98900000000003 15946.500000000004 213.50900000000001 C 15948.200000000004 265.108 15949.100000000004 303.707 15949.100000000004 329.387 C 15949.100000000004 359.99 15947.700000000004 398.426 15944.900000000003 444.779 C 15940.700000000003 516.326 15938.600000000004 554.762 15938.300000000003 560.093 L 15938.000000000004 564.2919999999999 C 15937.700000000004 570.1049999999999 15941.200000000004 573.0129999999999 15948.400000000003 573.0129999999999 C 15965.500000000004 573.0129999999999 15991.400000000003 572.6099999999999 16026.000000000004 571.963 C 16060.700000000004 571.2339999999999 16086.700000000004 570.913 16104.000000000004 570.913 C 16122.600000000004 570.913 16150.400000000003 572.285 16187.600000000004 575.032 C 16224.800000000005 577.8580000000001 16252.700000000004 579.231 16271.200000000004 579.231 C 16282.800000000005 579.231 16289.300000000005 574.468 16290.600000000004 565.0169999999999 C 16290.600000000004 555.0049999999999 16291.100000000004 540.0659999999999 16292.000000000004 520.1999999999999 C 16292.500000000004 515.1149999999999 16294.000000000004 505.2609999999999 16296.500000000004 490.64699999999993 C 16298.900000000003 477.8879999999999 16300.000000000004 468.0369999999999 16300.000000000004 461.09099999999995" stroke-linecap="round" />
</g>
<g transform="matrix(0.17 0 0 -0.17 2650.2 2405.4)" id="path116"  >
<path style="stroke: none; stroke-width: 1; stroke-dasharray: none; stroke-linecap: butt; stroke-dashoffset: 0; stroke-linejoin: miter; stroke-miterlimit: 4; fill: rgb(70,50,52); fill-rule: nonzero; opacity: 1;" vector-effect="non-scaling-stroke"  transform=" translate(-16095.5, -318.3)" d="M 16090.8 82.4955 C 16060.599999999999 82.4955 16043.4 82.88810000000001 16039.199999999999 83.82230000000001 C 16034.999999999998 84.67730000000002 16031.4 87.95160000000001 16028.4 93.55980000000001 C 16003 143.806 15977.4 194.207 15951.699999999999 244.687 C 15911.3 325.85900000000004 15890.999999999998 371.741 15890.999999999998 382.492 C 15890.999999999998 400.09900000000005 15891.599999999999 426.661 15892.899999999998 462.106 C 15894.099999999999 497.474 15894.699999999997 524.037 15894.699999999997 541.723 C 15894.699999999997 549.978 15896.899999999998 554.108 15901.499999999996 554.108 C 15914.899999999996 554.108 15935.199999999997 553.563 15962.499999999996 552.3939999999999 C 15989.699999999997 551.3019999999999 16010.099999999997 550.757 16023.799999999996 550.757 C 16029.399999999996 550.757 16032.199999999995 548.42 16032.199999999995 543.746 C 16032.199999999995 525.595 16030.899999999996 498.409 16028.299999999996 462.106 C 16025.699999999995 425.806 16024.499999999996 398.541 16024.499999999996 380.465 C 16024.499999999996 366.601 16047.099999999997 317.135 16092.499999999996 231.98899999999998 C 16104.799999999996 254.111 16118.699999999997 281.221 16134.399999999996 313.395 C 16155.399999999996 356.78499999999997 16165.899999999996 383.34999999999997 16165.899999999996 393.164 C 16165.899999999996 409.52299999999997 16165.699999999995 434.062 16165.199999999995 466.78 C 16164.799999999996 499.498 16164.499999999995 524.0369999999999 16164.499999999995 540.3199999999999 C 16164.499999999995 546.3969999999999 16165.499999999995 549.7439999999999 16167.599999999995 550.4469999999999 L 16178.299999999996 550.4469999999999 C 16190.499999999996 550.4469999999999 16209.199999999995 550.9919999999998 16234.099999999995 552.2389999999999 C 16258.999999999995 553.4839999999999 16277.599999999995 554.108 16289.999999999995 554.108 C 16296.599999999995 554.108 16299.999999999995 551.381 16299.999999999995 546.083 C 16299.999999999995 528.8689999999999 16299.699999999995 502.84799999999996 16299.099999999995 468.10299999999995 C 16298.599999999995 433.36199999999997 16298.299999999996 407.26499999999993 16298.299999999996 389.8159999999999 C 16298.299999999996 375.9489999999999 16276.299999999996 325.0009999999999 16232.299999999996 236.97299999999993 C 16214.899999999996 205.26799999999992 16189.699999999995 157.43799999999993 16156.799999999996 93.55979999999994 C 16154.599999999995 88.65149999999994 16153.099999999995 85.84579999999994 16152.299999999996 85.30119999999994 C 16151.499999999996 84.75649999999993 16148.699999999995 84.29089999999994 16143.799999999996 83.82229999999994 C 16132.399999999996 82.88809999999994 16114.799999999996 82.49549999999994 16090.799999999996 82.49549999999994" stroke-linecap="round" />
</g>
<g transform="matrix(0.13 0 0 -0.13 1486.92 2090.08)" id="path118"  >
<path style="stroke: none; stroke-width: 1; stroke-dasharray: none; stroke-linecap: butt; stroke-dashoffset: 0; stroke-linejoin: miter; stroke-miterlimit: 4; fill: rgb(108,19,39); fill-rule: nonzero; opacity: 1;" vector-effect="non-scaling-stroke"  transform=" translate(-11936.98, -2773.45)" d="M 15008 4231.4 C 14319.4 4630.299999999999 13402 3766.4999999999995 11937 3763.2999999999997 C 10472 3766.4999999999995 9554.57 4630.299999999999 8866 4231.4 C 8132.72 3806.4999999999995 9107.8 1218.4999999999995 11930.4 1210.3999999999996 L 11930.4 1210.2999999999997 C 11932.6 1210.2999999999997 11934.8 1210.3999999999996 11937 1210.3999999999996 C 11939.2 1210.3999999999996 11941.4 1210.2999999999997 11943.6 1210.2999999999997 L 11943.6 1210.3999999999996 C 14766.2 1218.4999999999995 15741.2 3806.4999999999995 15008 4231.4" stroke-linecap="round" />
</g>
<g transform="matrix(0.13 0 0 -0.13 1490.88 1961.86)" id="path120"  >
<path style="stroke: none; stroke-width: 1; stroke-dasharray: none; stroke-linecap: butt; stroke-dashoffset: 0; stroke-linejoin: miter; stroke-miterlimit: 4; fill: rgb(225,225,223); fill-rule: nonzero; opacity: 1;" vector-effect="non-scaling-stroke"  transform=" translate(-11966.69, -3735.15)" d="M 14722.4 4328.1 C 14067.4 4417 13208.5 3766.1000000000004 11937 3763.3 C 10703.6 3766 9858.33 4378.6 9210.98 4334.2 C 9226.77 4128.3 9278.64 3786.1 9448.88 3658.3999999999996 C 9728.66 3448.5999999999995 10603 3133.7999999999997 11966.9 3133.7999999999997 L 11966.9 3133.7999999999997 L 11966.9 3133.7999999999997 C 13330.8 3133.7999999999997 14205.2 3448.6 14484.9 3658.3999999999996 C 14653.5 3784.7999999999997 14706 4121.599999999999 14722.4 4328.099999999999" stroke-linecap="round" />
</g>
<g transform="matrix(0.13 0 0 -0.13 1490.85 1978.17)" id="path122"  >
<path style="stroke: none; stroke-width: 1; stroke-dasharray: none; stroke-linecap: butt; stroke-dashoffset: 0; stroke-linejoin: miter; stroke-miterlimit: 4; fill: rgb(255,255,255); fill-rule: nonzero; opacity: 1;" vector-effect="non-scaling-stroke"  transform=" translate(-11966.49, -3612.78)" d="M 14690.2 4087 C 14039.400000000001 4151.2 13187.800000000001 3521.2 11937 3518.5 C 10723.7 3521.1 9885.97 4114.1 9242.78 4091.1 C 9275.650000000001 3920.7 9336.43 3742.7999999999997 9448.880000000001 3658.4 C 9728.660000000002 3448.6 10603 3133.8 11966.900000000001 3133.8 L 11966.900000000001 3133.8 L 11966.900000000001 3133.8 C 13330.800000000001 3133.8 14205.2 3448.6000000000004 14484.900000000001 3658.4 C 14596.500000000002 3742.1 14657.2 3917.9 14690.2 4087" stroke-linecap="round" />
</g>
<g transform="matrix(0.13 0 0 -0.13 1070.82 1880.48)" id="path124"  >
<path style="stroke: none; stroke-width: 1; stroke-dasharray: none; stroke-linecap: butt; stroke-dashoffset: 0; stroke-linejoin: miter; stroke-miterlimit: 4; fill: rgb(231,169,138); fill-rule: nonzero; opacity: 1;" vector-effect="non-scaling-stroke"  transform=" translate(-8816.26, -4345.46)" d="M 8231 3988 C 8247.87 4270.8 8506.72 4605.9 8836.76 4678.3 C 8994.39 4721.400000000001 9215.6 4710.900000000001 9401.52 4623.1 C 9359.130000000001 4619.700000000001 9205.86 4618.200000000001 9127.79 4606.200000000001 C 8763.45 4554.4 8497.14 4417.9 8231 3988" stroke-linecap="round" />
</g>
<g transform="matrix(0.13 0 0 -0.13 1897.73 1880.48)" id="path126"  >
<path style="stroke: none; stroke-width: 1; stroke-dasharray: none; stroke-linecap: butt; stroke-dashoffset: 0; stroke-linejoin: miter; stroke-miterlimit: 4; fill: rgb(231,169,138); fill-rule: nonzero; opacity: 1;" vector-effect="non-scaling-stroke"  transform=" translate(-15018.05, -4345.45)" d="M 15603.3 3988 C 15194.5 4648.3 14750.4 4597.7 14432.8 4623.1 C 14617.5 4710.3 14838.8 4721.700000000001 14997.599999999999 4678.3 C 15330.499999999998 4605.2 15586.699999999999 4266.8 15603.3 3988" stroke-linecap="round" />
</g>
<g transform="matrix(0.13 0 0 -0.13 1486.61 2145.65)" id="path128"  >
<path style="stroke: none; stroke-width: 1; stroke-dasharray: none; stroke-linecap: butt; stroke-dashoffset: 0; stroke-linejoin: miter; stroke-miterlimit: 4; fill: rgb(218,23,78); fill-rule: nonzero; opacity: 1;" vector-effect="non-scaling-stroke"  transform=" translate(-11934.7, -2356.73)" d="M 12795.5 2990.5 C 13355 2501 13353.4 1619 13353.4 1619 L 11954.4 1493.3 L 11954.4 1490.1 L 11937 1491.6999999999998 L 11919.5 1490.1 L 11919.5 1493.3 L 10520.5 1619 C 10520.5 1619 10424.7 2542.3 11117 3037.1 C 11443.4 3270.2999999999997 12423.4 3316.1 12795.5 2990.5" stroke-linecap="round" />
</g>
<g transform="matrix(0.13 0 0 -0.13 1486.91 2242.54)" id="path130"  >
<path style="stroke: none; stroke-width: 1; stroke-dasharray: none; stroke-linecap: butt; stroke-dashoffset: 0; stroke-linejoin: miter; stroke-miterlimit: 4; fill: rgb(225,225,223); fill-rule: nonzero; opacity: 1;" vector-effect="non-scaling-stroke"  transform=" translate(-11936.95, -1630)" d="M 13587.8 2049.7 C 13444.099999999999 2049.7 12553 1861.4999999999998 11937 1857.9999999999998 C 11320.9 1861.4999999999998 10429.8 2049.7 10286.1 2049.7 C 10155.6 2049.7 10025.2 1770.4999999999998 10000.300000000001 1714.3999999999999 C 10502.6 1414.7999999999997 11144.900000000001 1212.6999999999998 11930.400000000001 1210.3999999999999 L 11930.400000000001 1210.3 C 11932.600000000002 1210.3 11934.800000000001 1210.3999999999999 11937.000000000002 1210.3999999999999 C 11939.200000000003 1210.3999999999999 11941.400000000001 1210.3 11943.600000000002 1210.3 L 11943.600000000002 1210.3999999999999 C 12729.000000000002 1212.6999999999998 13371.300000000003 1414.8 13873.600000000002 1714.3999999999999 C 13848.700000000003 1770.4999999999998 13718.300000000003 2049.7 13587.800000000003 2049.7" stroke-linecap="round" />
</g>
<g transform="matrix(0.13 0 0 -0.13 1486.92 2228.55)" id="path132"  >
<path style="stroke: none; stroke-width: 1; stroke-dasharray: none; stroke-linecap: butt; stroke-dashoffset: 0; stroke-linejoin: miter; stroke-miterlimit: 4; fill: rgb(255,255,255); fill-rule: nonzero; opacity: 1;" vector-effect="non-scaling-stroke"  transform=" translate(-11937, -1734.95)" d="M 13587.8 2049.7 C 13444.099999999999 2049.7 12553 1861.4999999999998 11937 1857.9999999999998 C 11320.9 1861.4999999999998 10429.8 2049.7 10286.1 2049.7 C 10213.1 2049.7 10140 1962.1 10085.5 1875.1999999999998 C 10574.6 1602.7999999999997 11188.6 1422.3999999999999 11930.4 1420.2999999999997 L 11930.4 1420.1999999999998 C 11932.6 1420.1999999999998 11934.8 1420.1999999999998 11937 1420.1999999999998 C 11939.2 1420.1999999999998 11941.4 1420.1999999999998 11943.6 1420.1999999999998 L 11943.6 1420.2999999999997 C 12685.4 1422.3999999999996 13299.4 1602.7999999999997 13788.5 1875.1999999999998 C 13734 1962.1 13660.9 2049.7 13587.8 2049.7" stroke-linecap="round" />
</g>
<g transform="matrix(0.13 0 0 -0.13 1482.21 2092.91)" id="path134"  >
<path style="stroke: none; stroke-width: 1; stroke-dasharray: none; stroke-linecap: butt; stroke-dashoffset: 0; stroke-linejoin: miter; stroke-miterlimit: 4; fill: rgb(239,49,116); fill-rule: nonzero; opacity: 1;" vector-effect="non-scaling-stroke"  transform=" translate(-11901.65, -2752.24)" d="M 12795.5 2990.5 C 12423.4 3316.1 11443.4 3270.3 11117 3037.1 C 10879.2 2867.1 10734.4 2646.6 10646.8 2430.3999999999996 C 10841.099999999999 2301.7 11086.9 2252.2999999999997 11315.599999999999 2297.5999999999995 C 11555.899999999998 2345.1999999999994 11773.8 2496.2999999999993 11902.599999999999 2704.5999999999995 C 11935.699999999999 2559.3999999999996 12084.899999999998 2472.8999999999996 12226.8 2427.4999999999995 C 12431.199999999999 2361.9999999999995 12651 2345.3999999999996 12863 2379.1999999999994 C 12965.7 2395.5999999999995 13073.9 2431.399999999999 13156.5 2492.1999999999994 C 13074.8 2670.5999999999995 12959.2 2847.2999999999993 12795.5 2990.4999999999995" stroke-linecap="round" />
</g>
<g transform="matrix(0.13 0 0 -0.13 1494.99 2405.8)" id="path136"  >
<path style="stroke: none; stroke-width: 1; stroke-dasharray: none; stroke-linecap: butt; stroke-dashoffset: 0; stroke-linejoin: miter; stroke-miterlimit: 4; fill: rgb(70,50,52); fill-rule: nonzero; opacity: 1;" vector-effect="non-scaling-stroke"  transform=" translate(-11997.55, -405.6)" d="M 12175 100.301 C 12150.4 100.301 12118.2 100.801 12078.7 102 C 12027 103.102 11994.900000000001 103.902 11982.300000000001 104.102 L 11853.6 105.89800000000001 C 11840.7 105.602 11822.2 106.19900000000001 11798.1 107.602 C 11789.800000000001 109 11785.6 113.5 11785.6 120.898 C 11785.6 152.19899999999998 11786.1 199 11787.1 261.402 C 11788.1 323.801 11788.6 370.602 11788.6 401.902 C 11788.6 435.19899999999996 11787.6 485 11785.6 551.402 C 11783.6 617.801 11782.6 667.6990000000001 11782.6 701 C 11782.6 707.301 11786.9 710.402 11795.5 710.402 C 11804.1 710.402 11817 710 11834 709.1020000000001 C 11851.1 708.301 11863.8 707.801 11872.1 707.801 C 11881.6 707.801 11895.6 708.301 11914.300000000001 709.301 C 11932.900000000001 710.402 11947.000000000002 710.898 11956.400000000001 710.898 C 11960.7 710.898 11962.7 708.102 11962.500000000002 702.6990000000001 L 11962.000000000002 697.1020000000001 C 11958.600000000002 643.1020000000001 11954.700000000003 562.1020000000001 11950.400000000001 454.0000000000001 L 11950.000000000002 340.4020000000001 C 11950.000000000002 303.6020000000001 11950.100000000002 276.8010000000001 11950.400000000001 259.9020000000001 C 11950.7 256.5000000000001 11951.000000000002 253.0000000000001 11951.300000000001 249.6020000000001 C 11951.6 246.1020000000001 11953.7 244.00000000000009 11957.7 243.1020000000001 C 11958 243.1020000000001 11961.7 243.1020000000001 11968.900000000001 243.1020000000001 C 11994.7 243.1020000000001 12033.400000000001 244.50000000000009 12084.900000000001 247.1990000000001 C 12136.400000000001 249.9020000000001 12175.000000000002 251.3010000000001 12200.900000000001 251.3010000000001 C 12208.600000000002 251.3010000000001 12212.500000000002 248.0000000000001 12212.500000000002 241.4020000000001 C 12212.500000000002 192.4020000000001 12208.900000000001 150.0000000000001 12201.700000000003 114.5000000000001 C 12200.300000000003 107.0000000000001 12197.300000000003 102.6020000000001 12192.700000000003 101.1020000000001 C 12191.200000000003 100.6020000000001 12185.400000000003 100.3010000000001 12175.000000000002 100.3010000000001" stroke-linecap="round" />
</g>
<g transform="matrix(0.13 0 0 -0.13 386.81 2039.14)" id="path138"  >
<path style="stroke: none; stroke-width: 1; stroke-dasharray: none; stroke-linecap: butt; stroke-dashoffset: 0; stroke-linejoin: miter; stroke-miterlimit: 4; fill: rgb(108,19,39); fill-rule: nonzero; opacity: 1;" vector-effect="non-scaling-stroke"  transform=" translate(-3686.17, -3155.52)" d="M 6466.4 4307.4 C 5981.59 5012.9 4953.22 4891.5 3684.76 4886 C 2416.3 4891.5 1390.75 5012.9 905.949 4307.4 C 387.621 3553.2 1243.11 1438 3674.2 1414 L 3674.2 1413.8 C 3678.21 1413.8 3682.1699999999996 1413.8999999999999 3686.1699999999996 1413.8999999999999 C 3690.18 1413.8999999999999 3694.1399999999994 1413.8 3698.1499999999996 1413.8 L 3698.1499999999996 1414 C 6129.24 1438 6984.73 3553.2 6466.4 4307.4" stroke-linecap="round" />
</g>
<g transform="matrix(0.13 0 0 -0.13 382.46 2164.44)" id="path140"  >
<path style="stroke: none; stroke-width: 1; stroke-dasharray: none; stroke-linecap: butt; stroke-dashoffset: 0; stroke-linejoin: miter; stroke-miterlimit: 4; fill: rgb(218,23,78); fill-rule: nonzero; opacity: 1;" vector-effect="non-scaling-stroke"  transform=" translate(-3653.57, -2215.75)" d="M 5552.17 2884.2 C 4769.89 3256.7 3804.48 2737.5 3653.52 2651.1 C 3502.56 2737.5 2537.15 3256.7 1754.8799999999999 2884.2 C 1427.07 2728.1 1385.87 2494.3999999999996 1459.85 2265.2999999999997 C 1856.1899999999998 1871.7999999999997 2424.2 1555.5999999999997 3171.6899999999996 1450.9999999999998 L 3633.1799999999994 1417.2999999999997 L 3633.1799999999994 1414.9999999999998 C 3635.5399999999995 1414.8999999999999 3637.8899999999994 1414.8999999999999 3640.2599999999993 1414.7999999999997 L 3653.5199999999995 1415.7999999999997 L 3673.8699999999994 1414.2999999999997 L 3673.8699999999994 1417.2999999999997 L 4264.65 1460.4999999999998 C 4918.959999999999 1563.9999999999998 5431.969999999999 1831.1999999999998 5809.3099999999995 2168.2 C 5927.2699999999995 2426.5 5926.5199999999995 2705.8999999999996 5552.169999999999 2884.2" stroke-linecap="round" />
</g>
<g transform="matrix(0.13 0 0 -0.13 377.03 2104.22)" id="path142"  >
<path style="stroke: none; stroke-width: 1; stroke-dasharray: none; stroke-linecap: butt; stroke-dashoffset: 0; stroke-linejoin: miter; stroke-miterlimit: 4; fill: rgb(239,49,116); fill-rule: nonzero; opacity: 1;" vector-effect="non-scaling-stroke"  transform=" translate(-3612.85, -2667.44)" d="M 5696.28 2797.3 C 5656.03 2828.3 5608.42 2857.4 5552.17 2884.2000000000003 C 4769.89 3256.7000000000003 3771.37 3133.9 3620.42 3047.5000000000005 C 3469.4500000000003 3133.9000000000005 2537.15 3256.7000000000003 1754.8700000000001 2884.2000000000003 C 1654.3200000000002 2836.3 1581 2781.0000000000005 1529.42 2720.9 C 1597.64 2567.4 1810.79 2314.2000000000003 2477.1800000000003 2230.9 C 3277.9400000000005 2130.8 3533.3500000000004 2276.1 3600 2332.5 C 3666.65 2276.1 3922.07 2130.8 4722.82 2230.9 C 5519.0199999999995 2330.4 5668.29 2672.5 5696.28 2797.3" stroke-linecap="round" />
</g>
<g transform="matrix(0.13 0 0 -0.13 386.87 1859.32)" id="path144"  >
<path style="stroke: none; stroke-width: 1; stroke-dasharray: none; stroke-linecap: butt; stroke-dashoffset: 0; stroke-linejoin: miter; stroke-miterlimit: 4; fill: rgb(225,225,223); fill-rule: nonzero; opacity: 1;" vector-effect="non-scaling-stroke"  transform=" translate(-3686.63, -4504.2)" d="M 6130.84 4627.8 C 5579.59 4970.6 4710.74 4890.400000000001 3684.76 4886 C 2543.08 4890.9 1598.2600000000002 4989.6 1067.3000000000002 4495 C 1031.1000000000001 4458.9 996.1990000000002 4421.2 962.6450000000002 4381.5 C 1457.6600000000003 4250.6 2387.4100000000003 4111.2 3688.6800000000003 4111.2 L 3688.6900000000005 4111.2 L 3688.6900000000005 4111.2 C 4986.410000000001 4111.2 5914.59 4249.8 6410.620000000001 4380.4 C 6332.900000000001 4472.599999999999 6238.800000000001 4554.799999999999 6130.840000000001 4627.799999999999" stroke-linecap="round" />
</g>
<g transform="matrix(0.13 0 0 -0.13 386.89 1874.84)" id="path146"  >
<path style="stroke: none; stroke-width: 1; stroke-dasharray: none; stroke-linecap: butt; stroke-dashoffset: 0; stroke-linejoin: miter; stroke-miterlimit: 4; fill: rgb(255,255,255); fill-rule: nonzero; opacity: 1;" vector-effect="non-scaling-stroke"  transform=" translate(-3686.8, -4387.8)" d="M 3684.76 4658.6 C 2579.33 4663.400000000001 1658.7800000000002 4720 1119.1600000000003 4343.3 C 1641.8000000000002 4224.8 2513.7400000000002 4111.2 3688.6800000000003 4111.2 L 3688.6900000000005 4111.2 L 3688.6900000000005 4111.2 C 4860.830000000001 4111.2 5731.380000000001 4224.3 6254.43 4342.4 C 5714.99 4720.5 4791.04 4663.4 3684.76 4658.599999999999" stroke-linecap="round" />
</g>
<g transform="matrix(0.13 0 0 -0.13 386.81 2232.38)" id="path148"  >
<path style="stroke: none; stroke-width: 1; stroke-dasharray: none; stroke-linecap: butt; stroke-dashoffset: 0; stroke-linejoin: miter; stroke-miterlimit: 4; fill: rgb(225,225,223); fill-rule: nonzero; opacity: 1;" vector-effect="non-scaling-stroke"  transform=" translate(-3686.17, -1706.2)" d="M 1772.66 1998.6 C 2239.24 1658.4 2870.61 1421.9 3674.2 1414 L 3674.2 1413.8 C 3678.21 1413.8 3682.1699999999996 1413.8999999999999 3686.1699999999996 1413.8999999999999 C 3690.18 1413.8999999999999 3694.1399999999994 1413.8 3698.1499999999996 1413.8 L 3698.1499999999996 1414 C 4501.73 1421.9 5133.11 1658.4 5599.679999999999 1998.6 C 5284.799999999999 1976 4352.61 1869.6 3686.169999999999 1867.3999999999999 C 3019.729999999999 1869.6 2087.5499999999993 1975.9999999999998 1772.6599999999992 1998.6" stroke-linecap="round" />
</g>
<g transform="matrix(0.13 0 0 -0.13 386.81 2225.51)" id="path150"  >
<path style="stroke: none; stroke-width: 1; stroke-dasharray: none; stroke-linecap: butt; stroke-dashoffset: 0; stroke-linejoin: miter; stroke-miterlimit: 4; fill: rgb(255,255,255); fill-rule: nonzero; opacity: 1;" vector-effect="non-scaling-stroke"  transform=" translate(-3686.17, -1757.75)" d="M 5389.81 1980.7 C 3754.9600000000005 1831.3 3626.6900000000005 1830.4 1982.5300000000002 1980.7 C 2422.9900000000002 1716.7 2985.3100000000004 1541.9 3674.2000000000003 1535.1 L 3674.2000000000003 1534.8 C 3674.3 1534.8 3674.7200000000003 1534.8999999999999 3698.15 1534.8 L 3698.15 1535.1 C 4387.04 1541.8999999999999 4949.360000000001 1716.6999999999998 5389.81 1980.6999999999998" stroke-linecap="round" />
</g>
<g transform="matrix(0.13 0 0 -0.13 324.39 2411.4)" id="path164"  >
<path style="stroke: none; stroke-width: 1; stroke-dasharray: none; stroke-linecap: butt; stroke-dashoffset: 0; stroke-linejoin: miter; stroke-miterlimit: 4; fill: rgb(70,50,52); fill-rule: nonzero; opacity: 1;" vector-effect="non-scaling-stroke"  transform=" translate(-3218.01, -363.6)" d="M 3361.72 409.699 C 3361.72 453.801 3348.9599999999996 490.699 3323.43 520.1990000000001 C 3296.46 551.1990000000001 3261.3199999999997 566.6990000000001 3218.0099999999998 566.6990000000001 C 3173.2599999999998 566.6990000000001 3137.8199999999997 551.402 3111.72 520.6990000000001 C 3086.77 491.69900000000007 3074.29 454.40200000000004 3074.29 408.80100000000004 C 3074.29 362.30100000000004 3086.48 325.00000000000006 3110.86 296.90200000000004 C 3136.3900000000003 267.10200000000003 3172.11 252.19900000000004 3218.01 252.19900000000004 C 3262.4700000000003 252.19900000000004 3297.8900000000003 267.50000000000006 3324.2900000000004 298.19900000000007 C 3349.2500000000005 327.50000000000006 3361.7200000000003 364.6020000000001 3361.7200000000003 409.69900000000007 z M 3524.81 408.801 C 3524.81 332.5 3504 266.801 3462.41 211.69899999999998 C 3419.96 155.19899999999998 3362.0099999999998 119.10199999999999 3288.5699999999997 103.30099999999999 C 3302.9199999999996 73.99999999999999 3324.2899999999995 47.19919999999999 3352.6899999999996 22.80079999999998 C 3355.2699999999995 20.80079999999998 3356.5599999999995 18.902299999999983 3356.5599999999995 17.19919999999998 C 3356.56 5.80078 3321.28 0 3250.71 0 C 3198.79 0 3166.8 2 3154.75 6 C 3148.15 8.30078 3144 13.601600000000001 3142.27 22 C 3138.83 38.601600000000005 3137.68 66.30080000000001 3138.83 105 C 3068.5499999999997 122.5 3012.7599999999998 159.5 2971.45 216 C 2931.2799999999997 270.801 2911.21 335.102 2911.21 408.801 C 2911.21 498 2939.89 573 2997.27 633.8009999999999 C 3055.79 696.102 3129.37 727.199 3218.01 727.199 C 3306.07 727.199 3379.51 695.8979999999999 3438.32 633.3979999999999 C 3495.98 572.3009999999999 3524.81 497.3979999999999 3524.81 408.80099999999993" stroke-linecap="round" />
</g>
<g transform="matrix(0.13 0 0 -0.13 447.34 2405.46)" id="path166"  >
<path style="stroke: none; stroke-width: 1; stroke-dasharray: none; stroke-linecap: butt; stroke-dashoffset: 0; stroke-linejoin: miter; stroke-miterlimit: 4; fill: rgb(70,50,52); fill-rule: nonzero; opacity: 1;" vector-effect="non-scaling-stroke"  transform=" translate(-4140.17, -408.15)" d="M 4529.37 491 C 4529.37 490.102 4502.69 432.301 4449.34 317.602 C 4395.12 200.49999999999997 4364.14 134.69899999999998 4356.39 120.10199999999998 C 4353.81 114.90199999999997 4352.2300000000005 111.99999999999997 4351.660000000001 111.49999999999997 C 4350.510000000001 109.99999999999997 4347.790000000001 108.69899999999997 4343.4800000000005 107.60199999999998 C 4336.31 105.89799999999998 4315.9400000000005 104.99999999999997 4282.38 104.99999999999997 C 4251.11 104.99999999999997 4232.04 105.89799999999997 4225.150000000001 107.60199999999998 C 4219.410000000001 108.99999999999997 4215.97 110.19899999999997 4214.820000000001 110.99999999999997 C 4213.68 111.90199999999997 4211.81 114.60199999999998 4209.2300000000005 119.19899999999997 C 4207.51 122.40199999999997 4199.330000000001 142.60199999999998 4184.700000000001 179.902 L 4137.8 299.5 L 4090.04 178.602 C 4085.16 164.80100000000002 4077.13 145 4065.94 119.19900000000001 C 4063.07 114.30100000000002 4061.06 111.40200000000002 4059.92 110.40200000000002 C 4058.77 109.40200000000002 4055.4700000000003 108.39800000000001 4050.02 107.60200000000002 C 4040.27 105.89800000000002 4021.47 105.00000000000001 3993.65 105.00000000000001 C 3959.23 105.00000000000001 3938.58 105.89800000000001 3931.69 107.60200000000002 C 3926.81 108.69900000000001 3922.8 112.90200000000002 3919.64 120.10200000000002 C 3807.19 351 3750.97 474.602 3750.97 491 C 3750.97 513.902 3751.7599999999998 548.301 3753.33 594 C 3754.91 639.801 3755.7 674.102 3755.7 697.102 C 3755.7 706.602 3758.5699999999997 711.3009999999999 3764.31 711.3009999999999 C 3780.66 711.3009999999999 3805.4 710.602 3838.5299999999997 709.102 C 3871.6699999999996 707.699 3896.5499999999997 707 3913.1899999999996 707 C 3919.7899999999995 707 3923.0899999999997 704.301 3923.0899999999997 698.801 C 3923.0899999999997 675.898 3922.0099999999998 641.1990000000001 3919.8599999999997 594.898 C 3917.7099999999996 548.602 3916.6299999999997 513.902 3916.6299999999997 491 C 3916.6299999999997 482.398 3927.0999999999995 455 3948.0399999999995 408.801 C 3966.9799999999996 367.5 3980.7399999999993 339.5 3989.3499999999995 324.89799999999997 C 3993.6499999999996 317.39799999999997 3996.5199999999995 313.69899999999996 3997.9599999999996 313.69899999999996 C 4000.2499999999995 313.69899999999996 4006.1299999999997 327.49999999999994 4015.5999999999995 354.99999999999994 C 4042.5599999999995 432.19899999999996 4056.3299999999995 477.80099999999993 4056.9099999999994 491.80099999999993 C 4058.0499999999993 518.199 4058.1999999999994 551.8009999999999 4057.3399999999992 592.4999999999999 C 4056.479999999999 651.3009999999999 4056.0499999999993 684.9999999999999 4056.0499999999993 693.6019999999999 C 4056.0499999999993 699.1019999999999 4056.479999999999 702.3009999999998 4057.3399999999992 703.3009999999998 C 4058.1999999999994 704.3009999999998 4061.3499999999995 705.3009999999998 4066.7999999999993 706.1019999999999 C 4081.4299999999994 707.8009999999998 4106.669999999999 708.6989999999998 4142.539999999999 708.6989999999998 C 4197.329999999999 708.6989999999998 4224.719999999999 704.8009999999998 4224.719999999999 697.1019999999999 C 4224.719999999999 677.9019999999998 4223.999999999999 647.9999999999999 4222.57 607.6019999999999 C 4221.13 568.3009999999998 4220.5599999999995 538.4999999999999 4220.849999999999 518.1019999999999 L 4220.849999999999 496.10199999999986 C 4220.849999999999 481.4999999999999 4235.62 434.89799999999985 4265.169999999999 356.3009999999999 C 4275.209999999999 328.9999999999999 4281.23 315.4019999999999 4283.239999999999 315.4019999999999 C 4284.6799999999985 315.4019999999999 4287.539999999999 319.10199999999986 4291.8499999999985 326.60199999999986 C 4299.869999999999 340.69899999999984 4312.779999999999 368.4999999999999 4330.569999999999 410.10199999999986 C 4350.369999999999 455.4019999999999 4360.259999999998 482.39799999999985 4360.259999999998 490.9999999999999 C 4360.259999999998 514.1989999999998 4359.189999999999 548.9999999999999 4357.039999999998 595.3009999999999 C 4354.879999999998 641.602 4353.809999999999 676.3009999999999 4353.809999999999 699.199 C 4353.809999999999 704.4019999999999 4357.0999999999985 707 4363.709999999998 707 C 4380.629999999998 707 4406.089999999998 707.699 4440.079999999998 709.102 C 4474.079999999998 710.602 4499.529999999998 711.3009999999999 4516.459999999998 711.3009999999999 C 4521.909999999998 711.3009999999999 4524.6399999999985 705.4999999999999 4524.6399999999985 694.102 C 4524.6399999999985 671.4019999999999 4525.419999999998 637.5 4526.999999999998 592.3009999999999 C 4528.569999999998 547.102 4529.369999999998 513.3979999999999 4529.369999999998 490.99999999999994" stroke-linecap="round" />
</g>
<g transform="matrix(0.13 0 0 -0.13 1896.18 320.7)" id="path222"  >
<path style="stroke: none; stroke-width: 1; stroke-dasharray: none; stroke-linecap: butt; stroke-dashoffset: 0; stroke-linejoin: miter; stroke-miterlimit: 4; fill: rgb(231,169,138); fill-rule: nonzero; opacity: 1;" vector-effect="non-scaling-stroke"  transform=" translate(-14879.5, -15908.09)" d="M 15459.8 15553.6 C 15303.4 15806.2 15104.599999999999 16018.4 14822.4 16111.800000000001 C 14639.6 16182.2 14345.1 16179.7 14299.199999999999 16183.400000000001 C 14511.099999999999 16283.400000000001 14786.3 16300.000000000002 15042.3 16167.100000000002 C 15308.5 16023.400000000001 15448.599999999999 15742.000000000002 15459.8 15553.600000000002" stroke-linecap="round" />
</g>
<g transform="matrix(0.13 0 0 -0.13 1072.37 320.7)" id="path226"  >
<path style="stroke: none; stroke-width: 1; stroke-dasharray: none; stroke-linecap: butt; stroke-dashoffset: 0; stroke-linejoin: miter; stroke-miterlimit: 4; fill: rgb(231,169,138); fill-rule: nonzero; opacity: 1;" vector-effect="non-scaling-stroke"  transform=" translate(-8752.8, -15907.34)" d="M 8172.51 15552.9 C 8183.83 15742.5 8323.35 16022.4 8590.04 16166.3 C 8847.470000000001 16300 9122.78 16281.8 9333.080000000002 16182.5 C 9273.010000000002 16177.8 9083.600000000002 16180 8932.990000000002 16144.6 C 8649.62 16079 8408.770000000002 15934.5 8172.510000000002 15552.9" stroke-linecap="round" />
</g>
</svg>