<?xml version="1.0" encoding="UTF-8" standalone="no" ?>
<!DOCTYPE svg PUBLIC "-//W3C//DTD SVG 1.1//EN" "http://www.w3.org/Graphics/SVG/1.1/DTD/svg11.dtd">
<svg xmlns="http://www.w3.org/2000/svg" xmlns:xlink="http://www.w3.org/1999/xlink" version="1.1" width="1080" height="1080" viewBox="939 409 1080 1080" xml:space="preserve">
<desc>Created with Fabric.js 5.2.4</desc>
<defs>
</defs>
<rect x="0" y="0" width="100%" height="100%" fill="transparent"></rect>
<g transform="matrix(1 0 0 1 540 540)" id="5c97567d-8967-4366-88df-3620979693d4"  >
<rect style="stroke: none; stroke-width: 1; stroke-dasharray: none; stroke-linecap: butt; stroke-dashoffset: 0; stroke-linejoin: miter; stroke-miterlimit: 4; fill: rgb(255,255,255); fill-rule: nonzero; opacity: 1; visibility: hidden;" vector-effect="non-scaling-stroke"  x="-540" y="-540" rx="0" ry="0" width="1080" height="1080" />
</g>
<g transform="matrix(1 0 0 1 540 540)" id="cc6ebf43-9c19-46e9-bb2b-4ca873ffb12c"  >
</g>
<g transform="matrix(0.13 0 0 -0.13 753.71 53.33)" id="path22"  >
<path style="stroke: none; stroke-width: 1; stroke-dasharray: none; stroke-linecap: butt; stroke-dashoffset: 0; stroke-linejoin: miter; stroke-miterlimit: 4; fill: rgb(225,225,223); fill-rule: nonzero; opacity: 1;" vector-effect="non-scaling-stroke"  transform=" translate(-3714.01, -15622.15)" d="M 6453.73 16211.6 C 5802.599999999999 16300 4948.599999999999 15652.9 3684.49 15650.2 C 2458.24 15652.800000000001 1617.8999999999996 16261.900000000001 974.2979999999998 16217.7 C 989.9989999999998 16013.1 1041.5699999999997 15672.800000000001 1210.8199999999997 15545.900000000001 C 1488.9799999999998 15337.300000000001 2358.2299999999996 15024.300000000001 3714.2499999999995 15024.300000000001 L 3714.2499999999995 15024.300000000001 L 3714.2599999999998 15024.300000000001 C 5070.28 15024.300000000001 5939.52 15337.300000000001 6217.68 15545.900000000001 C 6385.25 15671.600000000002 6437.47 16006.300000000001 6453.7300000000005 16211.600000000002" stroke-linecap="round" />
</g>
<g transform="matrix(0.14 0 0 -0.14 -26.65 283.41)" id="path32"  >
<path style="stroke: none; stroke-width: 1; stroke-dasharray: none; stroke-linecap: butt; stroke-dashoffset: 0; stroke-linejoin: miter; stroke-miterlimit: 4; fill: rgb(231,169,138); fill-rule: nonzero; opacity: 1;" vector-effect="non-scaling-stroke"  transform=" translate(-571.89, -15950.72)" d="M 0 15601.4 C 16.4858 15877.6 269.162 16205.1 591.93 16276 C 745.962 16318.1 962.1129999999999 16307.8 1143.78 16222 C 1102.3899999999999 16218.7 952.544 16217.3 876.306 16205.5 C 520.326 16155 260.035 16021.5 0 15601.4" stroke-linecap="round" />
</g>
<g transform="matrix(0.14 0 0 -0.14 800.26 283.38)" id="path36"  >
<path style="stroke: none; stroke-width: 1; stroke-dasharray: none; stroke-linecap: butt; stroke-dashoffset: 0; stroke-linejoin: miter; stroke-miterlimit: 4; fill: rgb(231,169,138); fill-rule: nonzero; opacity: 1;" vector-effect="non-scaling-stroke"  transform=" translate(-6632.07, -15950.94)" d="M 7203.96 15601.4 C 6805.18 16245.5 6372.63 16197.1 6060.17 16222 C 6280.34 16326 6548.9400000000005 16332.5 6792.46 16206 C 7054.88 16064.4 7192.88 15787.1 7203.96 15601.4" stroke-linecap="round" />
</g>
<g transform="matrix(0.13 0 0 -0.13 1483.45 1322.19)" id="path44"  >
<path style="stroke: none; stroke-width: 1; stroke-dasharray: none; stroke-linecap: butt; stroke-dashoffset: 0; stroke-linejoin: miter; stroke-miterlimit: 4; fill: rgb(108,19,39); fill-rule: nonzero; opacity: 1;" vector-effect="non-scaling-stroke"  transform=" translate(-11910.98, -8532.65)" d="M 11911 9602.14 C 10801.7 9602.49 8472.29 9662.859999999999 8507.16 8756.21 C 8535.2 8027.219999999999 10491.2 7474.669999999999 11887.5 7462.449999999999 L 11887.5 7462.219999999999 C 11895.3 7462.219999999999 11903.1 7462.249999999999 11911 7462.289999999999 C 11918.8 7462.249999999999 11926.7 7462.219999999999 11934.5 7462.219999999999 L 11934.5 7462.449999999999 C 13330.7 7474.669999999999 15286.8 8027.219999999999 15314.8 8756.21 C 15349.699999999999 9662.859999999999 13020.199999999999 9602.49 11911 9602.14" stroke-linecap="round" />
</g>
<g transform="matrix(0.13 0 0 -0.13 1057.56 1212.44)" id="path46"  >
<path style="stroke: none; stroke-width: 1; stroke-dasharray: none; stroke-linecap: butt; stroke-dashoffset: 0; stroke-linejoin: miter; stroke-miterlimit: 4; fill: rgb(231,169,138); fill-rule: nonzero; opacity: 1;" vector-effect="non-scaling-stroke"  transform=" translate(-8716.81, -9355.74)" d="M 8171.15 8952.77 C 8156.25 9235.73 8375.94 9597.62 8695.789999999999 9706.61 C 8847.83 9767.1 9068.9 9781.27 9263.179999999998 9714.970000000001 C 9221.599999999999 9706.890000000001 9069.189999999999 9688.18 8993.069999999998 9667.490000000002 C 8635.449999999997 9574.940000000002 8386.859999999997 9408.440000000002 8171.149999999998 8952.770000000002" stroke-linecap="round" />
</g>
<g transform="matrix(0.13 0 0 -0.13 1910.99 1212.36)" id="path48"  >
<path style="stroke: none; stroke-width: 1; stroke-dasharray: none; stroke-linecap: butt; stroke-dashoffset: 0; stroke-linejoin: miter; stroke-miterlimit: 4; fill: rgb(231,169,138); fill-rule: nonzero; opacity: 1;" vector-effect="non-scaling-stroke"  transform=" translate(-15117.52, -9356.35)" d="M 15663.2 8952.77 C 15331.300000000001 9653.810000000001 14885.900000000001 9653.810000000001 14571.2 9714.970000000001 C 14807 9795.44 15080.900000000001 9771.310000000001 15314 9614.750000000002 C 15564.7 9440.680000000002 15673.2 9142.810000000001 15663.2 8952.770000000002" stroke-linecap="round" />
</g>
<g transform="matrix(0.13 0 0 -0.13 1488.77 1231.26)" id="path50"  >
<path style="stroke: none; stroke-width: 1; stroke-dasharray: none; stroke-linecap: butt; stroke-dashoffset: 0; stroke-linejoin: miter; stroke-miterlimit: 4; fill: rgb(225,225,223); fill-rule: nonzero; opacity: 1;" vector-effect="non-scaling-stroke"  transform=" translate(-11950.88, -9214.62)" d="M 11922.2 9602.14 C 11921.7 9602.14 11921.2 9602.13 11920.7 9602.13 C 11920.300000000001 9602.13 11919.800000000001 9602.14 11919.400000000001 9602.14 C 11916.600000000002 9602.14 11913.800000000001 9602.14 11911.000000000002 9602.14 C 11241.300000000001 9602.349999999999 10126.800000000001 9624.42 9356.45 9442.369999999999 C 9380.490000000002 9405.919999999998 9408.04 9374.55 9439.77 9350.74 C 9719.560000000001 9140.91 10593.900000000001 8826.15 11957.800000000001 8826.15 L 11957.800000000001 8826.15 L 11957.800000000001 8826.15 C 13321.7 8826.15 14196.100000000002 9140.91 14475.800000000001 9350.74 C 14501.6 9370.1 14524.7 9394.47 14545.300000000001 9422.46 C 13778.000000000002 9624.929999999998 12616.7 9602.609999999999 11922.2 9602.14" stroke-linecap="round" />
</g>
<g transform="matrix(0.13 0 0 -0.13 1488.05 1247.58)" id="path52"  >
<path style="stroke: none; stroke-width: 1; stroke-dasharray: none; stroke-linecap: butt; stroke-dashoffset: 0; stroke-linejoin: miter; stroke-miterlimit: 4; fill: rgb(255,255,255); fill-rule: nonzero; opacity: 1;" vector-effect="non-scaling-stroke"  transform=" translate(-11945.46, -9092.21)" d="M 11911 9357.33 C 11311.7 9357.52 10356.2 9375.22 9609.82 9248.47 C 9998.88 9051.89 10802.7 8826.15 11957.8 8826.15 L 11957.8 8826.15 L 11957.8 8826.15 C 13088.9 8826.15 13883.3 9042.63 14281.099999999999 9236.21 C 13525.499999999998 9376.33 12528.899999999998 9357.529999999999 11910.999999999998 9357.33" stroke-linecap="round" />
</g>
<g transform="matrix(0.13 0 0 -0.13 1485.43 1425.28)" id="path54"  >
<path style="stroke: none; stroke-width: 1; stroke-dasharray: none; stroke-linecap: butt; stroke-dashoffset: 0; stroke-linejoin: miter; stroke-miterlimit: 4; fill: rgb(225,225,223); fill-rule: nonzero; opacity: 1;" vector-effect="non-scaling-stroke"  transform=" translate(-11925.85, -7759.49)" d="M 13578.7 8056.75 C 13435 8056.75 12543.900000000001 7868.58 11927.900000000001 7865.05 C 11311.800000000001 7868.58 10420.7 8056.75 10277.000000000002 8056.75 C 10158.100000000002 8056.75 10039.300000000001 7825 10000.300000000001 7741.37 C 10603.7 7569.84 11295.800000000001 7467.63 11887.500000000002 7462.45 L 11887.500000000002 7462.22 C 11895.300000000001 7462.22 11903.100000000002 7462.25 11911.000000000002 7462.29 C 11918.800000000001 7462.25 11926.700000000003 7462.22 11934.500000000002 7462.22 L 11934.500000000002 7462.45 C 12535.900000000001 7467.71 13241.100000000002 7573.23 13851.400000000001 7749.9 C 13808.800000000001 7839.69 13693.800000000001 8056.75 13578.7 8056.75" stroke-linecap="round" />
</g>
<g transform="matrix(0.13 0 0 -0.13 1485.38 1415.95)" id="path56"  >
<path style="stroke: none; stroke-width: 1; stroke-dasharray: none; stroke-linecap: butt; stroke-dashoffset: 0; stroke-linejoin: miter; stroke-miterlimit: 4; fill: rgb(255,255,255); fill-rule: nonzero; opacity: 1;" vector-effect="non-scaling-stroke"  transform=" translate(-11925.45, -7829.43)" d="M 13578.7 8056.75 C 13435 8056.75 12543.900000000001 7868.58 11927.900000000001 7865.05 C 11311.800000000001 7868.58 10420.7 8056.75 10277.000000000002 8056.75 C 10198.700000000003 8056.75 10120.400000000001 7956.1 10064.900000000001 7863.52 C 10652.800000000001 7702.820000000001 11316.800000000001 7607.34 11887.500000000002 7602.34 L 11887.500000000002 7602.110000000001 C 11895.300000000001 7602.110000000001 11903.100000000002 7602.150000000001 11911.000000000002 7602.18 C 11918.800000000001 7602.150000000001 11926.700000000003 7602.110000000001 11934.500000000002 7602.110000000001 L 11934.500000000002 7602.34 C 12514.600000000002 7607.42 13191.100000000002 7705.9800000000005 13786.000000000002 7871.51 C 13730.900000000001 7961.79 13654.800000000001 8056.75 13578.700000000003 8056.75" stroke-linecap="round" />
</g>
<g transform="matrix(0.13 0 0 -0.13 1479.64 1338.2)" id="path58"  >
<path style="stroke: none; stroke-width: 1; stroke-dasharray: none; stroke-linecap: butt; stroke-dashoffset: 0; stroke-linejoin: miter; stroke-miterlimit: 4; fill: rgb(218,23,78); fill-rule: nonzero; opacity: 1;" vector-effect="non-scaling-stroke"  transform=" translate(-11882.39, -8412.53)" d="M 13437.9 8920.54 C 12750.3 9121.42 12028.4 8865.27 11882.4 8862.320000000002 C 11736.4 8865.270000000002 11014.5 9121.420000000002 10326.9 8920.54 C 9580.65 8702.53 9990.72 8100.760000000001 10389.1 7972.480000000001 C 10838.2 7827.850000000001 11309.800000000001 7795.130000000001 11882.4 7858.450000000002 C 12455 7795.130000000002 12926.6 7827.850000000001 13375.699999999999 7972.480000000001 C 13774.099999999999 8100.760000000001 14184.099999999999 8702.53 13437.9 8920.54" stroke-linecap="round" />
</g>
<g transform="matrix(0.13 0 0 -0.13 1479.64 1299.17)" id="path60"  >
<path style="stroke: none; stroke-width: 1; stroke-dasharray: none; stroke-linecap: butt; stroke-dashoffset: 0; stroke-linejoin: miter; stroke-miterlimit: 4; fill: rgb(239,49,116); fill-rule: nonzero; opacity: 1;" vector-effect="non-scaling-stroke"  transform=" translate(-11882.4, -8705.32)" d="M 13650.8 8831.5 C 13650.8 8831.54 13650.699999999999 8831.59 13650.599999999999 8831.63 C 13642.699999999999 8836.32 13634.599999999999 8840.939999999999 13626.099999999999 8845.48 C 13625.8 8845.66 13625.499999999998 8845.84 13625.199999999999 8846.02 C 13617.099999999999 8850.35 13608.8 8854.61 13600.199999999999 8858.800000000001 C 13599.499999999998 8859.18 13598.699999999999 8859.560000000001 13597.999999999998 8859.94 C 13589.899999999998 8863.880000000001 13581.499999999998 8867.730000000001 13572.999999999998 8871.54 C 13571.699999999999 8872.12 13570.399999999998 8872.730000000001 13569.099999999999 8873.310000000001 C 13561.099999999999 8876.850000000002 13552.699999999999 8880.310000000001 13544.3 8883.730000000001 C 13542.4 8884.510000000002 13540.599999999999 8885.310000000001 13538.599999999999 8886.080000000002 C 13530.599999999999 8889.260000000002 13522.399999999998 8892.350000000002 13513.999999999998 8895.420000000002 C 13511.499999999998 8896.350000000002 13509.099999999999 8897.310000000001 13506.599999999999 8898.230000000001 C 13498.3 8901.2 13489.8 8904.080000000002 13481.199999999999 8906.94 C 13478.4 8907.85 13475.8 8908.810000000001 13472.999999999998 8909.720000000001 C 13461.599999999999 8913.420000000002 13449.899999999998 8917.03 13437.899999999998 8920.54 C 12750.299999999997 9121.42 12028.399999999998 8865.27 11882.399999999998 8862.320000000002 C 11736.399999999998 8865.270000000002 11014.499999999998 9121.420000000002 10326.899999999998 8920.54 C 10314.899999999998 8917.03 10303.199999999997 8913.42 10291.799999999997 8909.720000000001 C 10288.999999999998 8908.810000000001 10286.399999999998 8907.85 10283.599999999997 8906.94 C 10274.999999999996 8904.08 10266.499999999996 8901.2 10258.199999999997 8898.230000000001 C 10255.699999999997 8897.310000000001 10253.299999999997 8896.350000000002 10250.699999999997 8895.420000000002 C 10242.399999999998 8892.350000000002 10234.099999999997 8889.260000000002 10226.199999999997 8886.080000000002 C 10224.199999999997 8885.310000000001 10222.399999999998 8884.510000000002 10220.499999999996 8883.730000000001 C 10211.999999999996 8880.310000000001 10203.699999999997 8876.850000000002 10195.699999999997 8873.310000000001 C 10194.399999999998 8872.730000000001 10193.099999999997 8872.12 10191.799999999997 8871.54 C 10183.299999999997 8867.730000000001 10174.899999999998 8863.880000000001 10166.799999999997 8859.94 C 10165.999999999998 8859.560000000001 10165.299999999997 8859.18 10164.499999999998 8858.800000000001 C 10155.999999999998 8854.61 10147.699999999999 8850.35 10139.599999999999 8846.02 C 10139.3 8845.84 10138.999999999998 8845.66 10138.599999999999 8845.48 C 10130.199999999999 8840.939999999999 10122.099999999999 8836.32 10114.199999999999 8831.63 C 10114.099999999999 8831.589999999998 10113.999999999998 8831.539999999999 10113.9 8831.5 C 10105.9 8826.69 10098 8821.81 10090.5 8816.86 C 10162.2 8710.34 10380.8 8475.99 10920.3 8426.83 C 11470.4 8376.69 11780.9 8480.61 11882.4 8494.83 C 11983.9 8480.61 12294.4 8376.69 12844.5 8426.83 C 13384 8475.99 13602.6 8710.34 13674.3 8816.86 C 13666.699999999999 8821.810000000001 13658.9 8826.69 13650.8 8831.5" stroke-linecap="round" />
</g>
<g transform="matrix(0.13 0 0 -0.13 1424.96 1598.26)" id="path62"  >
<path style="stroke: none; stroke-width: 1; stroke-dasharray: none; stroke-linecap: butt; stroke-dashoffset: 0; stroke-linejoin: miter; stroke-miterlimit: 4; fill: rgb(70,50,52); fill-rule: nonzero; opacity: 1;" vector-effect="non-scaling-stroke"  transform=" translate(-11472.3, -6462.14)" d="M 11699.3 6631.4 C 11699.3 6625.7 11696.099999999999 6622.799999999999 11689.8 6622.799999999999 C 11678.9 6622.799999999999 11635.699999999999 6624.999999999999 11560.3 6629.299999999999 C 11558.599999999999 6556.699999999999 11557.699999999999 6506.099999999999 11557.699999999999 6477.4 C 11557.699999999999 6443.5 11559.099999999999 6392.599999999999 11561.8 6324.599999999999 C 11564.5 6256.7 11565.9 6205.7 11565.9 6171.9 C 11565.9 6166.4 11564.6 6163 11562 6161.599999999999 C 11561.2 6160.999999999999 11557.1 6160.299999999999 11550 6159.4 C 11532.8 6157.099999999999 11507.5 6156 11474.2 6156 C 11437.2 6156 11411.300000000001 6157.1 11396.400000000001 6159.4 C 11388.300000000001 6160.799999999999 11384.300000000001 6165.299999999999 11384.300000000001 6172.7 C 11384.300000000001 6206.599999999999 11385.7 6257.4 11388.6 6325.099999999999 C 11391.5 6392.799999999999 11392.9 6443.499999999999 11392.9 6477.4 C 11392.9 6499.799999999999 11391.8 6549.7 11389.5 6627.099999999999 C 11332.1 6621.4 11286.3 6618.499999999999 11252.2 6618.499999999999 C 11247.6 6618.499999999999 11245.300000000001 6619.999999999999 11245.300000000001 6622.799999999999 C 11245.300000000001 6626.599999999999 11247.300000000001 6637.599999999999 11251.300000000001 6655.999999999999 C 11255.900000000001 6675.999999999999 11258.500000000002 6688.239999999999 11259.1 6692.539999999999 C 11259.9 6706.019999999999 11261 6719.499999999999 11262.1 6732.989999999999 C 11264.1 6754.499999999999 11267.5 6765.259999999999 11272.4 6765.259999999999 C 11273 6765.259999999999 11275 6765.11 11278.5 6764.829999999999 C 11324.9 6758.809999999999 11393.6 6755.789999999999 11484.6 6755.789999999999 C 11510.4 6755.789999999999 11558 6758.519999999999 11627.4 6763.969999999999 C 11664.699999999999 6766.829999999999 11683.5 6768.2699999999995 11683.8 6768.2699999999995 C 11689.5 6768.2699999999995 11692.8 6767.91 11693.699999999999 6767.19 C 11694.499999999998 6766.48 11695.099999999999 6763.679999999999 11695.4 6758.8099999999995 C 11695.4 6751.0599999999995 11695.1 6740.299999999999 11694.5 6726.53 C 11694 6711.32 11693.7 6700.5599999999995 11693.7 6694.259999999999 C 11693.7 6687.089999999999 11694.6 6676.499999999999 11696.5 6662.599999999999 C 11698.3 6648.7 11699.3 6638.299999999999 11699.3 6631.4" stroke-linecap="round" />
</g>
<g transform="matrix(0.13 0 0 -0.13 1523.36 1598.55)" id="path64"  >
<path style="stroke: none; stroke-width: 1; stroke-dasharray: none; stroke-linecap: butt; stroke-dashoffset: 0; stroke-linejoin: miter; stroke-miterlimit: 4; fill: rgb(70,50,52); fill-rule: nonzero; opacity: 1;" vector-effect="non-scaling-stroke"  transform=" translate(-12210.3, -6459.95)" d="M 12499 6172.7 C 12499 6166.7 12497.7 6163 12495.1 6161.599999999999 C 12494 6160.7 12490 6159.999999999999 12483.1 6159.4 C 12465.6 6157.7 12440.9 6156.799999999999 12409.1 6156.799999999999 C 12364.1 6156.799999999999 12337.6 6157.699999999999 12329.7 6159.4 C 12321.800000000001 6161.099999999999 12317.900000000001 6165 12317.900000000001 6171 C 12317.900000000001 6193.7 12318.900000000001 6227.7 12321.100000000002 6273.2 C 12323.200000000003 6318.7 12324.300000000003 6352.8 12324.300000000003 6375.4 C 12324.300000000003 6386.599999999999 12321.200000000003 6393.099999999999 12314.900000000003 6394.799999999999 C 12305.100000000004 6397.099999999999 12270.400000000003 6398.199999999999 12210.700000000003 6398.199999999999 C 12150.800000000003 6398.199999999999 12115.800000000003 6397.0999999999985 12105.700000000003 6394.799999999999 C 12099.400000000003 6393.299999999999 12096.300000000003 6386.9 12096.300000000003 6375.4 C 12096.300000000003 6353 12097.000000000004 6319.5 12098.400000000003 6274.9 C 12099.800000000003 6230.299999999999 12100.600000000004 6196.799999999999 12100.600000000004 6174.5 C 12100.600000000004 6165.9 12096.700000000004 6160.8 12088.900000000003 6159.4 C 12079.800000000003 6157.7 12052.800000000003 6156.799999999999 12008.100000000004 6156.799999999999 C 11969.300000000005 6156.799999999999 11944.700000000004 6157.699999999999 11934.000000000004 6159.4 C 11925.700000000004 6160.799999999999 11921.600000000004 6165.299999999999 11921.600000000004 6172.7 C 11921.600000000004 6203.7 11923.100000000004 6250.5 11926.100000000004 6313 C 11929.100000000004 6375.6 11930.600000000004 6422.5 11930.600000000004 6453.7 C 11930.600000000004 6487 11929.200000000004 6537 11926.300000000005 6603.7 C 11923.400000000005 6670.4 11922.000000000005 6720.36 11922.000000000005 6753.639999999999 C 11922.000000000005 6759.94 11925.000000000005 6763.11 11931.000000000005 6763.11 C 11939.900000000005 6763.11 11953.300000000005 6762.679999999999 11971.300000000005 6761.82 C 11989.200000000004 6760.96 12002.600000000004 6760.53 12011.500000000005 6760.53 C 12020.700000000006 6760.53 12034.500000000005 6760.96 12053.000000000005 6761.82 C 12071.500000000005 6762.679999999999 12085.400000000005 6763.11 12094.500000000005 6763.11 C 12099.400000000005 6763.11 12101.900000000005 6760.53 12101.900000000005 6755.36 C 12101.900000000005 6733.849999999999 12100.300000000005 6701.639999999999 12097.100000000006 6658.799999999999 C 12094.000000000005 6615.9 12092.400000000005 6583.699999999999 12092.400000000005 6562.199999999999 C 12092.400000000005 6552.0999999999985 12095.100000000006 6546.199999999999 12100.600000000006 6544.499999999999 C 12108.000000000005 6542.199999999999 12144.700000000006 6541.099999999999 12210.700000000006 6541.099999999999 C 12272.100000000006 6541.099999999999 12307.700000000006 6542.2 12317.400000000007 6544.499999999999 C 12324.300000000007 6546.199999999999 12327.800000000007 6552.099999999999 12327.800000000007 6562.199999999999 C 12327.800000000007 6582.799999999999 12326.800000000007 6613.999999999999 12324.700000000006 6655.699999999999 C 12322.700000000006 6697.489999999999 12321.700000000006 6728.829999999999 12321.700000000006 6749.769999999999 C 12321.700000000006 6758.649999999999 12325.300000000007 6763.109999999999 12332.500000000005 6763.109999999999 C 12340.800000000005 6763.109999999999 12353.500000000005 6762.6799999999985 12370.600000000006 6761.819999999999 C 12387.600000000006 6760.959999999999 12400.500000000005 6760.529999999999 12409.100000000006 6760.529999999999 C 12417.400000000005 6760.529999999999 12430.100000000006 6760.959999999999 12447.200000000006 6761.819999999999 C 12464.200000000006 6762.6799999999985 12477.100000000006 6763.109999999999 12485.700000000006 6763.109999999999 C 12494.000000000005 6763.109999999999 12498.200000000006 6759.669999999999 12498.200000000006 6752.779999999999 C 12498.200000000006 6719.789999999999 12496.800000000007 6669.999999999999 12494.100000000006 6603.499999999999 C 12491.300000000007 6536.899999999999 12490.000000000005 6486.999999999999 12490.000000000005 6453.699999999999 C 12490.000000000005 6422.499999999999 12491.500000000005 6375.5999999999985 12494.500000000005 6312.999999999999 C 12497.500000000005 6250.499999999999 12499.000000000005 6203.699999999999 12499.000000000005 6172.699999999999" stroke-linecap="round" />
</g>
<g transform="matrix(0.18 0 0 -0.18 2587.4 1460.98)" id="path68"  >
<path style="stroke: none; stroke-width: 1; stroke-dasharray: none; stroke-linecap: butt; stroke-dashoffset: 0; stroke-linejoin: miter; stroke-miterlimit: 4; fill: rgb(108,19,39); fill-rule: nonzero; opacity: 1;" vector-effect="non-scaling-stroke"  transform=" translate(-14589, -5413.27)" d="M 16031.1 6437.25 C 15779.7 7064.32 15246.2 6956.41 14588.2 6951.58 C 13930.300000000001 6956.41 13398.300000000001 7064.32 13146.900000000001 6437.25 C 12878.000000000002 5766.83 13321.7 3886.54 14582.7 3865.22 L 14582.7 3865 C 14584.800000000001 3865 14586.900000000001 3865.08 14589 3865.15 C 14591.1 3865.08 14593.2 3865 14595.2 3865 L 14595.2 3865.22 C 15856.300000000001 3886.54 16300 5766.83 16031.1 6437.25" stroke-linecap="round" />
</g>
<g transform="matrix(0.18 0 0 -0.18 2587.44 1239.73)" id="path72"  >
<path style="stroke: none; stroke-width: 1; stroke-dasharray: none; stroke-linecap: butt; stroke-dashoffset: 0; stroke-linejoin: miter; stroke-miterlimit: 4; fill: rgb(225,225,223); fill-rule: nonzero; opacity: 1;" vector-effect="non-scaling-stroke"  transform=" translate(-14860.1, -6735.04)" d="M 16158.7 6844.74 C 15867.400000000001 7155.09 15401.2 7084.63 14859.1 7080.65 C 14255.9 7085.08 13756.4 7175.33 13476 6727.469999999999 C 13456.8 6694.839999999999 13438.2 6664.079999999999 13420.2 6623.86 C 13681.7 6505.299999999999 14173.7 6379.11 14861.2 6379.11 L 14861.2 6379.11 L 14861.2 6379.11 C 15546.900000000001 6379.11 16037.900000000001 6504.62 16300 6622.889999999999 C 16260.4 6706.389999999999 16215.7 6778.589999999999 16158.7 6844.74" stroke-linecap="round" />
</g>
<g transform="matrix(0.18 0 0 -0.18 2587.45 1258.84)" id="path76"  >
<path style="stroke: none; stroke-width: 1; stroke-dasharray: none; stroke-linecap: butt; stroke-dashoffset: 0; stroke-linejoin: miter; stroke-miterlimit: 4; fill: rgb(255,255,255); fill-rule: nonzero; opacity: 1;" vector-effect="non-scaling-stroke"  transform=" translate(-14936.45, -6663.57)" d="M 14935.4 6910.04 C 14348.4 6914.36 13859.5 6965.86 13572.9 6623.04 C 13850.4 6515.24 14313.5 6411.86 14937.4 6411.86 L 14937.5 6411.86 L 14937.5 6411.86 C 15559.9 6411.86 16022.3 6514.759999999999 16300 6622.2699999999995 C 16013.6 6966.36 15522.9 6914.36 14935.4 6910.039999999999" stroke-linecap="round" />
</g>
<g transform="matrix(0.16 0 0 -0.16 2375.85 1187.23)" id="path80"  >
<path style="stroke: none; stroke-width: 1; stroke-dasharray: none; stroke-linecap: butt; stroke-dashoffset: 0; stroke-linejoin: miter; stroke-miterlimit: 4; fill: rgb(231,169,138); fill-rule: nonzero; opacity: 1;" vector-effect="non-scaling-stroke"  transform=" translate(-15805.71, -8109.21)" d="M 15312 7744.26 C 15302.6 7923.87 15406.1 8189.150000000001 15627.9 8343.15 C 15847.4 8490.56 16098.9 8502.44 16300 8433.82 C 16262.6 8426.56 16074.9 8406.26 15941.1 8358.52 C 15691.6 8270.34 15487.6 8115.22 15312 7744.26" stroke-linecap="round" />
</g>
<g transform="matrix(0.18 0 0 -0.18 2817.34 1187.22)" id="path84"  >
<path style="stroke: none; stroke-width: 1; stroke-dasharray: none; stroke-linecap: butt; stroke-dashoffset: 0; stroke-linejoin: miter; stroke-miterlimit: 4; fill: rgb(231,169,138); fill-rule: nonzero; opacity: 1;" vector-effect="non-scaling-stroke"  transform=" translate(-15871.44, -6912.65)" d="M 16292.3 6601.56 C 16193.199999999999 6810.96 16057.9 6991.910000000001 15848.3 7088.4800000000005 C 15714.5 7158.110000000001 15483.599999999999 7182.870000000001 15450.099999999999 7189.360000000001 C 15622.599999999999 7248.2300000000005 15836.899999999998 7237.080000000001 16023.099999999999 7112.080000000001 C 16216.3 6977.830000000001 16299.999999999998 6748.1 16292.3 6601.560000000001" stroke-linecap="round" />
</g>
<g transform="matrix(0.18 0 0 -0.18 2589.24 1647.74)" id="path88"  >
<path style="stroke: none; stroke-width: 1; stroke-dasharray: none; stroke-linecap: butt; stroke-dashoffset: 0; stroke-linejoin: miter; stroke-miterlimit: 4; fill: rgb(218,23,78); fill-rule: nonzero; opacity: 1;" vector-effect="non-scaling-stroke"  transform=" translate(-15155.5, -4568.92)" d="M 16300 4726.08 C 16291.3 4838.82 16244 4943.69 16133.5 5022.73 C 15730.8 5310.57 15233.9 4909.33 15156.2 4842.65 C 15078.400000000001 4909.33 14581.6 5310.57 14178.900000000001 5022.73 C 14058.000000000002 4936.33 14012.900000000001 4819.089999999999 14011.000000000002 4694.419999999999 C 14269.300000000001 4305.869999999999 14643.200000000003 4020.9699999999993 15138.800000000001 4012.5699999999993 L 15138.800000000001 4012.3499999999995 C 15140.900000000001 4012.3499999999995 15143.000000000002 4012.4199999999996 15145.1 4012.4999999999995 C 15147.300000000001 4012.4199999999996 15149.5 4012.3499999999995 15151.6 4012.3499999999995 L 15151.6 4012.5699999999993 C 15660.5 4021.1999999999994 16041.1 4321.469999999999 16300 4726.079999999999" stroke-linecap="round" />
</g>
<g transform="matrix(0.18 0 0 -0.18 2585.63 1604.48)" id="path92"  >
<path style="stroke: none; stroke-width: 1; stroke-dasharray: none; stroke-linecap: butt; stroke-dashoffset: 0; stroke-linejoin: miter; stroke-miterlimit: 4; fill: rgb(239,49,116); fill-rule: nonzero; opacity: 1;" vector-effect="non-scaling-stroke"  transform=" translate(-15221.5, -4839.73)" d="M 16300 4983.85 C 16279.2 5007.910000000001 16254.5 5030.54 16225.4 5051.35 C 15820.4 5340.83 15349.3 4973.06 15242.5 4973.06 C 15135.8 4973.06 14664.6 5340.83 14259.7 5051.35 C 14207.6 5014.17 14169.7 4971.17 14143 4924.4800000000005 C 14178.3 4805.21 14288.7 4608.39 14633.6 4543.660000000001 C 15048.1 4465.880000000001 15180.300000000001 4578.820000000001 15214.800000000001 4622.650000000001 C 15249.300000000001 4578.820000000001 15381.500000000002 4465.88 15796.1 4543.660000000001 C 16208.2 4620.990000000001 16285.5 4886.910000000001 16300 4983.85" stroke-linecap="round" />
</g>
<g transform="matrix(0.17 0 0 -0.17 2589.73 1824.26)" id="path96"  >
<path style="stroke: none; stroke-width: 1; stroke-dasharray: none; stroke-linecap: butt; stroke-dashoffset: 0; stroke-linejoin: miter; stroke-miterlimit: 4; fill: rgb(70,50,52); fill-rule: nonzero; opacity: 1;" vector-effect="non-scaling-stroke"  transform=" translate(-16056.25, -3787.68)" d="M 16170.4 3787.83 C 16170.4 3822.08 16160 3851.08 16139.3 3874.99 C 16117.699999999999 3900.1 16089.9 3912.66 16056.199999999999 3912.66 C 16024.099999999999 3912.66 15996.9 3899.62 15974.499999999998 3873.64 C 15952.899999999998 3848.6099999999997 15942.099999999999 3819.77 15942.099999999999 3787.2 C 15942.099999999999 3752.3199999999997 15952.099999999999 3723.23 15972.499999999998 3699.95 C 15993.899999999998 3675.56 16021.799999999997 3663.41 16056.199999999999 3663.41 C 16088.3 3663.41 16115.699999999999 3676.2799999999997 16138.3 3702.02 C 16159.699999999999 3726.65 16170.4 3755.2599999999998 16170.4 3787.83 z M 16300 3787.2 C 16300 3716.08 16277.3 3656.4199999999996 16232 3608.35 C 16185.7 3559.56 16127.1 3535.17 16056.2 3535.17 C 15985.800000000001 3535.17 15927.400000000001 3559.8 15880.800000000001 3609.06 C 15835.300000000001 3657.13 15812.500000000002 3716.48 15812.500000000002 3787.2 C 15812.500000000002 3858.0699999999997 15835.300000000001 3917.66 15880.800000000001 3965.97 C 15927.400000000001 4015.47 15985.800000000001 4040.18 16056.2 4040.18 C 16126.2 4040.18 16184.6 4015.47 16231.300000000001 3965.97 C 16277.1 3917.18 16300.000000000002 3857.5899999999997 16300.000000000002 3787.2" stroke-linecap="round" />
</g>
<g transform="matrix(0.2 0 0 -0.2 2596.59 2083.03)" id="path100"  >
<path style="stroke: none; stroke-width: 1; stroke-dasharray: none; stroke-linecap: butt; stroke-dashoffset: 0; stroke-linejoin: miter; stroke-miterlimit: 4; fill: rgb(108,19,39); fill-rule: nonzero; opacity: 1;" vector-effect="non-scaling-stroke"  transform=" translate(-13756.17, -1919.06)" d="M 15741 2293.18 C 15191.3 2613.87 14864.5 2131.1 13760.6 2106.25 C 12656.7 2131.1 12330 2613.87 11780.300000000001 2293.18 C 11216.2 1964.1299999999999 11575.300000000001 1485.31 12280.400000000001 1438.3199999999997 C 12675.7 1411.9099999999996 13438.800000000001 1570.9899999999998 13743.7 1570.9899999999998 C 14048.6 1570.9899999999998 14811.7 1411.9099999999999 15207 1438.3199999999997 C 15912.1 1485.3099999999997 16305.1 1964.1299999999997 15741 2293.18" stroke-linecap="round" />
</g>
<g transform="matrix(0.19 0 0 -0.19 2598.71 2055.52)" id="path104"  >
<path style="stroke: none; stroke-width: 1; stroke-dasharray: none; stroke-linecap: butt; stroke-dashoffset: 0; stroke-linejoin: miter; stroke-miterlimit: 4; fill: rgb(225,225,223); fill-rule: nonzero; opacity: 1;" vector-effect="non-scaling-stroke"  transform=" translate(-14434.2, -2158.96)" d="M 16300 2492.52 C 15831 2623.3 15442.7 2231.18 14427.5 2208.33 C 13422 2230.97 13031.5 2615.9 12568.4 2496.0099999999998 C 12588.699999999999 2338.39 12613.3 2194.3799999999997 12642.699999999999 2172.24 C 12841.9 2022.8799999999997 13464.3 1798.7699999999998 14435.3 1798.7699999999998 L 14435.3 1798.7699999999998 L 14435.3 1798.7699999999998 C 15406.3 1798.7699999999998 16028.8 2022.8799999999997 16227.9 2172.24 C 16256.3 2193.5899999999997 16280.1 2336.47 16300 2492.5199999999995" stroke-linecap="round" />
</g>
<g transform="matrix(0.19 0 0 -0.19 2598.76 2074.17)" id="path108"  >
<path style="stroke: none; stroke-width: 1; stroke-dasharray: none; stroke-linecap: butt; stroke-dashoffset: 0; stroke-linejoin: miter; stroke-miterlimit: 4; fill: rgb(255,255,255); fill-rule: nonzero; opacity: 1;" vector-effect="non-scaling-stroke"  transform=" translate(-14460.2, -2063.07)" d="M 16300 2304.99 C 15842.9 2412.3199999999997 15449.2 2035.12 14453.3 2012.7999999999997 C 13467.5 2034.9099999999996 13071.699999999999 2404.6899999999996 12620.4 2307.9799999999996 C 12633.9 2238.6599999999994 12648.8 2188.4499999999994 12665.3 2176.1199999999994 C 12864.8 2026.4899999999993 13488.4 1801.9799999999996 14461.099999999999 1801.9799999999996 L 14461.099999999999 1801.9799999999996 L 14461.099999999999 1801.9799999999996 C 15433.8 1801.9799999999996 16057.399999999998 2026.4899999999996 16256.899999999998 2176.1199999999994 C 16272.599999999999 2187.9599999999996 16286.899999999998 2237.0199999999995 16299.999999999998 2304.9899999999993" stroke-linecap="round" />
</g>
<g transform="matrix(0.17 0 0 -0.17 2556.82 2405.28)" id="path112"  >
<path style="stroke: none; stroke-width: 1; stroke-dasharray: none; stroke-linecap: butt; stroke-dashoffset: 0; stroke-linejoin: miter; stroke-miterlimit: 4; fill: rgb(70,50,52); fill-rule: nonzero; opacity: 1;" vector-effect="non-scaling-stroke"  transform=" translate(-16118.99, -330.64)" d="M 16300 461.091 C 16300 458.507 16297.7 457.296 16293.1 457.296 C 16275.7 457.296 16249.4 458.75 16214 461.819 C 16178.7 464.80600000000004 16152.2 466.339 16134.6 466.339 C 16112.4 466.339 16099.4 465.532 16095.7 463.917 C 16087.1 459.96099999999996 16082.900000000001 448.81699999999995 16082.900000000001 430.48699999999997 C 16082.900000000001 408.52 16088.400000000001 396.00699999999995 16099.500000000002 393.01699999999994 C 16104.200000000003 391.80499999999995 16111.200000000003 391.24099999999993 16120.700000000003 391.24099999999993 C 16136.700000000003 391.24099999999993 16160.600000000002 392.12999999999994 16192.400000000003 393.82399999999996 C 16224.300000000003 395.59999999999997 16248.200000000003 396.489 16264.200000000003 396.489 C 16271.900000000003 396.489 16275.700000000003 376.05899999999997 16275.700000000003 335.279 C 16275.700000000003 299.913 16274.400000000003 279.239 16271.900000000003 273.504 C 16270.300000000003 269.30600000000004 16267.100000000004 267.20500000000004 16262.500000000004 267.20500000000004 C 16265.500000000004 267.20500000000004 16258.200000000004 268.016 16240.600000000004 269.63100000000003 C 16215.800000000005 271.971 16178.300000000005 273.10100000000006 16128.000000000004 273.10100000000006 C 16111.800000000003 273.10100000000006 16102.600000000004 273.02200000000005 16100.500000000004 272.77900000000005 C 16088.800000000003 270.92100000000005 16082.900000000003 265.9150000000001 16082.900000000003 257.84000000000003 C 16082.900000000003 224.97500000000002 16084.200000000003 187.10000000000002 16087.100000000004 144.223 C 16089.300000000005 105.54500000000002 16090.500000000004 88.26190000000001 16090.500000000004 92.46040000000002 C 16090.500000000004 86.40400000000002 16083.200000000004 82.93110000000001 16068.600000000004 82.04470000000002 C 16072.500000000004 82.20560000000002 16062.300000000005 82.36650000000002 16037.700000000004 82.36650000000002 C 15994.400000000005 82.36650000000002 15966.400000000005 83.90260000000002 15954.000000000004 86.88980000000002 C 15947.200000000004 88.50480000000002 15943.900000000003 92.05660000000002 15943.900000000003 97.62720000000002 C 15943.900000000003 123.38900000000001 15944.700000000003 161.98900000000003 15946.500000000004 213.50900000000001 C 15948.200000000004 265.108 15949.100000000004 303.707 15949.100000000004 329.387 C 15949.100000000004 359.99 15947.700000000004 398.426 15944.900000000003 444.779 C 15940.700000000003 516.326 15938.600000000004 554.762 15938.300000000003 560.093 L 15938.000000000004 564.2919999999999 C 15937.700000000004 570.1049999999999 15941.200000000004 573.0129999999999 15948.400000000003 573.0129999999999 C 15965.500000000004 573.0129999999999 15991.400000000003 572.6099999999999 16026.000000000004 571.963 C 16060.700000000004 571.2339999999999 16086.700000000004 570.913 16104.000000000004 570.913 C 16122.600000000004 570.913 16150.400000000003 572.285 16187.600000000004 575.032 C 16224.800000000005 577.8580000000001 16252.700000000004 579.231 16271.200000000004 579.231 C 16282.800000000005 579.231 16289.300000000005 574.468 16290.600000000004 565.0169999999999 C 16290.600000000004 555.0049999999999 16291.100000000004 540.0659999999999 16292.000000000004 520.1999999999999 C 16292.500000000004 515.1149999999999 16294.000000000004 505.2609999999999 16296.500000000004 490.64699999999993 C 16298.900000000003 477.8879999999999 16300.000000000004 468.0369999999999 16300.000000000004 461.09099999999995" stroke-linecap="round" />
</g>
<g transform="matrix(0.17 0 0 -0.17 2650.2 2405.4)" id="path116"  >
<path style="stroke: none; stroke-width: 1; stroke-dasharray: none; stroke-linecap: butt; stroke-dashoffset: 0; stroke-linejoin: miter; stroke-miterlimit: 4; fill: rgb(70,50,52); fill-rule: nonzero; opacity: 1;" vector-effect="non-scaling-stroke"  transform=" translate(-16095.5, -318.3)" d="M 16090.8 82.4955 C 16060.599999999999 82.4955 16043.4 82.88810000000001 16039.199999999999 83.82230000000001 C 16034.999999999998 84.67730000000002 16031.4 87.95160000000001 16028.4 93.55980000000001 C 16003 143.806 15977.4 194.207 15951.699999999999 244.687 C 15911.3 325.85900000000004 15890.999999999998 371.741 15890.999999999998 382.492 C 15890.999999999998 400.09900000000005 15891.599999999999 426.661 15892.899999999998 462.106 C 15894.099999999999 497.474 15894.699999999997 524.037 15894.699999999997 541.723 C 15894.699999999997 549.978 15896.899999999998 554.108 15901.499999999996 554.108 C 15914.899999999996 554.108 15935.199999999997 553.563 15962.499999999996 552.3939999999999 C 15989.699999999997 551.3019999999999 16010.099999999997 550.757 16023.799999999996 550.757 C 16029.399999999996 550.757 16032.199999999995 548.42 16032.199999999995 543.746 C 16032.199999999995 525.595 16030.899999999996 498.409 16028.299999999996 462.106 C 16025.699999999995 425.806 16024.499999999996 398.541 16024.499999999996 380.465 C 16024.499999999996 366.601 16047.099999999997 317.135 16092.499999999996 231.98899999999998 C 16104.799999999996 254.111 16118.699999999997 281.221 16134.399999999996 313.395 C 16155.399999999996 356.78499999999997 16165.899999999996 383.34999999999997 16165.899999999996 393.164 C 16165.899999999996 409.52299999999997 16165.699999999995 434.062 16165.199999999995 466.78 C 16164.799999999996 499.498 16164.499999999995 524.0369999999999 16164.499999999995 540.3199999999999 C 16164.499999999995 546.3969999999999 16165.499999999995 549.7439999999999 16167.599999999995 550.4469999999999 L 16178.299999999996 550.4469999999999 C 16190.499999999996 550.4469999999999 16209.199999999995 550.9919999999998 16234.099999999995 552.2389999999999 C 16258.999999999995 553.4839999999999 16277.599999999995 554.108 16289.999999999995 554.108 C 16296.599999999995 554.108 16299.999999999995 551.381 16299.999999999995 546.083 C 16299.999999999995 528.8689999999999 16299.699999999995 502.84799999999996 16299.099999999995 468.10299999999995 C 16298.599999999995 433.36199999999997 16298.299999999996 407.26499999999993 16298.299999999996 389.8159999999999 C 16298.299999999996 375.9489999999999 16276.299999999996 325.0009999999999 16232.299999999996 236.97299999999993 C 16214.899999999996 205.26799999999992 16189.699999999995 157.43799999999993 16156.799999999996 93.55979999999994 C 16154.599999999995 88.65149999999994 16153.099999999995 85.84579999999994 16152.299999999996 85.30119999999994 C 16151.499999999996 84.75649999999993 16148.699999999995 84.29089999999994 16143.799999999996 83.82229999999994 C 16132.399999999996 82.88809999999994 16114.799999999996 82.49549999999994 16090.799999999996 82.49549999999994" stroke-linecap="round" />
</g>
<g transform="matrix(0.13 0 0 -0.13 1486.92 2090.08)" id="path118"  >
<path style="stroke: none; stroke-width: 1; stroke-dasharray: none; stroke-linecap: butt; stroke-dashoffset: 0; stroke-linejoin: miter; stroke-miterlimit: 4; fill: rgb(108,19,39); fill-rule: nonzero; opacity: 1;" vector-effect="non-scaling-stroke"  transform=" translate(-11936.98, -2773.45)" d="M 15008 4231.4 C 14319.4 4630.299999999999 13402 3766.4999999999995 11937 3763.2999999999997 C 10472 3766.4999999999995 9554.57 4630.299999999999 8866 4231.4 C 8132.72 3806.4999999999995 9107.8 1218.4999999999995 11930.4 1210.3999999999996 L 11930.4 1210.2999999999997 C 11932.6 1210.2999999999997 11934.8 1210.3999999999996 11937 1210.3999999999996 C 11939.2 1210.3999999999996 11941.4 1210.2999999999997 11943.6 1210.2999999999997 L 11943.6 1210.3999999999996 C 14766.2 1218.4999999999995 15741.2 3806.4999999999995 15008 4231.4" stroke-linecap="round" />
</g>
<g transform="matrix(0.13 0 0 -0.13 1490.88 1961.86)" id="path120"  >
<path style="stroke: none; stroke-width: 1; stroke-dasharray: none; stroke-linecap: butt; stroke-dashoffset: 0; stroke-linejoin: miter; stroke-miterlimit: 4; fill: rgb(225,225,223); fill-rule: nonzero; opacity: 1;" vector-effect="non-scaling-stroke"  transform=" translate(-11966.69, -3735.15)" d="M 14722.4 4328.1 C 14067.4 4417 13208.5 3766.1000000000004 11937 3763.3 C 10703.6 3766 9858.33 4378.6 9210.98 4334.2 C 9226.77 4128.3 9278.64 3786.1 9448.88 3658.3999999999996 C 9728.66 3448.5999999999995 10603 3133.7999999999997 11966.9 3133.7999999999997 L 11966.9 3133.7999999999997 L 11966.9 3133.7999999999997 C 13330.8 3133.7999999999997 14205.2 3448.6 14484.9 3658.3999999999996 C 14653.5 3784.7999999999997 14706 4121.599999999999 14722.4 4328.099999999999" stroke-linecap="round" />
</g>
<g transform="matrix(0.13 0 0 -0.13 1490.85 1978.17)" id="path122"  >
<path style="stroke: none; stroke-width: 1; stroke-dasharray: none; stroke-linecap: butt; stroke-dashoffset: 0; stroke-linejoin: miter; stroke-miterlimit: 4; fill: rgb(255,255,255); fill-rule: nonzero; opacity: 1;" vector-effect="non-scaling-stroke"  transform=" translate(-11966.49, -3612.78)" d="M 14690.2 4087 C 14039.400000000001 4151.2 13187.800000000001 3521.2 11937 3518.5 C 10723.7 3521.1 9885.97 4114.1 9242.78 4091.1 C 9275.650000000001 3920.7 9336.43 3742.7999999999997 9448.880000000001 3658.4 C 9728.660000000002 3448.6 10603 3133.8 11966.900000000001 3133.8 L 11966.900000000001 3133.8 L 11966.900000000001 3133.8 C 13330.800000000001 3133.8 14205.2 3448.6000000000004 14484.900000000001 3658.4 C 14596.500000000002 3742.1 14657.2 3917.9 14690.2 4087" stroke-linecap="round" />
</g>
<g transform="matrix(0.13 0 0 -0.13 1070.82 1880.48)" id="path124"  >
<path style="stroke: none; stroke-width: 1; stroke-dasharray: none; stroke-linecap: butt; stroke-dashoffset: 0; stroke-linejoin: miter; stroke-miterlimit: 4; fill: rgb(231,169,138); fill-rule: nonzero; opacity: 1;" vector-effect="non-scaling-stroke"  transform=" translate(-8816.26, -4345.46)" d="M 8231 3988 C 8247.87 4270.8 8506.72 4605.9 8836.76 4678.3 C 8994.39 4721.400000000001 9215.6 4710.900000000001 9401.52 4623.1 C 9359.130000000001 4619.700000000001 9205.86 4618.200000000001 9127.79 4606.200000000001 C 8763.45 4554.4 8497.14 4417.9 8231 3988" stroke-linecap="round" />
</g>
<g transform="matrix(0.13 0 0 -0.13 1897.73 1880.48)" id="path126"  >
<path style="stroke: none; stroke-width: 1; stroke-dasharray: none; stroke-linecap: butt; stroke-dashoffset: 0; stroke-linejoin: miter; stroke-miterlimit: 4; fill: rgb(231,169,138); fill-rule: nonzero; opacity: 1;" vector-effect="non-scaling-stroke"  transform=" translate(-15018.05, -4345.45)" d="M 15603.3 3988 C 15194.5 4648.3 14750.4 4597.7 14432.8 4623.1 C 14617.5 4710.3 14838.8 4721.700000000001 14997.599999999999 4678.3 C 15330.499999999998 4605.2 15586.699999999999 4266.8 15603.3 3988" stroke-linecap="round" />
</g>
<g transform="matrix(0.13 0 0 -0.13 1486.61 2145.65)" id="path128"  >
<path style="stroke: none; stroke-width: 1; stroke-dasharray: none; stroke-linecap: butt; stroke-dashoffset: 0; stroke-linejoin: miter; stroke-miterlimit: 4; fill: rgb(218,23,78); fill-rule: nonzero; opacity: 1;" vector-effect="non-scaling-stroke"  transform=" translate(-11934.7, -2356.73)" d="M 12795.5 2990.5 C 13355 2501 13353.4 1619 13353.4 1619 L 11954.4 1493.3 L 11954.4 1490.1 L 11937 1491.6999999999998 L 11919.5 1490.1 L 11919.5 1493.3 L 10520.5 1619 C 10520.5 1619 10424.7 2542.3 11117 3037.1 C 11443.4 3270.2999999999997 12423.4 3316.1 12795.5 2990.5" stroke-linecap="round" />
</g>
<g transform="matrix(0.13 0 0 -0.13 1486.91 2242.54)" id="path130"  >
<path style="stroke: none; stroke-width: 1; stroke-dasharray: none; stroke-linecap: butt; stroke-dashoffset: 0; stroke-linejoin: miter; stroke-miterlimit: 4; fill: rgb(225,225,223); fill-rule: nonzero; opacity: 1;" vector-effect="non-scaling-stroke"  transform=" translate(-11936.95, -1630)" d="M 13587.8 2049.7 C 13444.099999999999 2049.7 12553 1861.4999999999998 11937 1857.9999999999998 C 11320.9 1861.4999999999998 10429.8 2049.7 10286.1 2049.7 C 10155.6 2049.7 10025.2 1770.4999999999998 10000.300000000001 1714.3999999999999 C 10502.6 1414.7999999999997 11144.900000000001 1212.6999999999998 11930.400000000001 1210.3999999999999 L 11930.400000000001 1210.3 C 11932.600000000002 1210.3 11934.800000000001 1210.3999999999999 11937.000000000002 1210.3999999999999 C 11939.200000000003 1210.3999999999999 11941.400000000001 1210.3 11943.600000000002 1210.3 L 11943.600000000002 1210.3999999999999 C 12729.000000000002 1212.6999999999998 13371.300000000003 1414.8 13873.600000000002 1714.3999999999999 C 13848.700000000003 1770.4999999999998 13718.300000000003 2049.7 13587.800000000003 2049.7" stroke-linecap="round" />
</g>
<g transform="matrix(0.13 0 0 -0.13 1486.92 2228.55)" id="path132"  >
<path style="stroke: none; stroke-width: 1; stroke-dasharray: none; stroke-linecap: butt; stroke-dashoffset: 0; stroke-linejoin: miter; stroke-miterlimit: 4; fill: rgb(255,255,255); fill-rule: nonzero; opacity: 1;" vector-effect="non-scaling-stroke"  transform=" translate(-11937, -1734.95)" d="M 13587.8 2049.7 C 13444.099999999999 2049.7 12553 1861.4999999999998 11937 1857.9999999999998 C 11320.9 1861.4999999999998 10429.8 2049.7 10286.1 2049.7 C 10213.1 2049.7 10140 1962.1 10085.5 1875.1999999999998 C 10574.6 1602.7999999999997 11188.6 1422.3999999999999 11930.4 1420.2999999999997 L 11930.4 1420.1999999999998 C 11932.6 1420.1999999999998 11934.8 1420.1999999999998 11937 1420.1999999999998 C 11939.2 1420.1999999999998 11941.4 1420.1999999999998 11943.6 1420.1999999999998 L 11943.6 1420.2999999999997 C 12685.4 1422.3999999999996 13299.4 1602.7999999999997 13788.5 1875.1999999999998 C 13734 1962.1 13660.9 2049.7 13587.8 2049.7" stroke-linecap="round" />
</g>
<g transform="matrix(0.13 0 0 -0.13 1482.21 2092.91)" id="path134"  >
<path style="stroke: none; stroke-width: 1; stroke-dasharray: none; stroke-linecap: butt; stroke-dashoffset: 0; stroke-linejoin: miter; stroke-miterlimit: 4; fill: rgb(239,49,116); fill-rule: nonzero; opacity: 1;" vector-effect="non-scaling-stroke"  transform=" translate(-11901.65, -2752.24)" d="M 12795.5 2990.5 C 12423.4 3316.1 11443.4 3270.3 11117 3037.1 C 10879.2 2867.1 10734.4 2646.6 10646.8 2430.3999999999996 C 10841.099999999999 2301.7 11086.9 2252.2999999999997 11315.599999999999 2297.5999999999995 C 11555.899999999998 2345.1999999999994 11773.8 2496.2999999999993 11902.599999999999 2704.5999999999995 C 11935.699999999999 2559.3999999999996 12084.899999999998 2472.8999999999996 12226.8 2427.4999999999995 C 12431.199999999999 2361.9999999999995 12651 2345.3999999999996 12863 2379.1999999999994 C 12965.7 2395.5999999999995 13073.9 2431.399999999999 13156.5 2492.1999999999994 C 13074.8 2670.5999999999995 12959.2 2847.2999999999993 12795.5 2990.4999999999995" stroke-linecap="round" />
</g>
<g transform="matrix(0.13 0 0 -0.13 1494.99 2405.8)" id="path136"  >
<path style="stroke: none; stroke-width: 1; stroke-dasharray: none; stroke-linecap: butt; stroke-dashoffset: 0; stroke-linejoin: miter; stroke-miterlimit: 4; fill: rgb(70,50,52); fill-rule: nonzero; opacity: 1;" vector-effect="non-scaling-stroke"  transform=" translate(-11997.55, -405.6)" d="M 12175 100.301 C 12150.4 100.301 12118.2 100.801 12078.7 102 C 12027 103.102 11994.900000000001 103.902 11982.300000000001 104.102 L 11853.6 105.89800000000001 C 11840.7 105.602 11822.2 106.19900000000001 11798.1 107.602 C 11789.800000000001 109 11785.6 113.5 11785.6 120.898 C 11785.6 152.19899999999998 11786.1 199 11787.1 261.402 C 11788.1 323.801 11788.6 370.602 11788.6 401.902 C 11788.6 435.19899999999996 11787.6 485 11785.6 551.402 C 11783.6 617.801 11782.6 667.6990000000001 11782.6 701 C 11782.6 707.301 11786.9 710.402 11795.5 710.402 C 11804.1 710.402 11817 710 11834 709.1020000000001 C 11851.1 708.301 11863.8 707.801 11872.1 707.801 C 11881.6 707.801 11895.6 708.301 11914.300000000001 709.301 C 11932.900000000001 710.402 11947.000000000002 710.898 11956.400000000001 710.898 C 11960.7 710.898 11962.7 708.102 11962.500000000002 702.6990000000001 L 11962.000000000002 697.1020000000001 C 11958.600000000002 643.1020000000001 11954.700000000003 562.1020000000001 11950.400000000001 454.0000000000001 L 11950.000000000002 340.4020000000001 C 11950.000000000002 303.6020000000001 11950.100000000002 276.8010000000001 11950.400000000001 259.9020000000001 C 11950.7 256.5000000000001 11951.000000000002 253.0000000000001 11951.300000000001 249.6020000000001 C 11951.6 246.1020000000001 11953.7 244.00000000000009 11957.7 243.1020000000001 C 11958 243.1020000000001 11961.7 243.1020000000001 11968.900000000001 243.1020000000001 C 11994.7 243.1020000000001 12033.400000000001 244.50000000000009 12084.900000000001 247.1990000000001 C 12136.400000000001 249.9020000000001 12175.000000000002 251.3010000000001 12200.900000000001 251.3010000000001 C 12208.600000000002 251.3010000000001 12212.500000000002 248.0000000000001 12212.500000000002 241.4020000000001 C 12212.500000000002 192.4020000000001 12208.900000000001 150.0000000000001 12201.700000000003 114.5000000000001 C 12200.300000000003 107.0000000000001 12197.300000000003 102.6020000000001 12192.700000000003 101.1020000000001 C 12191.200000000003 100.6020000000001 12185.400000000003 100.3010000000001 12175.000000000002 100.3010000000001" stroke-linecap="round" />
</g>
<g transform="matrix(0.13 0 0 -0.13 386.81 2039.14)" id="path138"  >
<path style="stroke: none; stroke-width: 1; stroke-dasharray: none; stroke-linecap: butt; stroke-dashoffset: 0; stroke-linejoin: miter; stroke-miterlimit: 4; fill: rgb(108,19,39); fill-rule: nonzero; opacity: 1;" vector-effect="non-scaling-stroke"  transform=" translate(-3686.17, -3155.52)" d="M 6466.4 4307.4 C 5981.59 5012.9 4953.22 4891.5 3684.76 4886 C 2416.3 4891.5 1390.75 5012.9 905.949 4307.4 C 387.621 3553.2 1243.11 1438 3674.2 1414 L 3674.2 1413.8 C 3678.21 1413.8 3682.1699999999996 1413.8999999999999 3686.1699999999996 1413.8999999999999 C 3690.18 1413.8999999999999 3694.1399999999994 1413.8 3698.1499999999996 1413.8 L 3698.1499999999996 1414 C 6129.24 1438 6984.73 3553.2 6466.4 4307.4" stroke-linecap="round" />
</g>
<g transform="matrix(0.13 0 0 -0.13 382.46 2164.44)" id="path140"  >
<path style="stroke: none; stroke-width: 1; stroke-dasharray: none; stroke-linecap: butt; stroke-dashoffset: 0; stroke-linejoin: miter; stroke-miterlimit: 4; fill: rgb(218,23,78); fill-rule: nonzero; opacity: 1;" vector-effect="non-scaling-stroke"  transform=" translate(-3653.57, -2215.75)" d="M 5552.17 2884.2 C 4769.89 3256.7 3804.48 2737.5 3653.52 2651.1 C 3502.56 2737.5 2537.15 3256.7 1754.8799999999999 2884.2 C 1427.07 2728.1 1385.87 2494.3999999999996 1459.85 2265.2999999999997 C 1856.1899999999998 1871.7999999999997 2424.2 1555.5999999999997 3171.6899999999996 1450.9999999999998 L 3633.1799999999994 1417.2999999999997 L 3633.1799999999994 1414.9999999999998 C 3635.5399999999995 1414.8999999999999 3637.8899999999994 1414.8999999999999 3640.2599999999993 1414.7999999999997 L 3653.5199999999995 1415.7999999999997 L 3673.8699999999994 1414.2999999999997 L 3673.8699999999994 1417.2999999999997 L 4264.65 1460.4999999999998 C 4918.959999999999 1563.9999999999998 5431.969999999999 1831.1999999999998 5809.3099999999995 2168.2 C 5927.2699999999995 2426.5 5926.5199999999995 2705.8999999999996 5552.169999999999 2884.2" stroke-linecap="round" />
</g>
<g transform="matrix(0.13 0 0 -0.13 377.03 2104.22)" id="path142"  >
<path style="stroke: none; stroke-width: 1; stroke-dasharray: none; stroke-linecap: butt; stroke-dashoffset: 0; stroke-linejoin: miter; stroke-miterlimit: 4; fill: rgb(239,49,116); fill-rule: nonzero; opacity: 1;" vector-effect="non-scaling-stroke"  transform=" translate(-3612.85, -2667.44)" d="M 5696.28 2797.3 C 5656.03 2828.3 5608.42 2857.4 5552.17 2884.2000000000003 C 4769.89 3256.7000000000003 3771.37 3133.9 3620.42 3047.5000000000005 C 3469.4500000000003 3133.9000000000005 2537.15 3256.7000000000003 1754.8700000000001 2884.2000000000003 C 1654.3200000000002 2836.3 1581 2781.0000000000005 1529.42 2720.9 C 1597.64 2567.4 1810.79 2314.2000000000003 2477.1800000000003 2230.9 C 3277.9400000000005 2130.8 3533.3500000000004 2276.1 3600 2332.5 C 3666.65 2276.1 3922.07 2130.8 4722.82 2230.9 C 5519.0199999999995 2330.4 5668.29 2672.5 5696.28 2797.3" stroke-linecap="round" />
</g>
<g transform="matrix(0.13 0 0 -0.13 386.87 1859.32)" id="path144"  >
<path style="stroke: none; stroke-width: 1; stroke-dasharray: none; stroke-linecap: butt; stroke-dashoffset: 0; stroke-linejoin: miter; stroke-miterlimit: 4; fill: rgb(225,225,223); fill-rule: nonzero; opacity: 1;" vector-effect="non-scaling-stroke"  transform=" translate(-3686.63, -4504.2)" d="M 6130.84 4627.8 C 5579.59 4970.6 4710.74 4890.400000000001 3684.76 4886 C 2543.08 4890.9 1598.2600000000002 4989.6 1067.3000000000002 4495 C 1031.1000000000001 4458.9 996.1990000000002 4421.2 962.6450000000002 4381.5 C 1457.6600000000003 4250.6 2387.4100000000003 4111.2 3688.6800000000003 4111.2 L 3688.6900000000005 4111.2 L 3688.6900000000005 4111.2 C 4986.410000000001 4111.2 5914.59 4249.8 6410.620000000001 4380.4 C 6332.900000000001 4472.599999999999 6238.800000000001 4554.799999999999 6130.840000000001 4627.799999999999" stroke-linecap="round" />
</g>
<g transform="matrix(0.13 0 0 -0.13 386.89 1874.84)" id="path146"  >
<path style="stroke: none; stroke-width: 1; stroke-dasharray: none; stroke-linecap: butt; stroke-dashoffset: 0; stroke-linejoin: miter; stroke-miterlimit: 4; fill: rgb(255,255,255); fill-rule: nonzero; opacity: 1;" vector-effect="non-scaling-stroke"  transform=" translate(-3686.8, -4387.8)" d="M 3684.76 4658.6 C 2579.33 4663.400000000001 1658.7800000000002 4720 1119.1600000000003 4343.3 C 1641.8000000000002 4224.8 2513.7400000000002 4111.2 3688.6800000000003 4111.2 L 3688.6900000000005 4111.2 L 3688.6900000000005 4111.2 C 4860.830000000001 4111.2 5731.380000000001 4224.3 6254.43 4342.4 C 5714.99 4720.5 4791.04 4663.4 3684.76 4658.599999999999" stroke-linecap="round" />
</g>
<g transform="matrix(0.13 0 0 -0.13 386.81 2232.38)" id="path148"  >
<path style="stroke: none; stroke-width: 1; stroke-dasharray: none; stroke-linecap: butt; stroke-dashoffset: 0; stroke-linejoin: miter; stroke-miterlimit: 4; fill: rgb(225,225,223); fill-rule: nonzero; opacity: 1;" vector-effect="non-scaling-stroke"  transform=" translate(-3686.17, -1706.2)" d="M 1772.66 1998.6 C 2239.24 1658.4 2870.61 1421.9 3674.2 1414 L 3674.2 1413.8 C 3678.21 1413.8 3682.1699999999996 1413.8999999999999 3686.1699999999996 1413.8999999999999 C 3690.18 1413.8999999999999 3694.1399999999994 1413.8 3698.1499999999996 1413.8 L 3698.1499999999996 1414 C 4501.73 1421.9 5133.11 1658.4 5599.679999999999 1998.6 C 5284.799999999999 1976 4352.61 1869.6 3686.169999999999 1867.3999999999999 C 3019.729999999999 1869.6 2087.5499999999993 1975.9999999999998 1772.6599999999992 1998.6" stroke-linecap="round" />
</g>
<g transform="matrix(0.13 0 0 -0.13 386.81 2225.51)" id="path150"  >
<path style="stroke: none; stroke-width: 1; stroke-dasharray: none; stroke-linecap: butt; stroke-dashoffset: 0; stroke-linejoin: miter; stroke-miterlimit: 4; fill: rgb(255,255,255); fill-rule: nonzero; opacity: 1;" vector-effect="non-scaling-stroke"  transform=" translate(-3686.17, -1757.75)" d="M 5389.81 1980.7 C 3754.9600000000005 1831.3 3626.6900000000005 1830.4 1982.5300000000002 1980.7 C 2422.9900000000002 1716.7 2985.3100000000004 1541.9 3674.2000000000003 1535.1 L 3674.2000000000003 1534.8 C 3674.3 1534.8 3674.7200000000003 1534.8999999999999 3698.15 1534.8 L 3698.15 1535.1 C 4387.04 1541.8999999999999 4949.360000000001 1716.6999999999998 5389.81 1980.6999999999998" stroke-linecap="round" />
</g>
<g transform="matrix(0.13 0 0 -0.13 390.16 1299.06)" id="path152"  >
<path style="stroke: none; stroke-width: 1; stroke-dasharray: none; stroke-linecap: butt; stroke-dashoffset: 0; stroke-linejoin: miter; stroke-miterlimit: 4; fill: rgb(231,169,138); fill-rule: nonzero; opacity: 1;" vector-effect="non-scaling-stroke"  transform=" translate(-3711.29, -8706.12)" d="M 518.164 8977.68 C 1409.81 8428.69 5244.639999999999 8478.67 6521.71 8797.12 C 6646.94 8827.380000000001 6781.2 8871.42 6904.41 8928.230000000001 C 5796.98 8265.880000000001 1514.96 8257.970000000001 518.1639999999998 8977.680000000002" stroke-linecap="round" />
</g>
<g transform="matrix(0.13 0 0 -0.13 801.67 1289.42)" id="path154"  >
<path style="stroke: none; stroke-width: 1; stroke-dasharray: none; stroke-linecap: butt; stroke-dashoffset: 0; stroke-linejoin: miter; stroke-miterlimit: 4; fill: rgb(231,169,138); fill-rule: nonzero; opacity: 1;" vector-effect="non-scaling-stroke"  transform=" translate(-6797.64, -8778.38)" d="M 6618.9 9328.63 C 6668.46 9314.349999999999 6724.7699999999995 9281.099999999999 6765.339999999999 9249.279999999999 C 7107.44 8985.64 7012.599999999999 8480.849999999999 6632.329999999999 8228.14 C 6706.999999999999 8384.23 6745.739999999999 8441.72 6804.679999999999 8619.539999999999 C 6804.929999999999 8620.519999999999 6826.999999999999 8701.009999999998 6829.099999999999 8725.249999999998 C 6857.23 8915.729999999998 6817.2 9100.859999999999 6618.9 9328.629999999997" stroke-linecap="round" />
</g>
<g transform="matrix(0.13 0 0 -0.13 -28.12 1289.42)" id="path156"  >
<path style="stroke: none; stroke-width: 1; stroke-dasharray: none; stroke-linecap: butt; stroke-dashoffset: 0; stroke-linejoin: miter; stroke-miterlimit: 4; fill: rgb(231,169,138); fill-rule: nonzero; opacity: 1;" vector-effect="non-scaling-stroke"  transform=" translate(-574.18, -8778.38)" d="M 753.445 9328.63 C 554.574 9100.21 515.23 8914.96 543.246 8725.25 C 543.891 8717.83 554.313 8667.4 558.188 8654.84 C 607.359 8478.29 667.1759999999999 8380.41 740.012 8228.14 C 637.5859999999999 8296.21 544.6049999999999 8399.039999999999 507.81299999999993 8462.619999999999 C 438.7699999999999 8578.21 407.8589999999999 8650.07 395.71899999999994 8787.64 C 380.36699999999996 9076.82 588.5899999999999 9281.14 753.4449999999999 9328.63" stroke-linecap="round" />
</g>
<g transform="matrix(0.13 0 0 -0.13 291.98 1598.61)" id="path158"  >
<path style="stroke: none; stroke-width: 1; stroke-dasharray: none; stroke-linecap: butt; stroke-dashoffset: 0; stroke-linejoin: miter; stroke-miterlimit: 4; fill: rgb(70,50,52); fill-rule: nonzero; opacity: 1;" vector-effect="non-scaling-stroke"  transform=" translate(-2974.93, -6459.52)" d="M 3057.97 6347 C 3057.97 6372.8 3047.2099999999996 6390.3 3025.7 6399.5 C 3011.93 6405.2 2989.5499999999997 6408.1 2958.5699999999997 6408.1 C 2921.5699999999997 6408.1 2901.49 6406.8 2898.33 6404 C 2895.17 6401.3 2893.6 6383.7 2893.6 6351.3 C 2893.6 6317.5 2895.46 6298.7 2899.19 6295.2 C 2902.92 6291.599999999999 2923.57 6289.8 2961.15 6289.8 C 2992.14 6289.8 3013.9300000000003 6292.2 3026.56 6297.1 C 3047.5 6305.400000000001 3057.97 6322.1 3057.97 6347 z M 3045.06 6587.6 C 3045.06 6612.200000000001 3032.73 6628.6 3008.06 6636.6 C 2994.29 6640.900000000001 2971.63 6643.1 2940.07 6643.1 C 2909.09 6643.1 2893.6000000000004 6640.8 2893.6000000000004 6636.200000000001 C 2893.6000000000004 6630.700000000001 2893.1000000000004 6622.500000000001 2892.09 6611.400000000001 C 2891.08 6600.400000000001 2890.59 6592.1 2890.59 6586.700000000001 C 2890.59 6558.000000000001 2893.02 6541.900000000001 2897.9 6538.500000000001 C 2901.06 6535.900000000001 2919.27 6534.600000000001 2952.55 6534.600000000001 C 3014.2200000000003 6534.600000000001 3045.0600000000004 6552.300000000001 3045.0600000000004 6587.600000000001 z M 3230.09 6345.3 C 3230.09 6292.5 3213.59 6248.8 3180.6000000000004 6214.1 C 3143.0200000000004 6174.200000000001 3077.05 6154.200000000001 2982.6700000000005 6154.200000000001 C 2975.5000000000005 6154.200000000001 2965.1700000000005 6154.400000000001 2951.6900000000005 6154.700000000001 C 2937.9200000000005 6154.700000000001 2927.7300000000005 6154.700000000001 2921.1400000000003 6154.700000000001 C 2815.2900000000004 6154.700000000001 2752.3100000000004 6156.800000000001 2732.2400000000002 6161.1 C 2723.9100000000003 6162.900000000001 2719.76 6167.3 2719.76 6174.5 C 2719.76 6205.2 2721.55 6251.6 2725.1400000000003 6313.9 C 2728.7200000000003 6376.099999999999 2730.5200000000004 6422.7 2730.5200000000004 6453.7 C 2730.5200000000004 6487 2728.8000000000006 6549.5 2725.3500000000004 6641.3 C 2724.4900000000002 6664.8 2722.9200000000005 6700.13 2720.6200000000003 6747.1900000000005 L 2720.1900000000005 6753.210000000001 C 2719.9000000000005 6758.650000000001 2724.4200000000005 6761.960000000001 2733.7400000000007 6763.110000000001 C 2743.060000000001 6764.250000000001 2776.270000000001 6764.830000000001 2833.3600000000006 6764.830000000001 C 2924.8600000000006 6764.830000000001 2978.370000000001 6764.540000000001 2993.8600000000006 6763.970000000001 C 3064.4300000000007 6761.390000000001 3116.4900000000007 6749.910000000001 3150.0500000000006 6729.550000000001 C 3194.5200000000004 6702.290000000001 3216.7500000000005 6656.200000000001 3216.7500000000005 6591.4000000000015 C 3216.7500000000005 6574.500000000002 3211.5800000000004 6556.600000000001 3201.2600000000007 6537.600000000001 C 3193.8000000000006 6524.100000000001 3184.0500000000006 6510.700000000002 3172.0000000000005 6497.200000000002 C 3161.3800000000006 6485.4000000000015 3156.0800000000004 6480.000000000002 3156.0800000000004 6480.800000000002 C 3156.0800000000004 6478.800000000002 3159.8 6475.700000000002 3167.2700000000004 6471.400000000002 C 3187.3400000000006 6459.900000000002 3203.1200000000003 6441.700000000003 3214.6000000000004 6416.700000000003 C 3224.9200000000005 6394.300000000003 3230.09 6370.500000000003 3230.09 6345.300000000003" stroke-linecap="round" />
</g>
<g transform="matrix(0.13 0 0 -0.13 399.56 1598.66)" id="path160"  >
<path style="stroke: none; stroke-width: 1; stroke-dasharray: none; stroke-linecap: butt; stroke-dashoffset: 0; stroke-linejoin: miter; stroke-miterlimit: 4; fill: rgb(70,50,52); fill-rule: nonzero; opacity: 1;" vector-effect="non-scaling-stroke"  transform=" translate(-3781.77, -6459.1)" d="M 4102.55 6172.7 C 4102.55 6163.9 4098.39 6159.4 4090.07 6159.4 L 3937.75 6159.4 C 3929.43 6159.4 3925.27 6164.4 3925.27 6174.5 C 3925.27 6203.4 3926.35 6246.9 3928.5 6304.8 C 3930.65 6362.8 3931.72 6406.2 3931.72 6435.2 C 3931.72 6443.5 3930.43 6448 3927.85 6448.599999999999 C 3924.69 6446.799999999999 3905.48 6402.499999999999 3870.19 6315.599999999999 C 3849.54 6264.499999999999 3828.88 6213.599999999999 3808.23 6162.9 C 3805.36 6156.299999999999 3801.78 6152.4 3797.47 6151.2 C 3796.0299999999997 6150.9 3790.2999999999997 6150.8 3780.2599999999998 6150.8 C 3765.3399999999997 6150.8 3756.45 6153.7 3753.58 6159.400000000001 C 3738.09 6191.000000000001 3717.72 6236.900000000001 3692.48 6297.1 C 3665.52 6360.8 3645.29 6406.8 3631.81 6435.200000000001 C 3631.23 6436.700000000001 3629.94 6438.200000000001 3627.94 6440.000000000001 C 3625.93 6437.400000000001 3624.93 6433.200000000001 3624.93 6427.500000000001 C 3624.93 6399.400000000001 3625.64 6357.200000000001 3627.08 6301.000000000001 C 3628.5099999999998 6244.700000000001 3629.23 6202.600000000001 3629.23 6174.500000000001 C 3629.23 6164.400000000001 3625.21 6159.400000000001 3617.18 6159.400000000001 L 3473.46 6159.400000000001 C 3467.7200000000003 6159.400000000001 3464.21 6160.3 3462.92 6162.200000000001 C 3461.63 6164.1 3460.98 6167.300000000001 3460.98 6171.900000000001 C 3460.98 6203.1 3462.4900000000002 6250.1 3465.5 6312.8 C 3468.51 6375.5 3470.02 6422.5 3470.02 6453.7 C 3470.02 6487 3468.58 6549.4 3465.72 6640.9 C 3465.43 6664.7 3464.14 6700.129999999999 3461.8399999999997 6747.19 L 3461.41 6754.5 C 3461.1299999999997 6760.24 3467.1499999999996 6763.11 3479.49 6763.11 C 3495.2599999999998 6763.11 3518.93 6763.61 3550.4799999999996 6764.61 C 3582.0399999999995 6765.61 3605.6999999999994 6766.12 3621.4799999999996 6766.12 C 3624.6399999999994 6766.12 3629.0799999999995 6760.099999999999 3634.8199999999997 6748.05 L 3760.47 6472.2 C 3769.3599999999997 6453.599999999999 3776.8199999999997 6444.3 3782.8399999999997 6444.3 C 3785.9999999999995 6444.3 3792.74 6455 3803.0699999999997 6476.5 C 3832.0399999999995 6536.8 3874.93 6627.6 3931.72 6748.91 C 3936.6 6760.099999999999 3941.8999999999996 6765.69 3947.6499999999996 6765.69 C 3955.9599999999996 6765.69 3968.5199999999995 6765.259999999999 3985.2999999999997 6764.4 C 4002.08 6763.54 4014.7699999999995 6763.11 4023.3799999999997 6763.11 C 4030.5399999999995 6763.11 4041.5199999999995 6763.82 4056.2899999999995 6765.259999999999 C 4071.0699999999997 6766.69 4082.0399999999995 6767.409999999999 4089.2099999999996 6767.409999999999 C 4097.82 6767.409999999999 4102.12 6763.969999999999 4102.12 6757.089999999999 C 4102.12 6723.239999999999 4100.9 6672.699999999999 4098.46 6605.4 C 4096.02 6538.099999999999 4094.81 6487.599999999999 4094.81 6453.7 C 4094.81 6422.5 4096.1 6375.599999999999 4098.68 6313 C 4101.26 6250.5 4102.55 6203.7 4102.55 6172.7" stroke-linecap="round" />
</g>
<g transform="matrix(0.13 0 0 -0.13 510.66 1598.57)" id="path162"  >
<path style="stroke: none; stroke-width: 1; stroke-dasharray: none; stroke-linecap: butt; stroke-dashoffset: 0; stroke-linejoin: miter; stroke-miterlimit: 4; fill: rgb(70,50,52); fill-rule: nonzero; opacity: 1;" vector-effect="non-scaling-stroke"  transform=" translate(-4615.05, -6459.76)" d="M 4702.64 6526 C 4702.64 6592.9 4670.08 6626.3 4604.96 6626.3 C 4559.06 6626.3 4534.97 6623.7 4532.67 6618.5 C 4530.66 6614.8 4529.66 6581.7 4529.66 6519.1 C 4529.66 6510.200000000001 4530.0199999999995 6497.1 4530.74 6479.8 C 4531.45 6462.400000000001 4531.8099999999995 6449.3 4531.8099999999995 6440.400000000001 C 4531.8099999999995 6434.6 4557.629999999999 6431.8 4609.2699999999995 6431.8 C 4671.509999999999 6431.8 4702.639999999999 6463.2 4702.639999999999 6526 z M 4874.33 6532.9 C 4874.33 6463.5 4856.11 6407.299999999999 4819.68 6364.2 C 4780.67 6318.599999999999 4726.88 6295.8 4658.320000000001 6295.8 C 4646.840000000001 6295.8 4629.56 6296.5 4606.47 6297.7 C 4583.38 6299 4566.09 6299.7 4554.62 6299.7 C 4542.28 6299.7 4536.12 6294.4 4536.12 6283.8 C 4536.12 6270.6 4537.41 6250.900000000001 4539.99 6224.8 C 4542.57 6198.7 4543.86 6179.2 4543.86 6166.3 C 4543.86 6159.7 4540.849999999999 6156.400000000001 4534.82 6156.400000000001 C 4517.33 6156.400000000001 4491.08 6156.900000000001 4456.08 6157.900000000001 C 4421.08 6158.900000000001 4394.83 6159.400000000001 4377.34 6159.400000000001 C 4369.01 6159.400000000001 4364.860000000001 6163.6 4364.860000000001 6171.900000000001 C 4364.860000000001 6203.700000000001 4365.360000000001 6251.6 4366.360000000001 6315.400000000001 C 4367.370000000001 6379.200000000001 4367.870000000001 6427.1 4367.870000000001 6458.900000000001 C 4367.870000000001 6549.000000000001 4364.000000000001 6643.6 4356.250000000001 6742.89 L 4355.820000000001 6748.910000000001 C 4355.240000000001 6754.35 4359.55 6757.660000000001 4368.7300000000005 6758.81 C 4391.110000000001 6761.67 4440.4400000000005 6763.110000000001 4516.750000000001 6763.110000000001 C 4561.780000000001 6763.110000000001 4604.960000000001 6762.530000000001 4646.270000000001 6761.39 C 4714.260000000001 6759.38 4769.050000000001 6738 4810.640000000001 6697.27 C 4853.090000000001 6655.400000000001 4874.330000000001 6600.6 4874.330000000001 6532.900000000001" stroke-linecap="round" />
</g>
<g transform="matrix(0.13 0 0 -0.13 324.39 2411.4)" id="path164"  >
<path style="stroke: none; stroke-width: 1; stroke-dasharray: none; stroke-linecap: butt; stroke-dashoffset: 0; stroke-linejoin: miter; stroke-miterlimit: 4; fill: rgb(70,50,52); fill-rule: nonzero; opacity: 1;" vector-effect="non-scaling-stroke"  transform=" translate(-3218.01, -363.6)" d="M 3361.72 409.699 C 3361.72 453.801 3348.9599999999996 490.699 3323.43 520.1990000000001 C 3296.46 551.1990000000001 3261.3199999999997 566.6990000000001 3218.0099999999998 566.6990000000001 C 3173.2599999999998 566.6990000000001 3137.8199999999997 551.402 3111.72 520.6990000000001 C 3086.77 491.69900000000007 3074.29 454.40200000000004 3074.29 408.80100000000004 C 3074.29 362.30100000000004 3086.48 325.00000000000006 3110.86 296.90200000000004 C 3136.3900000000003 267.10200000000003 3172.11 252.19900000000004 3218.01 252.19900000000004 C 3262.4700000000003 252.19900000000004 3297.8900000000003 267.50000000000006 3324.2900000000004 298.19900000000007 C 3349.2500000000005 327.50000000000006 3361.7200000000003 364.6020000000001 3361.7200000000003 409.69900000000007 z M 3524.81 408.801 C 3524.81 332.5 3504 266.801 3462.41 211.69899999999998 C 3419.96 155.19899999999998 3362.0099999999998 119.10199999999999 3288.5699999999997 103.30099999999999 C 3302.9199999999996 73.99999999999999 3324.2899999999995 47.19919999999999 3352.6899999999996 22.80079999999998 C 3355.2699999999995 20.80079999999998 3356.5599999999995 18.902299999999983 3356.5599999999995 17.19919999999998 C 3356.56 5.80078 3321.28 0 3250.71 0 C 3198.79 0 3166.8 2 3154.75 6 C 3148.15 8.30078 3144 13.601600000000001 3142.27 22 C 3138.83 38.601600000000005 3137.68 66.30080000000001 3138.83 105 C 3068.5499999999997 122.5 3012.7599999999998 159.5 2971.45 216 C 2931.2799999999997 270.801 2911.21 335.102 2911.21 408.801 C 2911.21 498 2939.89 573 2997.27 633.8009999999999 C 3055.79 696.102 3129.37 727.199 3218.01 727.199 C 3306.07 727.199 3379.51 695.8979999999999 3438.32 633.3979999999999 C 3495.98 572.3009999999999 3524.81 497.3979999999999 3524.81 408.80099999999993" stroke-linecap="round" />
</g>
<g transform="matrix(0.13 0 0 -0.13 447.34 2405.46)" id="path166"  >
<path style="stroke: none; stroke-width: 1; stroke-dasharray: none; stroke-linecap: butt; stroke-dashoffset: 0; stroke-linejoin: miter; stroke-miterlimit: 4; fill: rgb(70,50,52); fill-rule: nonzero; opacity: 1;" vector-effect="non-scaling-stroke"  transform=" translate(-4140.17, -408.15)" d="M 4529.37 491 C 4529.37 490.102 4502.69 432.301 4449.34 317.602 C 4395.12 200.49999999999997 4364.14 134.69899999999998 4356.39 120.10199999999998 C 4353.81 114.90199999999997 4352.2300000000005 111.99999999999997 4351.660000000001 111.49999999999997 C 4350.510000000001 109.99999999999997 4347.790000000001 108.69899999999997 4343.4800000000005 107.60199999999998 C 4336.31 105.89799999999998 4315.9400000000005 104.99999999999997 4282.38 104.99999999999997 C 4251.11 104.99999999999997 4232.04 105.89799999999997 4225.150000000001 107.60199999999998 C 4219.410000000001 108.99999999999997 4215.97 110.19899999999997 4214.820000000001 110.99999999999997 C 4213.68 111.90199999999997 4211.81 114.60199999999998 4209.2300000000005 119.19899999999997 C 4207.51 122.40199999999997 4199.330000000001 142.60199999999998 4184.700000000001 179.902 L 4137.8 299.5 L 4090.04 178.602 C 4085.16 164.80100000000002 4077.13 145 4065.94 119.19900000000001 C 4063.07 114.30100000000002 4061.06 111.40200000000002 4059.92 110.40200000000002 C 4058.77 109.40200000000002 4055.4700000000003 108.39800000000001 4050.02 107.60200000000002 C 4040.27 105.89800000000002 4021.47 105.00000000000001 3993.65 105.00000000000001 C 3959.23 105.00000000000001 3938.58 105.89800000000001 3931.69 107.60200000000002 C 3926.81 108.69900000000001 3922.8 112.90200000000002 3919.64 120.10200000000002 C 3807.19 351 3750.97 474.602 3750.97 491 C 3750.97 513.902 3751.7599999999998 548.301 3753.33 594 C 3754.91 639.801 3755.7 674.102 3755.7 697.102 C 3755.7 706.602 3758.5699999999997 711.3009999999999 3764.31 711.3009999999999 C 3780.66 711.3009999999999 3805.4 710.602 3838.5299999999997 709.102 C 3871.6699999999996 707.699 3896.5499999999997 707 3913.1899999999996 707 C 3919.7899999999995 707 3923.0899999999997 704.301 3923.0899999999997 698.801 C 3923.0899999999997 675.898 3922.0099999999998 641.1990000000001 3919.8599999999997 594.898 C 3917.7099999999996 548.602 3916.6299999999997 513.902 3916.6299999999997 491 C 3916.6299999999997 482.398 3927.0999999999995 455 3948.0399999999995 408.801 C 3966.9799999999996 367.5 3980.7399999999993 339.5 3989.3499999999995 324.89799999999997 C 3993.6499999999996 317.39799999999997 3996.5199999999995 313.69899999999996 3997.9599999999996 313.69899999999996 C 4000.2499999999995 313.69899999999996 4006.1299999999997 327.49999999999994 4015.5999999999995 354.99999999999994 C 4042.5599999999995 432.19899999999996 4056.3299999999995 477.80099999999993 4056.9099999999994 491.80099999999993 C 4058.0499999999993 518.199 4058.1999999999994 551.8009999999999 4057.3399999999992 592.4999999999999 C 4056.479999999999 651.3009999999999 4056.0499999999993 684.9999999999999 4056.0499999999993 693.6019999999999 C 4056.0499999999993 699.1019999999999 4056.479999999999 702.3009999999998 4057.3399999999992 703.3009999999998 C 4058.1999999999994 704.3009999999998 4061.3499999999995 705.3009999999998 4066.7999999999993 706.1019999999999 C 4081.4299999999994 707.8009999999998 4106.669999999999 708.6989999999998 4142.539999999999 708.6989999999998 C 4197.329999999999 708.6989999999998 4224.719999999999 704.8009999999998 4224.719999999999 697.1019999999999 C 4224.719999999999 677.9019999999998 4223.999999999999 647.9999999999999 4222.57 607.6019999999999 C 4221.13 568.3009999999998 4220.5599999999995 538.4999999999999 4220.849999999999 518.1019999999999 L 4220.849999999999 496.10199999999986 C 4220.849999999999 481.4999999999999 4235.62 434.89799999999985 4265.169999999999 356.3009999999999 C 4275.209999999999 328.9999999999999 4281.23 315.4019999999999 4283.239999999999 315.4019999999999 C 4284.6799999999985 315.4019999999999 4287.539999999999 319.10199999999986 4291.8499999999985 326.60199999999986 C 4299.869999999999 340.69899999999984 4312.779999999999 368.4999999999999 4330.569999999999 410.10199999999986 C 4350.369999999999 455.4019999999999 4360.259999999998 482.39799999999985 4360.259999999998 490.9999999999999 C 4360.259999999998 514.1989999999998 4359.189999999999 548.9999999999999 4357.039999999998 595.3009999999999 C 4354.879999999998 641.602 4353.809999999999 676.3009999999999 4353.809999999999 699.199 C 4353.809999999999 704.4019999999999 4357.0999999999985 707 4363.709999999998 707 C 4380.629999999998 707 4406.089999999998 707.699 4440.079999999998 709.102 C 4474.079999999998 710.602 4499.529999999998 711.3009999999999 4516.459999999998 711.3009999999999 C 4521.909999999998 711.3009999999999 4524.6399999999985 705.4999999999999 4524.6399999999985 694.102 C 4524.6399999999985 671.4019999999999 4525.419999999998 637.5 4526.999999999998 592.3009999999999 C 4528.569999999998 547.102 4529.369999999998 513.3979999999999 4529.369999999998 490.99999999999994" stroke-linecap="round" />
</g>
<g transform="matrix(0.19 0 0 -0.19 2595.76 465.44)" id="path170"  >
<path style="stroke: none; stroke-width: 1; stroke-dasharray: none; stroke-linecap: butt; stroke-dashoffset: 0; stroke-linejoin: miter; stroke-miterlimit: 4; fill: rgb(108,19,39); fill-rule: nonzero; opacity: 1;" vector-effect="non-scaling-stroke"  transform=" translate(-13934.15, -10291.23)" d="M 13934.2 11027 C 13171 11027.3 11568.400000000001 11068.8 11592.300000000001 10445 C 11611.7 9943.5 12957.400000000001 9563.35 13918 9554.94 L 13918 9554.79 C 13923.4 9554.79 13928.8 9554.810000000001 13934.2 9554.830000000002 C 13939.6 9554.810000000001 13945 9554.79 13950.400000000001 9554.79 L 13950.400000000001 9554.94 C 14910.900000000001 9563.35 16256.7 9943.5 16276.000000000002 10445 C 16300.000000000002 11068.8 14697.300000000001 11027.3 13934.2 11027" stroke-linecap="round" />
</g>
<g transform="matrix(0.18 0 0 -0.18 2589.49 495.07)" id="path174"  >
<path style="stroke: none; stroke-width: 1; stroke-dasharray: none; stroke-linecap: butt; stroke-dashoffset: 0; stroke-linejoin: miter; stroke-miterlimit: 4; fill: rgb(218,23,78); fill-rule: nonzero; opacity: 1;" vector-effect="non-scaling-stroke"  transform=" translate(-15112.25, -11021.04)" d="M 15930.5 11506.4 C 15593.4 11776.9 15177.3 11399.9 15112.3 11337.1 C 15047.199999999999 11399.9 14631.099999999999 11776.9 14294 11506.4 C 13924.5 11209.9 14399.6 10528 14399.6 10528 L 15103.4 10441.2 L 15103.4 10439.1 L 15112.3 10440.1 L 15121 10439.1 L 15121 10441.2 L 15824.9 10528 C 15824.9 10528 16300 11209.9 15930.5 11506.4" stroke-linecap="round" />
</g>
<g transform="matrix(0.14 0 0 -0.14 2169.9 355.67)" id="path178"  >
<path style="stroke: none; stroke-width: 1; stroke-dasharray: none; stroke-linecap: butt; stroke-dashoffset: 0; stroke-linejoin: miter; stroke-miterlimit: 4; fill: rgb(231,169,138); fill-rule: nonzero; opacity: 1;" vector-effect="non-scaling-stroke"  transform=" translate(-15794.2, -14611.17)" d="M 15288.9 14238 C 15286 14293.7 15296 14358 15310.1 14412.4 C 15357.5 14595.4 15467.1 14750.199999999999 15612.2 14850.9 C 15648.5 14875.3 15633.800000000001 14866.199999999999 15690.7 14899 C 15748.400000000001 14926 15766.7 14937.4 15861.7 14963 C 16018.5 14998.8 16171.1 14987.7 16300 14943.7 C 16279.2 14939.7 16152.7 14922.1 16131 14916.800000000001 C 16090.1 14908.2 16093.4 14911.000000000002 16010 14890.300000000001 C 15936.4 14868.300000000001 15968.2 14879.300000000001 15932.7 14866.6 C 15920 14862.2 15907.300000000001 14858.300000000001 15894.800000000001 14853.7 C 15870.400000000001 14843.1 15845.300000000001 14834.800000000001 15821.900000000001 14822.6 C 15569.900000000001 14706.5 15407.7 14488.800000000001 15288.900000000001 14238" stroke-linecap="round" />
</g>
<g transform="matrix(0.18 0 0 -0.18 2613.13 690.04)" id="path182"  >
<path style="stroke: none; stroke-width: 1; stroke-dasharray: none; stroke-linecap: butt; stroke-dashoffset: 0; stroke-linejoin: miter; stroke-miterlimit: 4; fill: rgb(231,169,138); fill-rule: nonzero; opacity: 1;" vector-effect="non-scaling-stroke"  transform=" translate(-15453, -10062.99)" d="M 14606 9930.33 C 14716.5 10030 14910.1 10115.6 15058.9 10154 C 15309.6 10221 15579.5 10222.8 15848.199999999999 10147.5 C 15900.499999999998 10132.1 15888.699999999999 10136.2 15956.099999999999 10112 C 15973.999999999998 10105.9 15991.399999999998 10098.5 16008.699999999999 10091 C 16067.599999999999 10065.3 16033.999999999998 10081.8 16110.999999999998 10043 C 16140.099999999999 10027.9 16138.799999999997 10028.8 16160.399999999998 10016 C 16196.099999999999 9994.49 16179.799999999997 10004.6 16220.399999999998 9979.51 C 16245.599999999999 9962.17 16277.299999999997 9939.800000000001 16299.999999999998 9921.86 C 16210.999999999998 9942.75 15927.899999999998 10035 15611.499999999998 10056.2 C 15610.699999999999 10056.2 15522.299999999997 10063.1 15452.899999999998 10062.7 C 15166.799999999997 10065.6 14863.399999999998 10013.1 14605.999999999998 9930.33" stroke-linecap="round" />
</g>
<g transform="matrix(0.2 0 0 -0.2 3023.29 355.68)" id="path186"  >
<path style="stroke: none; stroke-width: 1; stroke-dasharray: none; stroke-linecap: butt; stroke-dashoffset: 0; stroke-linejoin: miter; stroke-miterlimit: 4; fill: rgb(231,169,138); fill-rule: nonzero; opacity: 1;" vector-effect="non-scaling-stroke"  transform=" translate(-15929.13, -10715.57)" d="M 16299.7 10441.9 C 16212.7 10625.8 16093.7 10785.5 15908.800000000001 10870.6 C 15891.7 10879.6 15873.300000000001 10885.7 15855.300000000001 10893.5 C 15726.7 10940.9 15603.800000000001 10950.6 15558.2 10959.5 C 15651.400000000001 10991.3 15763.300000000001 11000.1 15879.6 10973.6 C 15949.6 10954.7 15964.800000000001 10945.5 16005 10926.7 C 16047.3 10902.300000000001 16036.4 10909 16062.6 10891.400000000001 C 16169 10817.500000000002 16249.300000000001 10704.000000000002 16284.2 10569.800000000001 C 16294.6 10529.800000000001 16301.800000000001 10482.7 16299.7 10441.900000000001" stroke-linecap="round" />
</g>
<g transform="matrix(0.17 0 0 -0.17 2586.38 440.39)" id="path190"  >
<path style="stroke: none; stroke-width: 1; stroke-dasharray: none; stroke-linecap: butt; stroke-dashoffset: 0; stroke-linejoin: miter; stroke-miterlimit: 4; fill: rgb(239,49,116); fill-rule: nonzero; opacity: 1;" vector-effect="non-scaling-stroke"  transform=" translate(-15384.85, -11545.49)" d="M 16300 11663.3 C 16282.3 11686.199999999999 16261.3 11707.699999999999 16236.7 11727.599999999999 C 15893.1 12003.3 15675.1 11800.199999999999 15388.2 11800.199999999999 C 15119.2 11800.199999999999 14912.400000000001 12003.3 14568.7 11727.599999999999 C 14524.6 11692.099999999999 14492.300000000001 11651.199999999999 14469.7 11606.699999999999 C 14499.7 11493.099999999999 14593.300000000001 11305.699999999999 14886 11244.099999999999 C 15237.7 11169.999999999998 15349.9 11277.499999999998 15379.2 11319.3 C 15408.400000000001 11277.5 15520.6 11170 15872.400000000001 11244.099999999999 C 16222.100000000002 11317.699999999999 16287.600000000002 11570.899999999998 16300.000000000002 11663.3" stroke-linecap="round" />
</g>
<g transform="matrix(0.19 0 0 -0.19 2601.08 374.5)" id="path194"  >
<path style="stroke: none; stroke-width: 1; stroke-dasharray: none; stroke-linecap: butt; stroke-dashoffset: 0; stroke-linejoin: miter; stroke-miterlimit: 4; fill: rgb(225,225,223); fill-rule: nonzero; opacity: 1;" vector-effect="non-scaling-stroke"  transform=" translate(-14452.3, -11138.63)" d="M 14431.8 11414.6 C 14431.5 11414.6 14431.199999999999 11414.6 14430.8 11414.6 C 14430.5 11414.6 14430.199999999999 11414.6 14429.9 11414.6 C 14427.9 11414.6 14425.8 11414.6 14423.9 11414.6 C 13947 11414.7 13153.3 11430.5 12604.6 11300.800000000001 C 12621.800000000001 11274.800000000001 12641.4 11252.500000000002 12663.9 11235.6 C 12863.199999999999 11086.1 13485.8 10862 14457.3 10862 L 14457.3 10862 L 14457.3 10862 C 15428.599999999999 10862 16051.199999999999 11086.1 16250.5 11235.6 C 16268.9 11249.300000000001 16285.3 11266.7 16300 11286.6 C 15753.6 11430.800000000001 14926.5 11414.9 14431.8 11414.6" stroke-linecap="round" />
</g>
<g transform="matrix(0.19 0 0 -0.19 2600.36 390.83)" id="path198"  >
<path style="stroke: none; stroke-width: 1; stroke-dasharray: none; stroke-linecap: butt; stroke-dashoffset: 0; stroke-linejoin: miter; stroke-miterlimit: 4; fill: rgb(255,255,255); fill-rule: nonzero; opacity: 1;" vector-effect="non-scaling-stroke"  transform=" translate(-14617.2, -11180.48)" d="M 14592.4 11371.5 C 14160.5 11371.6 13472.199999999999 11384.4 12934.4 11293.1 C 13214.699999999999 11151.4 13793.8 10988.800000000001 14626.1 10988.800000000001 L 14626.1 10988.800000000001 L 14626.1 10988.800000000001 C 15441 10988.800000000001 16013.4 11144.800000000001 16300 11284.2 C 15755.6 11385.2 15037.6 11371.6 14592.4 11371.5" stroke-linecap="round" />
</g>
<g transform="matrix(0.18 0 0 -0.18 2597.75 568.52)" id="path202"  >
<path style="stroke: none; stroke-width: 1; stroke-dasharray: none; stroke-linecap: butt; stroke-dashoffset: 0; stroke-linejoin: miter; stroke-miterlimit: 4; fill: rgb(225,225,223); fill-rule: nonzero; opacity: 1;" vector-effect="non-scaling-stroke"  transform=" translate(-14885.8, -10418.15)" d="M 16099.7 10636.5 C 15994.2 10636.5 15339.7 10498.3 14887.2 10495.7 C 14434.800000000001 10498.300000000001 13780.400000000001 10636.5 13674.800000000001 10636.5 C 13587.500000000002 10636.5 13500.2 10466.3 13471.6 10404.8 C 13914.800000000001 10278.9 14423.1 10203.8 14857.6 10200 L 14857.6 10199.8 C 14863.4 10199.8 14869.1 10199.9 14874.9 10199.9 C 14880.6 10199.9 14886.4 10199.8 14892.199999999999 10199.8 L 14892.199999999999 10200 C 15333.8 10203.9 15851.8 10281.4 16299.999999999998 10411.1 C 16268.699999999999 10477.1 16184.299999999997 10636.5 16099.699999999999 10636.5" stroke-linecap="round" />
</g>
<g transform="matrix(0.18 0 0 -0.18 2597.7 559.2)" id="path206"  >
<path style="stroke: none; stroke-width: 1; stroke-dasharray: none; stroke-linecap: butt; stroke-dashoffset: 0; stroke-linejoin: miter; stroke-miterlimit: 4; fill: rgb(255,255,255); fill-rule: nonzero; opacity: 1;" vector-effect="non-scaling-stroke"  transform=" translate(-14929.5, -10500.45)" d="M 16147.3 10667.9 C 16041.5 10667.9 15385.099999999999 10529.3 14931.199999999999 10526.699999999999 C 14477.499999999998 10529.3 13821.099999999999 10667.9 13715.199999999999 10667.9 C 13657.499999999998 10667.9 13599.8 10593.8 13558.999999999998 10525.6 C 13991.999999999998 10407.2 14481.099999999999 10336.9 14901.499999999998 10333.2 L 14901.499999999998 10333 C 14907.299999999997 10333 14912.999999999998 10333 14918.899999999998 10333.1 C 14924.599999999999 10333 14930.399999999998 10333 14936.199999999997 10333 L 14936.199999999997 10333.2 C 15363.499999999996 10336.900000000001 15861.799999999997 10409.5 16299.999999999996 10531.5 C 16259.399999999996 10598 16203.399999999996 10667.9 16147.299999999996 10667.9" stroke-linecap="round" />
</g>
<g transform="matrix(0.17 0 0 -0.17 2611.27 828.03)" id="path210"  >
<path style="stroke: none; stroke-width: 1; stroke-dasharray: none; stroke-linecap: butt; stroke-dashoffset: 0; stroke-linejoin: miter; stroke-miterlimit: 4; fill: rgb(70,50,52); fill-rule: nonzero; opacity: 1;" vector-effect="non-scaling-stroke"  transform=" translate(-16097.35, -9671.92)" d="M 16157.1 9741.81 C 16157.1 9769.47 16148.1 9788.609999999999 16129.9 9799.279999999999 C 16115.9 9807.439999999999 16093.9 9811.519999999999 16063.9 9811.519999999999 C 16042.5 9811.519999999999 16031 9808.229999999998 16029.699999999999 9801.649999999998 C 16028.199999999999 9793.949999999997 16027.599999999999 9771.729999999998 16027.599999999999 9734.999999999998 C 16027.599999999999 9729.789999999999 16027.699999999999 9722.079999999998 16027.899999999998 9711.879999999997 C 16028.099999999999 9701.679999999997 16028.199999999997 9694.079999999998 16028.199999999997 9689.099999999997 C 16028.199999999997 9687.959999999997 16031.899999999998 9686.829999999996 16039.099999999997 9685.699999999997 C 16052.999999999996 9683.659999999996 16067.499999999996 9682.639999999998 16082.699999999997 9682.639999999998 C 16132.299999999997 9682.639999999998 16157.099999999997 9702.359999999997 16157.099999999997 9741.809999999998 z M 16300 9436.789999999999 C 16300 9435.199999999999 16297.7 9434.06 16293.2 9433.38 C 16284.5 9432.019999999999 16262.900000000001 9431.339999999998 16228.2 9431.339999999998 C 16198.5 9431.339999999998 16178.400000000001 9432.019999999999 16167.7 9433.38 C 16162.7 9434.06 16159.900000000001 9434.63 16159.2 9435.08 C 16157.800000000001 9435.76 16156.300000000001 9438.03 16154.400000000001 9441.89 C 16151.000000000002 9450.73 16146.100000000002 9463.869999999999 16139.500000000002 9481.33 C 16130.600000000002 9504 16116.800000000001 9537.44 16098.000000000002 9581.65 C 16093.900000000001 9590.49 16084.500000000002 9595.359999999999 16069.700000000003 9596.26 C 16076.600000000002 9595.800000000001 16064.900000000003 9595.59 16034.700000000003 9595.59 C 16031.300000000003 9595.59 16029.700000000003 9589.81 16029.700000000003 9578.25 C 16029.700000000003 9562.83 16031.100000000002 9539.82 16033.900000000003 9509.22 C 16036.700000000003 9478.609999999999 16038.100000000004 9455.599999999999 16038.100000000004 9440.189999999999 C 16038.100000000004 9436.329999999998 16037.100000000004 9434.06 16035.100000000004 9433.38 C 16031.900000000003 9433.16 16028.700000000004 9432.929999999998 16025.500000000004 9432.699999999999 C 16012.200000000004 9431.8 15991.300000000003 9431.339999999998 15963.000000000004 9431.339999999998 C 15930.600000000004 9431.339999999998 15911.000000000004 9432.019999999999 15904.500000000004 9433.38 C 15897.900000000003 9434.74 15894.700000000004 9438.259999999998 15894.700000000004 9443.929999999998 C 15894.700000000004 9468.869999999999 15895.900000000005 9506.499999999998 15898.200000000004 9556.819999999998 C 15900.600000000004 9607.149999999998 15901.800000000005 9644.899999999998 15901.800000000005 9670.059999999998 C 15901.800000000005 9765.949999999997 15899.700000000004 9840.769999999997 15895.300000000005 9894.489999999998 L 15895.000000000005 9899.249999999998 C 15894.800000000005 9903.099999999999 15898.300000000005 9905.709999999997 15905.700000000006 9907.069999999998 C 15913.000000000005 9908.429999999998 15947.700000000006 9909.789999999997 16009.600000000006 9911.149999999998 C 16051.500000000005 9912.049999999997 16085.000000000005 9912.509999999998 16109.900000000005 9912.509999999998 C 16161.500000000005 9912.509999999998 16203.700000000004 9900.829999999998 16236.400000000005 9877.489999999998 C 16273.300000000005 9851.189999999999 16291.800000000005 9813.209999999997 16291.800000000005 9763.569999999998 C 16291.800000000005 9730.469999999998 16287.000000000005 9704.069999999998 16277.600000000004 9684.339999999998 C 16268.000000000004 9664.609999999999 16250.500000000004 9645.46 16224.800000000005 9626.869999999999 C 16219.600000000004 9623.249999999998 16217.000000000005 9619.849999999999 16217.000000000005 9616.669999999998 C 16217.000000000005 9616.889999999998 16230.900000000005 9588.449999999999 16258.500000000005 9531.319999999998 C 16286.200000000006 9474.189999999999 16300.000000000005 9442.679999999998 16300.000000000005 9436.789999999997" stroke-linecap="round" />
</g>
<g transform="matrix(0.13 0 0 -0.13 1896.18 320.7)" id="path222"  >
<path style="stroke: none; stroke-width: 1; stroke-dasharray: none; stroke-linecap: butt; stroke-dashoffset: 0; stroke-linejoin: miter; stroke-miterlimit: 4; fill: rgb(231,169,138); fill-rule: nonzero; opacity: 1;" vector-effect="non-scaling-stroke"  transform=" translate(-14879.5, -15908.09)" d="M 15459.8 15553.6 C 15303.4 15806.2 15104.599999999999 16018.4 14822.4 16111.800000000001 C 14639.6 16182.2 14345.1 16179.7 14299.199999999999 16183.400000000001 C 14511.099999999999 16283.400000000001 14786.3 16300.000000000002 15042.3 16167.100000000002 C 15308.5 16023.400000000001 15448.599999999999 15742.000000000002 15459.8 15553.600000000002" stroke-linecap="round" />
</g>
<g transform="matrix(0.13 0 0 -0.13 1072.37 320.7)" id="path226"  >
<path style="stroke: none; stroke-width: 1; stroke-dasharray: none; stroke-linecap: butt; stroke-dashoffset: 0; stroke-linejoin: miter; stroke-miterlimit: 4; fill: rgb(231,169,138); fill-rule: nonzero; opacity: 1;" vector-effect="non-scaling-stroke"  transform=" translate(-8752.8, -15907.34)" d="M 8172.51 15552.9 C 8183.83 15742.5 8323.35 16022.4 8590.04 16166.3 C 8847.470000000001 16300 9122.78 16281.8 9333.080000000002 16182.5 C 9273.010000000002 16177.8 9083.600000000002 16180 8932.990000000002 16144.6 C 8649.62 16079 8408.770000000002 15934.5 8172.510000000002 15552.9" stroke-linecap="round" />
</g>
</svg>