<?xml version="1.0" encoding="UTF-8" standalone="no"?>
<svg
   xmlns:dc="http://purl.org/dc/elements/1.1/"
   xmlns:cc="http://creativecommons.org/ns#"
   xmlns:rdf="http://www.w3.org/1999/02/22-rdf-syntax-ns#"
   xmlns:svg="http://www.w3.org/2000/svg"
   xmlns="http://www.w3.org/2000/svg"
   viewBox="0 0 3200.8132 2224.2"
   height="2224.2"
   width="3200.8132"
   xml:space="preserve"
   id="svg2"
   version="1.1"><metadata
     id="metadata8"><rdf:RDF><cc:Work
         rdf:about=""><dc:format>image/svg+xml</dc:format><dc:type
           rdf:resource="http://purl.org/dc/dcmitype/StillImage" /></cc:Work></rdf:RDF></metadata><defs
     id="defs6" /><g
     transform="matrix(1.3333333,0,0,-1.3333333,0,2224.2)"
     id="g10"><g
       transform="scale(0.1)"
       id="g12"><g
         transform="scale(1.01892)"
         id="g14"><path
           id="path16"
           style="fill:#6c1327;fill-opacity:1;fill-rule:nonzero;stroke:none"
           d="m 6651.11,15908.5 c -675.78,391.5 -1576.18,-456.3 -3013.95,-459.4 -1437.76,3.1 -2338.17,850.9 -3013.952,459.4 -719.6603,-417 237.31,-2956.9 3007.452,-2964.9 v -0.1 c 2.18,0 4.33,0.1 6.5,0.1 2.18,0 4.32,-0.1 6.5,-0.1 v 0.1 c 2770.14,8 3727.11,2547.9 3007.45,2964.9" /></g><path
         id="path18"
         style="fill:#da174e;fill-opacity:1;fill-rule:nonzero;stroke:none"
         d="m 5332.27,14727.3 c -670.06,319 -1496.99,-125.7 -1626.29,-199.7 -129.3,74 -956.23,518.7 -1626.29,199.7 -734.42,-349.8 209.84,-1154.1 209.84,-1154.1 l 1399.02,-102.4 v -2.6 l 17.43,1.3 17.43,-1.3 v 2.6 l 1399.02,102.4 c 0,0 944.27,804.3 209.84,1154.1" /><g
         transform="scale(1.00583)"
         id="g20"><path
           id="path22"
           style="fill:#e1e1df;fill-opacity:1;fill-rule:nonzero;stroke:none"
           d="m 6453.73,16211.6 c -651.13,88.4 -1505.13,-558.7 -2769.24,-561.4 -1226.25,2.6 -2066.59,611.7 -2710.192,567.5 15.701,-204.6 67.272,-544.9 236.522,-671.8 278.16,-208.6 1147.41,-521.6 2503.43,-521.6 v 0 h 0.01 c 1356.02,0 2225.26,313 2503.42,521.6 167.57,125.7 219.79,460.4 236.05,665.7" /></g><path
         id="path24"
         style="fill:#ffffff;fill-opacity:1;fill-rule:nonzero;stroke:none"
         d="m 6459.25,16065.2 c -650.86,64.1 -1502.46,-565.9 -2753.27,-568.5 -1213.29,2.5 -2051.01,595.5 -2694.2,572.5 32.87,-170.4 93.66,-348.3 206.1,-432.6 279.78,-209.9 1154.1,-524.6 2518.03,-524.6 v 0 h 0.01 c 1363.93,0 2238.24,314.7 2518.02,524.6 111.55,83.6 172.25,259.4 205.31,428.6" /><path
         id="path26"
         style="fill:#e1e1df;fill-opacity:1;fill-rule:nonzero;stroke:none"
         d="m 5356.82,14027.8 c -143.71,0 -1034.77,-188.2 -1650.84,-191.7 -616.07,3.5 -1507.13,191.7 -1650.84,191.7 -130.49,0 -260.91,-279.2 -285.83,-335.3 502.32,-299.6 1144.62,-501.7 1930.05,-503.9 v -0.1 c 2.22,0 4.41,0 6.62,0 2.22,0 4.4,0 6.62,0 v 0.1 c 785.43,2.2 1427.74,204.3 1930.05,503.9 -24.92,56.1 -155.34,335.3 -285.83,335.3" /><path
         id="path28"
         style="fill:#ffffff;fill-opacity:1;fill-rule:nonzero;stroke:none"
         d="m 5356.82,14027.8 c -143.71,0 -1034.77,-188.2 -1650.84,-191.7 -616.07,3.5 -1507.13,191.7 -1650.84,191.7 -73.09,0 -146.14,-87.6 -200.65,-174.5 489.09,-272.4 1103.12,-452.8 1844.87,-454.9 v -0.1 c 2.22,0 4.41,0 6.62,0 2.22,0 4.4,0 6.62,0 v 0.1 c 741.75,2.1 1355.78,182.5 1844.88,454.9 -54.52,86.9 -127.57,174.5 -200.66,174.5" /><g
         transform="scale(1.02337)"
         id="g30"><path
           id="path32"
           style="fill:#e7a98a;fill-opacity:1;fill-rule:nonzero;stroke:none"
           d="m 0,15601.4 c 16.4858,276.2 269.162,603.7 591.93,674.6 154.032,42.1 370.183,31.8 551.85,-54 -41.39,-3.3 -191.236,-4.7 -267.474,-16.5 C 520.326,16155 260.035,16021.5 0,15601.4" /></g><g
         transform="scale(1.02337)"
         id="g34"><path
           id="path36"
           style="fill:#e7a98a;fill-opacity:1;fill-rule:nonzero;stroke:none"
           d="m 7203.96,15601.4 c -398.78,644.1 -831.33,595.7 -1143.79,620.6 220.17,104 488.77,110.5 732.29,-16 262.42,-141.6 400.42,-418.9 411.5,-604.6" /></g><path
         id="path38"
         style="fill:#ef3174;fill-opacity:1;fill-rule:nonzero;stroke:none"
         d="m 5455.7,14652.9 c -34.47,26.5 -75.25,51.4 -123.43,74.4 -670.06,319 -1496.98,-125.7 -1626.29,-199.7 -129.3,74 -956.23,518.7 -1626.29,199.7 -86.13,-41.1 -148.92,-88.4 -193.11,-139.9 58.43,-131.5 241.01,-348.4 811.81,-419.7 685.88,-85.7 904.66,38.7 961.75,87.1 57.09,-48.4 275.86,-172.8 961.75,-87.1 681.98,85.2 809.84,378.3 833.81,485.2" /><path
         id="path40"
         style="fill:#463234;fill-opacity:1;fill-rule:nonzero;stroke:none"
         d="m 3365.87,12339.8 c -6.02,-12.7 -16.21,-40.1 -30.55,-82.2 -15.49,-44.8 -23.24,-71 -23.24,-78.8 0,-5.1 8.61,-8 25.82,-8.6 8.89,-0.6 23.52,-0.8 43.89,-0.8 18.93,0 29.4,2.3 31.41,6.8 0.58,1.5 0.86,3.5 0.86,6.1 0,9.4 -6.6,35.5 -19.79,78.3 -12.91,41.3 -22.38,67.7 -28.4,79.2 z m 305.08,-392 c 0,-5.2 -3.59,-8.8 -10.76,-10.8 -8.61,-2.3 -35.28,-3.4 -80.03,-3.4 -41.03,0 -67.42,1.1 -79.18,3.4 -9.75,2 -15.92,8.4 -18.5,19.4 -9.75,41.3 -17.36,63.4 -22.81,66.2 -4.59,2 -43.03,3 -115.32,3 -48.77,0 -74.72,-1.3 -77.88,-3.8 -4.88,-4.6 -10.32,-20 -16.35,-46.1 -5.45,-23.8 -12.05,-36.7 -19.79,-38.7 -9.76,-2.3 -42.46,-3.4 -98.11,-3.4 -43.89,0 -65.83,4.1 -65.83,12.4 0,7.5 32.41,99.1 97.24,275 70.28,190.2 108.43,294.7 114.46,313.7 3.44,10.9 7.46,16.3 12.05,16.3 7.74,0 19.72,-0.7 35.93,-2.1 16.2,-1.5 28.33,-2.2 36.36,-2.2 7.74,0 19.15,0.5 34.21,1.5 15.06,1 26.31,1.5 33.77,1.5 5.45,0 10.48,-4.7 15.06,-14.2 14.06,-30.1 55.08,-133.4 123.07,-309.8 68.27,-177.5 102.41,-270.2 102.41,-277.9" /><path
         id="path42"
         style="fill:#463234;fill-opacity:1;fill-rule:nonzero;stroke:none"
         d="m 4331.71,12070.8 c 0,-12.3 -2.44,-35 -7.32,-68 -5.16,-35.8 -9.75,-57.2 -13.77,-64.1 -3.44,-5.4 -8.17,-8.2 -14.2,-8.2 -2.58,0 -6.88,0.5 -12.91,1.3 -20.94,2.9 -82.04,4.3 -183.3,4.3 -22.1,0 -54.94,0.2 -98.54,0.5 -43.61,0.3 -76.31,0.4 -98.11,0.4 -9.46,0 -14.2,4.2 -14.2,12.5 0,32.1 1.79,80.4 5.38,144.8 3.59,64.4 5.38,112.6 5.38,144.8 0,32.7 -1.72,93.6 -5.16,182.8 -0.86,23 -2.44,57.3 -4.73,102.9 l -0.44,6 c -0.57,6.6 3.02,9.9 10.76,9.9 21.23,0 53.14,-0.6 95.74,-1.7 42.6,-1.2 74.51,-1.7 95.74,-1.7 20.94,0 52.5,0.5 94.67,1.7 42.17,1.1 73.72,1.7 94.66,1.7 14.91,0 23.52,-5.6 25.82,-16.8 1.43,-6.6 3.66,-26.6 6.67,-60 3.01,-33.4 4.52,-53.7 4.52,-60.9 0,-6 -2.87,-9 -8.61,-9 -1.72,0 -4.73,0.1 -9.03,0.4 -76.31,6.3 -144.87,9.5 -205.69,9.5 -15.2,0 -24.52,-3.6 -27.96,-10.8 -1.44,-3.4 -2.16,-14.5 -2.16,-33.1 0,-19.5 2.87,-32.4 8.61,-38.7 4.88,-5.5 14.2,-8.2 27.97,-8.2 2.86,0 8.46,0.2 16.78,0.6 8.32,0.5 15.2,0.7 20.65,0.7 36.15,0 72.72,1 109.73,3 3.16,0.3 11.04,1 23.67,2.1 9.74,1.2 17.49,1.8 23.23,1.8 6.89,0 10.33,-3.4 10.33,-9.9 0,6 -2.58,-16 -7.75,-65.9 -2.3,-22.9 -3.44,-45.9 -3.44,-68.8 0,-5.8 -4.16,-8.6 -12.48,-8.6 l -38.72,4.3 c -16.36,1.7 -53.65,2.5 -111.88,2.5 h -45.61 c -11.77,0 -18.65,-2.8 -20.66,-8.6 -0.28,-1.4 -0.43,-10.3 -0.43,-26.6 0,-21.8 1.44,-35.9 4.31,-42.2 4.87,-10.9 23.23,-17.4 55.07,-19.4 -0.57,0 20.37,0 62.83,0 15.2,0 37.79,1.4 67.77,4.1 29.97,2.7 52.42,4.1 67.34,4.1 6.31,0 9.47,-5.2 9.47,-15.5" /><path
         id="path44"
         style="fill:#6c1327;fill-opacity:1;fill-rule:nonzero;stroke:none"
         d="m 11911,9602.14 c -1109.3,0.35 -3438.71,60.72 -3403.84,-845.93 28.04,-728.99 1984.04,-1281.54 3380.34,-1293.76 v -0.23 c 7.8,0 15.6,0.03 23.5,0.07 7.8,-0.04 15.7,-0.07 23.5,-0.07 v 0.23 c 1396.2,12.22 3352.3,564.77 3380.3,1293.76 34.9,906.65 -2294.6,846.28 -3403.8,845.93" /><path
         id="path46"
         style="fill:#e7a98a;fill-opacity:1;fill-rule:nonzero;stroke:none"
         d="m 8171.15,8952.77 c -14.9,282.96 204.79,644.85 524.64,753.84 152.04,60.49 373.11,74.66 567.39,8.36 -41.58,-8.08 -193.99,-26.79 -270.11,-47.48 -357.62,-92.55 -606.21,-259.05 -821.92,-714.72" /><path
         id="path48"
         style="fill:#e7a98a;fill-opacity:1;fill-rule:nonzero;stroke:none"
         d="m 15663.2,8952.77 c -331.9,701.04 -777.3,701.04 -1092,762.2 235.8,80.47 509.7,56.34 742.8,-100.22 250.7,-174.07 359.2,-471.94 349.2,-661.98" /><path
         id="path50"
         style="fill:#e1e1df;fill-opacity:1;fill-rule:nonzero;stroke:none"
         d="m 11922.2,9602.14 c -0.5,0 -1,-0.01 -1.5,-0.01 -0.4,0 -0.9,0.01 -1.3,0.01 -2.8,0 -5.6,0 -8.4,0 -669.7,0.21 -1784.2,22.28 -2554.55,-159.77 24.04,-36.45 51.59,-67.82 83.32,-91.63 279.79,-209.83 1154.13,-524.59 2518.03,-524.59 v 0 0 c 1363.9,0 2238.3,314.76 2518,524.59 25.8,19.36 48.9,43.73 69.5,71.72 -767.3,202.47 -1928.6,180.15 -2623.1,179.68" /><path
         id="path52"
         style="fill:#ffffff;fill-opacity:1;fill-rule:nonzero;stroke:none"
         d="m 11911,9357.33 c -599.3,0.19 -1554.8,17.89 -2301.18,-108.86 389.06,-196.58 1192.88,-422.32 2347.98,-422.32 v 0 0 c 1131.1,0 1925.5,216.48 2323.3,410.06 -755.6,140.12 -1752.2,121.32 -2370.1,121.12" /><path
         id="path54"
         style="fill:#e1e1df;fill-opacity:1;fill-rule:nonzero;stroke:none"
         d="m 13578.7,8056.75 c -143.7,0 -1034.8,-188.17 -1650.8,-191.7 -616.1,3.53 -1507.2,191.7 -1650.9,191.7 -118.9,0 -237.7,-231.75 -276.7,-315.38 603.4,-171.53 1295.5,-273.74 1887.2,-278.92 v -0.23 c 7.8,0 15.6,0.03 23.5,0.07 7.8,-0.04 15.7,-0.07 23.5,-0.07 v 0.23 c 601.4,5.26 1306.6,110.78 1916.9,287.45 -42.6,89.79 -157.6,306.85 -272.7,306.85" /><path
         id="path56"
         style="fill:#ffffff;fill-opacity:1;fill-rule:nonzero;stroke:none"
         d="m 13578.7,8056.75 c -143.7,0 -1034.8,-188.17 -1650.8,-191.7 -616.1,3.53 -1507.2,191.7 -1650.9,191.7 -78.3,0 -156.6,-100.65 -212.1,-193.23 587.9,-160.7 1251.9,-256.18 1822.6,-261.18 v -0.23 c 7.8,0 15.6,0.04 23.5,0.07 7.8,-0.03 15.7,-0.07 23.5,-0.07 v 0.23 c 580.1,5.08 1256.6,103.64 1851.5,269.17 -55.1,90.28 -131.2,185.24 -207.3,185.24" /><path
         id="path58"
         style="fill:#da174e;fill-opacity:1;fill-rule:nonzero;stroke:none"
         d="m 13437.9,8920.54 c -687.6,200.88 -1409.5,-55.27 -1555.5,-58.22 -146,2.95 -867.9,259.1 -1555.5,58.22 -746.25,-218.01 -336.18,-819.78 62.2,-948.06 449.1,-144.63 920.7,-177.35 1493.3,-114.03 572.6,-63.32 1044.2,-30.6 1493.3,114.03 398.4,128.28 808.4,730.05 62.2,948.06" /><path
         id="path60"
         style="fill:#ef3174;fill-opacity:1;fill-rule:nonzero;stroke:none"
         d="m 13650.8,8831.5 c 0,0.04 -0.1,0.09 -0.2,0.13 -7.9,4.69 -16,9.31 -24.5,13.85 -0.3,0.18 -0.6,0.36 -0.9,0.54 -8.1,4.33 -16.4,8.59 -25,12.78 -0.7,0.38 -1.5,0.76 -2.2,1.14 -8.1,3.94 -16.5,7.79 -25,11.6 -1.3,0.58 -2.6,1.19 -3.9,1.77 -8,3.54 -16.4,7 -24.8,10.42 -1.9,0.78 -3.7,1.58 -5.7,2.35 -8,3.18 -16.2,6.27 -24.6,9.34 -2.5,0.93 -4.9,1.89 -7.4,2.81 -8.3,2.97 -16.8,5.85 -25.4,8.71 -2.8,0.91 -5.4,1.87 -8.2,2.78 -11.4,3.7 -23.1,7.31 -35.1,10.82 -687.6,200.88 -1409.5,-55.27 -1555.5,-58.22 -146,2.95 -867.9,259.1 -1555.5,58.22 -12,-3.51 -23.7,-7.12 -35.1,-10.82 -2.8,-0.91 -5.4,-1.87 -8.2,-2.78 -8.6,-2.86 -17.1,-5.74 -25.4,-8.71 -2.5,-0.92 -4.9,-1.88 -7.5,-2.81 -8.3,-3.07 -16.6,-6.16 -24.5,-9.34 -2,-0.77 -3.8,-1.57 -5.7,-2.35 -8.5,-3.42 -16.8,-6.88 -24.8,-10.42 -1.3,-0.58 -2.6,-1.19 -3.9,-1.77 -8.5,-3.81 -16.9,-7.66 -25,-11.6 -0.8,-0.38 -1.5,-0.76 -2.3,-1.14 -8.5,-4.19 -16.8,-8.45 -24.9,-12.78 -0.3,-0.18 -0.6,-0.36 -1,-0.54 -8.4,-4.54 -16.5,-9.16 -24.4,-13.85 -0.1,-0.04 -0.2,-0.09 -0.3,-0.13 -8,-4.81 -15.9,-9.69 -23.4,-14.64 71.7,-106.52 290.3,-340.87 829.8,-390.03 550.1,-50.14 860.6,53.78 962.1,68 101.5,-14.22 412,-118.14 962.1,-68 539.5,49.16 758.1,283.51 829.8,390.03 -7.6,4.95 -15.4,9.83 -23.5,14.64" /><path
         id="path62"
         style="fill:#463234;fill-opacity:1;fill-rule:nonzero;stroke:none"
         d="m 11699.3,6631.4 c 0,-5.7 -3.2,-8.6 -9.5,-8.6 -10.9,0 -54.1,2.2 -129.5,6.5 -1.7,-72.6 -2.6,-123.2 -2.6,-151.9 0,-33.9 1.4,-84.8 4.1,-152.8 2.7,-67.9 4.1,-118.9 4.1,-152.7 0,-5.5 -1.3,-8.9 -3.9,-10.3 -0.8,-0.6 -4.9,-1.3 -12,-2.2 -17.2,-2.3 -42.5,-3.4 -75.8,-3.4 -37,0 -62.9,1.1 -77.8,3.4 -8.1,1.4 -12.1,5.9 -12.1,13.3 0,33.9 1.4,84.7 4.3,152.4 2.9,67.7 4.3,118.4 4.3,152.3 0,22.4 -1.1,72.3 -3.4,149.7 -57.4,-5.7 -103.2,-8.6 -137.3,-8.6 -4.6,0 -6.9,1.5 -6.9,4.3 0,3.8 2,14.8 6,33.2 4.6,20 7.2,32.24 7.8,36.54 0.8,13.48 1.9,26.96 3,40.45 2,21.51 5.4,32.27 10.3,32.27 0.6,0 2.6,-0.15 6.1,-0.43 46.4,-6.02 115.1,-9.04 206.1,-9.04 25.8,0 73.4,2.73 142.8,8.18 37.3,2.86 56.1,4.3 56.4,4.3 5.7,0 9,-0.36 9.9,-1.08 0.8,-0.71 1.4,-3.51 1.7,-8.38 0,-7.75 -0.3,-18.51 -0.9,-32.28 -0.5,-15.21 -0.8,-25.97 -0.8,-32.27 0,-7.17 0.9,-17.76 2.8,-31.66 1.8,-13.9 2.8,-24.3 2.8,-31.2" /><path
         id="path64"
         style="fill:#463234;fill-opacity:1;fill-rule:nonzero;stroke:none"
         d="m 12499,6172.7 c 0,-6 -1.3,-9.7 -3.9,-11.1 -1.1,-0.9 -5.1,-1.6 -12,-2.2 -17.5,-1.7 -42.2,-2.6 -74,-2.6 -45,0 -71.5,0.9 -79.4,2.6 -7.9,1.7 -11.8,5.6 -11.8,11.6 0,22.7 1,56.7 3.2,102.2 2.1,45.5 3.2,79.6 3.2,102.2 0,11.2 -3.1,17.7 -9.4,19.4 -9.8,2.3 -44.5,3.4 -104.2,3.4 -59.9,0 -94.9,-1.1 -105,-3.4 -6.3,-1.5 -9.4,-7.9 -9.4,-19.4 0,-22.4 0.7,-55.9 2.1,-100.5 1.4,-44.6 2.2,-78.1 2.2,-100.4 0,-8.6 -3.9,-13.7 -11.7,-15.1 -9.1,-1.7 -36.1,-2.6 -80.8,-2.6 -38.8,0 -63.4,0.9 -74.1,2.6 -8.3,1.4 -12.4,5.9 -12.4,13.3 0,31 1.5,77.8 4.5,140.3 3,62.6 4.5,109.5 4.5,140.7 0,33.3 -1.4,83.3 -4.3,150 -2.9,66.7 -4.3,116.66 -4.3,149.94 0,6.3 3,9.47 9,9.47 8.9,0 22.3,-0.43 40.3,-1.29 17.9,-0.86 31.3,-1.29 40.2,-1.29 9.2,0 23,0.43 41.5,1.29 18.5,0.86 32.4,1.29 41.5,1.29 4.9,0 7.4,-2.58 7.4,-7.75 0,-21.51 -1.6,-53.72 -4.8,-96.56 -3.1,-42.9 -4.7,-75.1 -4.7,-96.6 0,-10.1 2.7,-16 8.2,-17.7 7.4,-2.3 44.1,-3.4 110.1,-3.4 61.4,0 97,1.1 106.7,3.4 6.9,1.7 10.4,7.6 10.4,17.7 0,20.6 -1,51.8 -3.1,93.5 -2,41.79 -3,73.13 -3,94.07 0,8.88 3.6,13.34 10.8,13.34 8.3,0 21,-0.43 38.1,-1.29 17,-0.86 29.9,-1.29 38.5,-1.29 8.3,0 21,0.43 38.1,1.29 17,0.86 29.9,1.29 38.5,1.29 8.3,0 12.5,-3.44 12.5,-10.33 0,-32.99 -1.4,-82.78 -4.1,-149.28 -2.8,-66.6 -4.1,-116.5 -4.1,-149.8 0,-31.2 1.5,-78.1 4.5,-140.7 3,-62.5 4.5,-109.3 4.5,-140.3" /><g
         transform="scale(1.38396)"
         id="g66"><path
           id="path68"
           style="fill:#6c1327;fill-opacity:1;fill-rule:nonzero;stroke:none"
           d="m 16031.1,6437.25 c -251.4,627.07 -784.9,519.16 -1442.9,514.33 -657.9,4.83 -1189.9,112.74 -1441.3,-514.33 -268.9,-670.42 174.8,-2550.71 1435.8,-2572.03 V 3865 c 2.1,0 4.2,0.08 6.3,0.15 2.1,-0.07 4.2,-0.15 6.2,-0.15 v 0.22 c 1261.1,21.32 1704.8,1901.61 1435.9,2572.03" /></g><g
         transform="scale(1.35873)"
         id="g70"><path
           id="path72"
           style="fill:#e1e1df;fill-opacity:1;fill-rule:nonzero;stroke:none"
           d="m 16158.7,6844.74 c -291.3,310.35 -757.5,239.89 -1299.6,235.91 -603.2,4.43 -1102.7,94.68 -1383.1,-353.18 -19.2,-32.63 -37.8,-63.39 -55.8,-103.61 261.5,-118.56 753.5,-244.75 1441,-244.75 v 0 0 c 685.7,0 1176.7,125.51 1438.8,243.78 -39.6,83.5 -84.3,155.7 -141.3,221.85" /></g><g
         transform="scale(1.35179)"
         id="g74"><path
           id="path76"
           style="fill:#ffffff;fill-opacity:1;fill-rule:nonzero;stroke:none"
           d="m 14935.4,6910.04 c -587,4.32 -1075.9,55.82 -1362.5,-287 277.5,-107.8 740.6,-211.18 1364.5,-211.18 h 0.1 v 0 c 622.4,0 1084.8,102.9 1362.5,210.41 -286.4,344.09 -777.1,292.09 -1364.6,287.77" /></g><g
         transform="scale(1.17704)"
         id="g78"><path
           id="path80"
           style="fill:#e7a98a;fill-opacity:1;fill-rule:nonzero;stroke:none"
           d="m 15312,7744.26 c -9.4,179.61 94.1,444.89 315.9,598.89 219.5,147.41 471,159.29 672.1,90.67 -37.4,-7.26 -225.1,-27.56 -358.9,-75.3 -249.5,-88.18 -453.5,-243.3 -629.1,-614.26" /></g><g
         transform="scale(1.38079)"
         id="g82"><path
           id="path84"
           style="fill:#e7a98a;fill-opacity:1;fill-rule:nonzero;stroke:none"
           d="m 16292.3,6601.56 c -99.1,209.4 -234.4,390.35 -444,486.92 -133.8,69.63 -364.7,94.39 -398.2,100.88 172.5,58.87 386.8,47.72 573,-77.28 193.2,-134.25 276.9,-363.98 269.2,-510.52" /></g><g
         transform="scale(1.33314)"
         id="g86"><path
           id="path88"
           style="fill:#da174e;fill-opacity:1;fill-rule:nonzero;stroke:none"
           d="m 16300,4726.08 c -8.7,112.74 -56,217.61 -166.5,296.65 -402.7,287.84 -899.6,-113.4 -977.3,-180.08 -77.8,66.68 -574.6,467.92 -977.3,180.08 -120.9,-86.4 -166,-203.64 -167.9,-328.31 258.3,-388.55 632.2,-673.45 1127.8,-681.85 v -0.22 c 2.1,0 4.2,0.07 6.3,0.15 2.2,-0.08 4.4,-0.15 6.5,-0.15 v 0.22 c 508.9,8.63 889.5,308.9 1148.4,713.51" /></g><g
         transform="scale(1.32558)"
         id="g90"><path
           id="path92"
           style="fill:#ef3174;fill-opacity:1;fill-rule:nonzero;stroke:none"
           d="m 16300,4983.85 c -20.8,24.06 -45.5,46.69 -74.6,67.5 -405,289.48 -876.1,-78.29 -982.9,-78.29 -106.7,0 -577.9,367.77 -982.8,78.29 -52.1,-37.18 -90,-80.18 -116.7,-126.87 35.3,-119.27 145.7,-316.09 490.6,-380.82 414.5,-77.78 546.7,35.16 581.2,78.99 34.5,-43.83 166.7,-156.77 581.3,-78.99 412.1,77.33 489.4,343.25 503.9,440.19" /></g><g
         transform="scale(1.25858)"
         id="g94"><path
           id="path96"
           style="fill:#463234;fill-opacity:1;fill-rule:nonzero;stroke:none"
           d="m 16170.4,3787.83 c 0,34.25 -10.4,63.25 -31.1,87.16 -21.6,25.11 -49.4,37.67 -83.1,37.67 -32.1,0 -59.3,-13.04 -81.7,-39.02 -21.6,-25.03 -32.4,-53.87 -32.4,-86.44 0,-34.88 10,-63.97 30.4,-87.25 21.4,-24.39 49.3,-36.54 83.7,-36.54 32.1,0 59.5,12.87 82.1,38.61 21.4,24.63 32.1,53.24 32.1,85.81 z m 129.6,-0.63 c 0,-71.12 -22.7,-130.78 -68,-178.85 -46.3,-48.79 -104.9,-73.18 -175.8,-73.18 -70.4,0 -128.8,24.63 -175.4,73.89 -45.5,48.07 -68.3,107.42 -68.3,178.14 0,70.87 22.8,130.46 68.3,178.77 46.6,49.5 105,74.21 175.4,74.21 70,0 128.4,-24.71 175.1,-74.21 45.8,-48.79 68.7,-108.38 68.7,-178.77" /></g><g
         transform="scale(1.47276)"
         id="g98"><path
           id="path100"
           style="fill:#6c1327;fill-opacity:1;fill-rule:nonzero;stroke:none"
           d="m 15741,2293.18 c -549.7,320.69 -876.5,-162.08 -1980.4,-186.93 -1103.9,24.85 -1430.6,507.62 -1980.3,186.93 -564.1,-329.05 -205,-807.87 500.1,-854.86 395.3,-26.41 1158.4,132.67 1463.3,132.67 304.9,0 1068,-159.08 1463.3,-132.67 705.1,46.99 1098.1,525.81 534,854.86" /></g><g
         transform="scale(1.40468)"
         id="g102"><path
           id="path104"
           style="fill:#e1e1df;fill-opacity:1;fill-rule:nonzero;stroke:none"
           d="m 16300,2492.52 c -469,130.78 -857.3,-261.34 -1872.5,-284.19 -1005.5,22.64 -1396,407.57 -1859.1,287.68 20.3,-157.62 44.9,-301.63 74.3,-323.77 199.2,-149.36 821.6,-373.47 1792.6,-373.47 v 0 0 c 971,0 1593.5,224.11 1792.6,373.47 28.4,21.35 52.2,164.23 72.1,320.28" /></g><g
         transform="scale(1.40218)"
         id="g106"><path
           id="path108"
           style="fill:#ffffff;fill-opacity:1;fill-rule:nonzero;stroke:none"
           d="m 16300,2304.99 c -457.1,107.33 -850.8,-269.87 -1846.7,-292.19 -985.8,22.11 -1381.6,391.89 -1832.9,295.18 13.5,-69.32 28.4,-119.53 44.9,-131.86 199.5,-149.63 823.1,-374.14 1795.8,-374.14 v 0 0 c 972.7,0 1596.3,224.51 1795.8,374.14 15.7,11.84 30,60.9 43.1,128.87" /></g><g
         transform="scale(1.23837)"
         id="g110"><path
           id="path112"
           style="fill:#463234;fill-opacity:1;fill-rule:nonzero;stroke:none"
           d="m 16300,461.091 c 0,-2.584 -2.3,-3.795 -6.9,-3.795 -17.4,0 -43.7,1.454 -79.1,4.523 -35.3,2.987 -61.8,4.52 -79.4,4.52 -22.2,0 -35.2,-0.807 -38.9,-2.422 -8.6,-3.956 -12.8,-15.1 -12.8,-33.43 0,-21.967 5.5,-34.48 16.6,-37.47 4.7,-1.212 11.7,-1.776 21.2,-1.776 16,0 39.9,0.889 71.7,2.583 31.9,1.776 55.8,2.665 71.8,2.665 7.7,0 11.5,-20.43 11.5,-61.21 0,-35.366 -1.3,-56.04 -3.8,-61.775 -1.6,-4.198 -4.8,-6.299 -9.4,-6.299 3,0 -4.3,0.811 -21.9,2.426 -24.8,2.34 -62.3,3.47 -112.6,3.47 -16.2,0 -25.4,-0.079 -27.5,-0.322 -11.7,-1.858 -17.6,-6.864 -17.6,-14.939 0,-32.865 1.3,-70.74 4.2,-113.617 2.2,-38.678 3.4,-55.9611 3.4,-51.7626 0,-6.0564 -7.3,-9.5293 -21.9,-10.4157 3.9,0.1609 -6.3,0.3218 -30.9,0.3218 -43.3,0 -71.3,1.5361 -83.7,4.5233 -6.8,1.615 -10.1,5.1668 -10.1,10.7374 0,25.7618 0.8,64.3618 2.6,115.8818 1.7,51.599 2.6,90.198 2.6,115.878 0,30.603 -1.4,69.039 -4.2,115.392 -4.2,71.547 -6.3,109.983 -6.6,115.314 l -0.3,4.199 c -0.3,5.813 3.2,8.721 10.4,8.721 17.1,0 43,-0.403 77.6,-1.05 34.7,-0.729 60.7,-1.05 78,-1.05 18.6,0 46.4,1.372 83.6,4.119 37.2,2.826 65.1,4.199 83.6,4.199 11.6,0 18.1,-4.763 19.4,-14.214 0,-10.012 0.5,-24.951 1.4,-44.817 0.5,-5.085 2,-14.939 4.5,-29.553 2.4,-12.759 3.5,-22.61 3.5,-29.556" /></g><g
         transform="scale(1.28369)"
         id="g114"><path
           id="path116"
           style="fill:#463234;fill-opacity:1;fill-rule:nonzero;stroke:none"
           d="m 16090.8,82.4955 c -30.2,0 -47.4,0.3926 -51.6,1.3268 -4.2,0.855 -7.8,4.1293 -10.8,9.7375 -25.4,50.2462 -51,100.6472 -76.7,151.1272 -40.4,81.172 -60.7,127.054 -60.7,137.805 0,17.607 0.6,44.169 1.9,79.614 1.2,35.368 1.8,61.931 1.8,79.617 0,8.255 2.2,12.385 6.8,12.385 13.4,0 33.7,-0.545 61,-1.714 27.2,-1.092 47.6,-1.637 61.3,-1.637 5.6,0 8.4,-2.337 8.4,-7.011 0,-18.151 -1.3,-45.337 -3.9,-81.64 -2.6,-36.3 -3.8,-63.565 -3.8,-81.641 0,-13.864 22.6,-63.33 68,-148.476 12.3,22.122 26.2,49.232 41.9,81.406 21,43.39 31.5,69.955 31.5,79.769 0,16.359 -0.2,40.898 -0.7,73.616 -0.4,32.718 -0.7,57.257 -0.7,73.54 0,6.077 1,9.424 3.1,10.127 h 10.7 c 12.2,0 30.9,0.545 55.8,1.792 24.9,1.245 43.5,1.869 55.9,1.869 6.6,0 10,-2.727 10,-8.025 0,-17.214 -0.3,-43.235 -0.9,-77.98 -0.5,-34.741 -0.8,-60.838 -0.8,-78.287 0,-13.867 -22,-64.815 -66,-152.843 -17.4,-31.705 -42.6,-79.535 -75.5,-143.4132 -2.2,-4.9083 -3.7,-7.714 -4.5,-8.2586 -0.8,-0.5447 -3.6,-1.0103 -8.5,-1.4789 -11.4,-0.9342 -29,-1.3268 -53,-1.3268" /></g><path
         id="path118"
         style="fill:#6c1327;fill-opacity:1;fill-rule:nonzero;stroke:none"
         d="m 15008,4231.4 c -688.6,398.9 -1606,-464.9 -3071,-468.1 -1465,3.2 -2382.43,867 -3071,468.1 -733.28,-424.9 241.8,-3012.9 3064.4,-3021 v -0.1 c 2.2,0 4.4,0.1 6.6,0.1 2.2,0 4.4,-0.1 6.6,-0.1 v 0.1 c 2822.6,8.1 3797.6,2596.1 3064.4,3021" /><path
         id="path120"
         style="fill:#e1e1df;fill-opacity:1;fill-rule:nonzero;stroke:none"
         d="m 14722.4,4328.1 c -655,88.9 -1513.9,-562 -2785.4,-564.8 -1233.4,2.7 -2078.67,615.3 -2726.02,570.9 15.79,-205.9 67.66,-548.1 237.9,-675.8 279.78,-209.8 1154.12,-524.6 2518.02,-524.6 v 0 0 c 1363.9,0 2238.3,314.8 2518,524.6 168.6,126.4 221.1,463.2 237.5,669.7" /><path
         id="path122"
         style="fill:#ffffff;fill-opacity:1;fill-rule:nonzero;stroke:none"
         d="m 14690.2,4087 c -650.8,64.2 -1502.4,-565.8 -2753.2,-568.5 -1213.3,2.6 -2051.03,595.6 -2694.22,572.6 32.87,-170.4 93.65,-348.3 206.1,-432.7 279.78,-209.8 1154.12,-524.6 2518.02,-524.6 v 0 0 c 1363.9,0 2238.3,314.8 2518,524.6 111.6,83.7 172.3,259.5 205.3,428.6" /><path
         id="path124"
         style="fill:#e7a98a;fill-opacity:1;fill-rule:nonzero;stroke:none"
         d="m 8231,3988 c 16.87,282.8 275.72,617.9 605.76,690.3 157.63,43.1 378.84,32.6 564.76,-55.2 -42.39,-3.4 -195.66,-4.9 -273.73,-16.9 C 8763.45,4554.4 8497.14,4417.9 8231,3988" /><path
         id="path126"
         style="fill:#e7a98a;fill-opacity:1;fill-rule:nonzero;stroke:none"
         d="m 15603.3,3988 c -408.8,660.3 -852.9,609.7 -1170.5,635.1 184.7,87.2 406,98.6 564.8,55.2 332.9,-73.1 589.1,-411.5 605.7,-690.3" /><path
         id="path128"
         style="fill:#da174e;fill-opacity:1;fill-rule:nonzero;stroke:none"
         d="M 12795.5,2990.5 C 13355,2501 13353.4,1619 13353.4,1619 l -1399,-125.7 v -3.2 l -17.4,1.6 -17.5,-1.6 v 3.2 l -1399,125.7 c 0,0 -95.8,923.3 596.5,1418.1 326.4,233.2 1306.4,279 1678.5,-46.6" /><path
         id="path130"
         style="fill:#e1e1df;fill-opacity:1;fill-rule:nonzero;stroke:none"
         d="m 13587.8,2049.7 c -143.7,0 -1034.8,-188.2 -1650.8,-191.7 -616.1,3.5 -1507.2,191.7 -1650.9,191.7 -130.5,0 -260.9,-279.2 -285.8,-335.3 502.3,-299.6 1144.6,-501.7 1930.1,-504 v -0.1 c 2.2,0 4.4,0.1 6.6,0.1 2.2,0 4.4,-0.1 6.6,-0.1 v 0.1 c 785.4,2.3 1427.7,204.4 1930,504 -24.9,56.1 -155.3,335.3 -285.8,335.3" /><path
         id="path132"
         style="fill:#ffffff;fill-opacity:1;fill-rule:nonzero;stroke:none"
         d="m 13587.8,2049.7 c -143.7,0 -1034.8,-188.2 -1650.8,-191.7 -616.1,3.5 -1507.2,191.7 -1650.9,191.7 -73,0 -146.1,-87.6 -200.6,-174.5 489.1,-272.4 1103.1,-452.8 1844.9,-454.9 v -0.1 c 2.2,0 4.4,0 6.6,0 2.2,0 4.4,0 6.6,0 v 0.1 c 741.8,2.1 1355.8,182.5 1844.9,454.9 -54.5,86.9 -127.6,174.5 -200.7,174.5" /><path
         id="path134"
         style="fill:#ef3174;fill-opacity:1;fill-rule:nonzero;stroke:none"
         d="m 12795.5,2990.5 c -372.1,325.6 -1352.1,279.8 -1678.5,46.6 -237.8,-170 -382.6,-390.5 -470.2,-606.7 194.3,-128.7 440.1,-178.1 668.8,-132.8 240.3,47.6 458.2,198.7 587,407 33.1,-145.2 182.3,-231.7 324.2,-277.1 204.4,-65.5 424.2,-82.1 636.2,-48.3 102.7,16.4 210.9,52.2 293.5,113 -81.7,178.4 -197.3,355.1 -361,498.3" /><path
         id="path136"
         style="fill:#463234;fill-opacity:1;fill-rule:nonzero;stroke:none"
         d="m 12175,100.301 c -24.6,0 -56.8,0.5 -96.3,1.699 -51.7,1.102 -83.8,1.902 -96.4,2.102 l -128.7,1.796 c -12.9,-0.296 -31.4,0.301 -55.5,1.704 -8.3,1.398 -12.5,5.898 -12.5,13.296 0,31.301 0.5,78.102 1.5,140.504 1,62.399 1.5,109.2 1.5,140.5 0,33.297 -1,83.098 -3,149.5 -2,66.399 -3,116.297 -3,149.598 0,6.301 4.3,9.402 12.9,9.402 8.6,0 21.5,-0.402 38.5,-1.3 17.1,-0.801 29.8,-1.301 38.1,-1.301 9.5,0 23.5,0.5 42.2,1.5 18.6,1.101 32.7,1.597 42.1,1.597 4.3,0 6.3,-2.796 6.1,-8.199 l -0.5,-5.597 c -3.4,-54 -7.3,-135 -11.6,-243.102 l -0.4,-113.598 c 0,-36.8 0.1,-63.601 0.4,-80.5 0.3,-3.402 0.6,-6.902 0.9,-10.3 0.3,-3.5 2.4,-5.602 6.4,-6.5 0.3,0 4,0 11.2,0 25.8,0 64.5,1.398 116,4.097 51.5,2.703 90.1,4.102 116,4.102 7.7,0 11.6,-3.301 11.6,-9.899 0,-49 -3.6,-91.402 -10.8,-126.902 -1.4,-7.5 -4.4,-11.898 -9,-13.398 -1.5,-0.5 -7.3,-0.801 -17.7,-0.801" /><path
         id="path138"
         style="fill:#6c1327;fill-opacity:1;fill-rule:nonzero;stroke:none"
         d="M 6466.4,4307.4 C 5981.59,5012.9 4953.22,4891.5 3684.76,4886 2416.3,4891.5 1390.75,5012.9 905.949,4307.4 387.621,3553.2 1243.11,1438 3674.2,1414 v -0.2 c 4.01,0 7.97,0.1 11.97,0.1 4.01,0 7.97,-0.1 11.98,-0.1 v 0.2 c 2431.09,24 3286.58,2139.2 2768.25,2893.4" /><path
         id="path140"
         style="fill:#da174e;fill-opacity:1;fill-rule:nonzero;stroke:none"
         d="m 5552.17,2884.2 c -782.28,372.5 -1747.69,-146.7 -1898.65,-233.1 -150.96,86.4 -1116.37,605.6 -1898.64,233.1 -327.81,-156.1 -369.01,-389.8 -295.03,-618.9 396.34,-393.5 964.35,-709.7 1711.84,-814.3 l 461.49,-33.7 v -2.3 c 2.36,-0.1 4.71,-0.1 7.08,-0.2 l 13.26,1 20.35,-1.5 v 3 l 590.78,43.2 c 654.31,103.5 1167.32,370.7 1544.66,707.7 117.96,258.3 117.21,537.7 -257.14,716" /><path
         id="path142"
         style="fill:#ef3174;fill-opacity:1;fill-rule:nonzero;stroke:none"
         d="m 5696.28,2797.3 c -40.25,31 -87.86,60.1 -144.11,86.9 -782.28,372.5 -1780.8,249.7 -1931.75,163.3 -150.97,86.4 -1083.27,209.2 -1865.55,-163.3 -100.55,-47.9 -173.87,-103.2 -225.45,-163.3 68.22,-153.5 281.37,-406.7 947.76,-490 800.76,-100.1 1056.17,45.2 1122.82,101.6 66.65,-56.4 322.07,-201.7 1122.82,-101.6 796.2,99.5 945.47,441.6 973.46,566.4" /><path
         id="path144"
         style="fill:#e1e1df;fill-opacity:1;fill-rule:nonzero;stroke:none"
         d="m 6130.84,4627.8 c -551.25,342.8 -1420.1,262.6 -2446.08,258.2 -1141.68,4.9 -2086.5,103.6 -2617.46,-391 -36.2,-36.1 -71.101,-73.8 -104.655,-113.5 495.015,-130.9 1424.765,-270.3 2726.035,-270.3 h 0.01 v 0 c 1297.72,0 2225.9,138.6 2721.93,269.2 -77.72,92.2 -171.82,174.4 -279.78,247.4" /><path
         id="path146"
         style="fill:#ffffff;fill-opacity:1;fill-rule:nonzero;stroke:none"
         d="m 3684.76,4658.6 c -1105.43,4.8 -2025.98,61.4 -2565.6,-315.3 522.64,-118.5 1394.58,-232.1 2569.52,-232.1 h 0.01 v 0 c 1172.14,0 2042.69,113.1 2565.74,231.2 -539.44,378.1 -1463.39,321 -2569.67,316.2" /><path
         id="path148"
         style="fill:#e1e1df;fill-opacity:1;fill-rule:nonzero;stroke:none"
         d="M 1772.66,1998.6 C 2239.24,1658.4 2870.61,1421.9 3674.2,1414 v -0.2 c 4.01,0 7.97,0.1 11.97,0.1 4.01,0 7.97,-0.1 11.98,-0.1 v 0.2 c 803.58,7.9 1434.96,244.4 1901.53,584.6 -314.88,-22.6 -1247.07,-129 -1913.51,-131.2 -666.44,2.2 -1598.62,108.6 -1913.51,131.2" /><path
         id="path150"
         style="fill:#ffffff;fill-opacity:1;fill-rule:nonzero;stroke:none"
         d="m 5389.81,1980.7 c -1634.85,-149.4 -1763.12,-150.3 -3407.28,0 440.46,-264 1002.78,-438.8 1691.67,-445.6 v -0.3 c 0.1,0 0.52,0.1 23.95,0 v 0.3 c 688.89,6.8 1251.21,181.6 1691.66,445.6" /><path
         id="path152"
         style="fill:#e7a98a;fill-opacity:1;fill-rule:nonzero;stroke:none"
         d="m 518.164,8977.68 c 891.646,-548.99 4726.476,-499.01 6003.546,-180.56 125.23,30.26 259.49,74.3 382.7,131.11 -1107.43,-662.35 -5389.45,-670.26 -6386.246,49.45" /><path
         id="path154"
         style="fill:#e7a98a;fill-opacity:1;fill-rule:nonzero;stroke:none"
         d="m 6618.9,9328.63 c 49.56,-14.28 105.87,-47.53 146.44,-79.35 342.1,-263.64 247.26,-768.43 -133.01,-1021.14 74.67,156.09 113.41,213.58 172.35,391.4 0.25,0.98 22.32,81.47 24.42,105.71 28.13,190.48 -11.9,375.61 -210.2,603.38" /><path
         id="path156"
         style="fill:#e7a98a;fill-opacity:1;fill-rule:nonzero;stroke:none"
         d="M 753.445,9328.63 C 554.574,9100.21 515.23,8914.96 543.246,8725.25 c 0.645,-7.42 11.067,-57.85 14.942,-70.41 49.171,-176.55 108.988,-274.43 181.824,-426.7 -102.426,68.07 -195.407,170.9 -232.199,234.48 -69.043,115.59 -99.954,187.45 -112.094,325.02 -15.352,289.18 192.871,493.5 357.726,540.99" /><path
         id="path158"
         style="fill:#463234;fill-opacity:1;fill-rule:nonzero;stroke:none"
         d="m 3057.97,6347 c 0,25.8 -10.76,43.3 -32.27,52.5 -13.77,5.7 -36.15,8.6 -67.13,8.6 -37,0 -57.08,-1.3 -60.24,-4.1 -3.16,-2.7 -4.73,-20.3 -4.73,-52.7 0,-33.8 1.86,-52.6 5.59,-56.1 3.73,-3.6 24.38,-5.4 61.96,-5.4 30.99,0 52.78,2.4 65.41,7.3 20.94,8.3 31.41,25 31.41,49.9 z m -12.91,240.6 c 0,24.6 -12.33,41 -37,49 -13.77,4.3 -36.43,6.5 -67.99,6.5 -30.98,0 -46.47,-2.3 -46.47,-6.9 0,-5.5 -0.5,-13.7 -1.51,-24.8 -1.01,-11 -1.5,-19.3 -1.5,-24.7 0,-28.7 2.43,-44.8 7.31,-48.2 3.16,-2.6 21.37,-3.9 54.65,-3.9 61.67,0 92.51,17.7 92.51,53 z m 185.03,-242.3 c 0,-52.8 -16.5,-96.5 -49.49,-131.2 -37.58,-39.9 -103.55,-59.9 -197.93,-59.9 -7.17,0 -17.5,0.2 -30.98,0.5 -13.77,0 -23.96,0 -30.55,0 -105.85,0 -168.83,2.1 -188.9,6.4 -8.33,1.8 -12.48,6.2 -12.48,13.4 0,30.7 1.79,77.1 5.38,139.4 3.58,62.2 5.38,108.8 5.38,139.8 0,33.3 -1.72,95.8 -5.17,187.6 -0.86,23.5 -2.43,58.83 -4.73,105.89 l -0.43,6.02 c -0.29,5.44 4.23,8.75 13.55,9.9 9.32,1.14 42.53,1.72 99.62,1.72 91.5,0 145.01,-0.29 160.5,-0.86 70.57,-2.58 122.63,-14.06 156.19,-34.42 44.47,-27.26 66.7,-73.35 66.7,-138.15 0,-16.9 -5.17,-34.8 -15.49,-53.8 -7.46,-13.5 -17.21,-26.9 -29.26,-40.4 -10.62,-11.8 -15.92,-17.2 -15.92,-16.4 0,-2 3.72,-5.1 11.19,-9.4 20.07,-11.5 35.85,-29.7 47.33,-54.7 10.32,-22.4 15.49,-46.2 15.49,-71.4" /><path
         id="path160"
         style="fill:#463234;fill-opacity:1;fill-rule:nonzero;stroke:none"
         d="m 4102.55,6172.7 c 0,-8.8 -4.16,-13.3 -12.48,-13.3 h -152.32 c -8.32,0 -12.48,5 -12.48,15.1 0,28.9 1.08,72.4 3.23,130.3 2.15,58 3.22,101.4 3.22,130.4 0,8.3 -1.29,12.8 -3.87,13.4 -3.16,-1.8 -22.37,-46.1 -57.66,-133 -20.65,-51.1 -41.31,-102 -61.96,-152.7 -2.87,-6.6 -6.45,-10.5 -10.76,-11.7 -1.44,-0.3 -7.17,-0.4 -17.21,-0.4 -14.92,0 -23.81,2.9 -26.68,8.6 -15.49,31.6 -35.86,77.5 -61.1,137.7 -26.96,63.7 -47.19,109.7 -60.67,138.1 -0.58,1.5 -1.87,3 -3.87,4.8 -2.01,-2.6 -3.01,-6.8 -3.01,-12.5 0,-28.1 0.71,-70.3 2.15,-126.5 1.43,-56.3 2.15,-98.4 2.15,-126.5 0,-10.1 -4.02,-15.1 -12.05,-15.1 h -143.72 c -5.74,0 -9.25,0.9 -10.54,2.8 -1.29,1.9 -1.94,5.1 -1.94,9.7 0,31.2 1.51,78.2 4.52,140.9 3.01,62.7 4.52,109.7 4.52,140.9 0,33.3 -1.44,95.7 -4.3,187.2 -0.29,23.8 -1.58,59.23 -3.88,106.29 l -0.43,7.31 c -0.28,5.74 5.74,8.61 18.08,8.61 15.77,0 39.44,0.5 70.99,1.5 31.56,1 55.22,1.51 71,1.51 3.16,0 7.6,-6.02 13.34,-18.07 l 125.65,-275.85 c 8.89,-18.6 16.35,-27.9 22.37,-27.9 3.16,0 9.9,10.7 20.23,32.2 28.97,60.3 71.86,151.1 128.65,272.41 4.88,11.19 10.18,16.78 15.93,16.78 8.31,0 20.87,-0.43 37.65,-1.29 16.78,-0.86 29.47,-1.29 38.08,-1.29 7.16,0 18.14,0.71 32.91,2.15 14.78,1.43 25.75,2.15 32.92,2.15 8.61,0 12.91,-3.44 12.91,-10.32 0,-33.85 -1.22,-84.39 -3.66,-151.69 -2.44,-67.3 -3.65,-117.8 -3.65,-151.7 0,-31.2 1.29,-78.1 3.87,-140.7 2.58,-62.5 3.87,-109.3 3.87,-140.3" /><path
         id="path162"
         style="fill:#463234;fill-opacity:1;fill-rule:nonzero;stroke:none"
         d="m 4702.64,6526 c 0,66.9 -32.56,100.3 -97.68,100.3 -45.9,0 -69.99,-2.6 -72.29,-7.8 -2.01,-3.7 -3.01,-36.8 -3.01,-99.4 0,-8.9 0.36,-22 1.08,-39.3 0.71,-17.4 1.07,-30.5 1.07,-39.4 0,-5.8 25.82,-8.6 77.46,-8.6 62.24,0 93.37,31.4 93.37,94.2 z m 171.69,6.9 c 0,-69.4 -18.22,-125.6 -54.65,-168.7 -39.01,-45.6 -92.8,-68.4 -161.36,-68.4 -11.48,0 -28.76,0.7 -51.85,1.9 -23.09,1.3 -40.38,2 -51.85,2 -12.34,0 -18.5,-5.3 -18.5,-15.9 0,-13.2 1.29,-32.9 3.87,-59 2.58,-26.1 3.87,-45.6 3.87,-58.5 0,-6.6 -3.01,-9.9 -9.04,-9.9 -17.49,0 -43.74,0.5 -78.74,1.5 -35,1 -61.25,1.5 -78.74,1.5 -8.33,0 -12.48,4.2 -12.48,12.5 0,31.8 0.5,79.7 1.5,143.5 1.01,63.8 1.51,111.7 1.51,143.5 0,90.1 -3.87,184.7 -11.62,283.99 l -0.43,6.02 c -0.58,5.44 3.73,8.75 12.91,9.9 22.38,2.86 71.71,4.3 148.02,4.3 45.03,0 88.21,-0.58 129.52,-1.72 67.99,-2.01 122.78,-23.39 164.37,-64.12 42.45,-41.87 63.69,-96.67 63.69,-164.37" /><path
         id="path164"
         style="fill:#463234;fill-opacity:1;fill-rule:nonzero;stroke:none"
         d="m 3361.72,409.699 c 0,44.102 -12.76,81 -38.29,110.5 -26.97,31 -62.11,46.5 -105.42,46.5 -44.75,0 -80.19,-15.297 -106.29,-46 -24.95,-29 -37.43,-66.297 -37.43,-111.898 0,-46.5 12.19,-83.801 36.57,-111.899 25.53,-29.8 61.25,-44.703 107.15,-44.703 44.46,0 79.88,15.301 106.28,46 24.96,29.301 37.43,66.403 37.43,111.5 z m 163.09,-0.898 c 0,-76.301 -20.81,-142 -62.4,-197.102 -42.45,-56.5 -100.4,-92.597 -173.84,-108.398 14.35,-29.301 35.72,-56.1018 64.12,-80.5002 2.58,-2 3.87,-3.8985 3.87,-5.6016 C 3356.56,5.80078 3321.28,0 3250.71,0 c -51.92,0 -83.91,2 -95.96,6 -6.6,2.30078 -10.75,7.6016 -12.48,16 -3.44,16.6016 -4.59,44.3008 -3.44,83 -70.28,17.5 -126.07,54.5 -167.38,111 -40.17,54.801 -60.24,119.102 -60.24,192.801 0,89.199 28.68,164.199 86.06,225 58.52,62.301 132.1,93.398 220.74,93.398 88.06,0 161.5,-31.301 220.31,-93.801 57.66,-61.097 86.49,-136 86.49,-224.597" /><path
         id="path166"
         style="fill:#463234;fill-opacity:1;fill-rule:nonzero;stroke:none"
         d="m 4529.37,491 c 0,-0.898 -26.68,-58.699 -80.03,-173.398 -54.22,-117.102 -85.2,-182.903 -92.95,-197.5 -2.58,-5.2 -4.16,-8.102 -4.73,-8.602 -1.15,-1.5 -3.87,-2.801 -8.18,-3.898 -7.17,-1.704 -27.54,-2.602 -61.1,-2.602 -31.27,0 -50.34,0.898 -57.23,2.602 -5.74,1.398 -9.18,2.597 -10.33,3.398 -1.14,0.902 -3.01,3.602 -5.59,8.199 -1.72,3.203 -9.9,23.403 -24.53,60.703 L 4137.8,299.5 4090.04,178.602 c -4.88,-13.801 -12.91,-33.602 -24.1,-59.403 -2.87,-4.898 -4.88,-7.797 -6.02,-8.797 -1.15,-1 -4.45,-2.004 -9.9,-2.8 -9.75,-1.704 -28.55,-2.602 -56.37,-2.602 -34.42,0 -55.07,0.898 -61.96,2.602 -4.88,1.097 -8.89,5.3 -12.05,12.5 C 3807.19,351 3750.97,474.602 3750.97,491 c 0,22.902 0.79,57.301 2.36,103 1.58,45.801 2.37,80.102 2.37,103.102 0,9.5 2.87,14.199 8.61,14.199 16.35,0 41.09,-0.699 74.22,-2.199 33.14,-1.403 58.02,-2.102 74.66,-2.102 6.6,0 9.9,-2.699 9.9,-8.199 0,-22.903 -1.08,-57.602 -3.23,-103.903 -2.15,-46.296 -3.23,-80.996 -3.23,-103.898 0,-8.602 10.47,-36 31.41,-82.199 18.94,-41.301 32.7,-69.301 41.31,-83.903 4.3,-7.5 7.17,-11.199 8.61,-11.199 2.29,0 8.17,13.801 17.64,41.301 26.96,77.199 40.73,122.801 41.31,136.801 1.14,26.398 1.29,60 0.43,100.699 -0.86,58.801 -1.29,92.5 -1.29,101.102 0,5.5 0.43,8.699 1.29,9.699 0.86,1 4.01,2 9.46,2.801 14.63,1.699 39.87,2.597 75.74,2.597 54.79,0 82.18,-3.898 82.18,-11.597 0,-19.2 -0.72,-49.102 -2.15,-89.5 -1.44,-39.301 -2.01,-69.102 -1.72,-89.5 v -22 c 0,-14.602 14.77,-61.204 44.32,-139.801 10.04,-27.301 16.06,-40.899 18.07,-40.899 1.44,0 4.3,3.7 8.61,11.2 8.02,14.097 20.93,41.898 38.72,83.5 19.8,45.3 29.69,72.296 29.69,80.898 0,23.199 -1.07,58 -3.22,104.301 -2.16,46.301 -3.23,81 -3.23,103.898 0,5.203 3.29,7.801 9.9,7.801 16.92,0 42.38,0.699 76.37,2.102 34,1.5 59.45,2.199 76.38,2.199 5.45,0 8.18,-5.801 8.18,-17.199 0,-22.7 0.78,-56.602 2.36,-101.801 1.57,-45.199 2.37,-78.903 2.37,-101.301" /><g
         transform="scale(1.4535)"
         id="g168"><path
           id="path170"
           style="fill:#6c1327;fill-opacity:1;fill-rule:nonzero;stroke:none"
           d="m 13934.2,11027 c -763.2,0.3 -2365.8,41.8 -2341.9,-582 19.4,-501.5 1365.1,-881.65 2325.7,-890.06 v -0.15 c 5.4,0 10.8,0.02 16.2,0.04 5.4,-0.02 10.8,-0.04 16.2,-0.04 v 0.15 c 960.5,8.41 2306.3,388.56 2325.6,890.06 24,623.8 -1578.7,582.3 -2341.8,582" /></g><g
         transform="scale(1.33708)"
         id="g172"><path
           id="path174"
           style="fill:#da174e;fill-opacity:1;fill-rule:nonzero;stroke:none"
           d="m 15930.5,11506.4 c -337.1,270.5 -753.2,-106.5 -818.2,-169.3 -65.1,62.8 -481.2,439.8 -818.3,169.3 -369.5,-296.5 105.6,-978.4 105.6,-978.4 l 703.8,-86.8 v -2.1 l 8.9,1 8.7,-1 v 2.1 l 703.9,86.8 c 0,0 475.1,681.9 105.6,978.4" /></g><g
         transform="scale(1.0801)"
         id="g176"><path
           id="path178"
           style="fill:#e7a98a;fill-opacity:1;fill-rule:nonzero;stroke:none"
           d="m 15288.9,14238 c -2.9,55.7 7.1,120 21.2,174.4 47.4,183 157,337.8 302.1,438.5 36.3,24.4 21.6,15.3 78.5,48.1 57.7,27 76,38.4 171,64 156.8,35.8 309.4,24.7 438.3,-19.3 -20.8,-4 -147.3,-21.6 -169,-26.9 -40.9,-8.6 -37.6,-5.8 -121,-26.5 -73.6,-22 -41.8,-11 -77.3,-23.7 -12.7,-4.4 -25.4,-8.3 -37.9,-12.9 -24.4,-10.6 -49.5,-18.9 -72.9,-31.1 -252,-116.1 -414.2,-333.8 -533,-584.6" /></g><g
         transform="scale(1.31907)"
         id="g180"><path
           id="path182"
           style="fill:#e7a98a;fill-opacity:1;fill-rule:nonzero;stroke:none"
           d="m 14606,9930.33 c 110.5,99.67 304.1,185.27 452.9,223.67 250.7,67 520.6,68.8 789.3,-6.5 52.3,-15.4 40.5,-11.3 107.9,-35.5 17.9,-6.1 35.3,-13.5 52.6,-21 58.9,-25.7 25.3,-9.2 102.3,-48 29.1,-15.1 27.8,-14.2 49.4,-27 35.7,-21.51 19.4,-11.4 60,-36.49 25.2,-17.34 56.9,-39.71 79.6,-57.65 -89,20.89 -372.1,113.14 -688.5,134.34 -0.8,0 -89.2,6.9 -158.6,6.5 -286.1,2.9 -589.5,-49.6 -846.9,-132.37" /></g><g
         transform="scale(1.47276)"
         id="g184"><path
           id="path186"
           style="fill:#e7a98a;fill-opacity:1;fill-rule:nonzero;stroke:none"
           d="m 16299.7,10441.9 c -87,183.9 -206,343.6 -390.9,428.7 -17.1,9 -35.5,15.1 -53.5,22.9 -128.6,47.4 -251.5,57.1 -297.1,66 93.2,31.8 205.1,40.6 321.4,14.1 70,-18.9 85.2,-28.1 125.4,-46.9 42.3,-24.4 31.4,-17.7 57.6,-35.3 106.4,-73.9 186.7,-187.4 221.6,-321.6 10.4,-40 17.6,-87.1 15.5,-127.9" /></g><g
         transform="scale(1.31187)"
         id="g188"><path
           id="path190"
           style="fill:#ef3174;fill-opacity:1;fill-rule:nonzero;stroke:none"
           d="m 16300,11663.3 c -17.7,22.9 -38.7,44.4 -63.3,64.3 -343.6,275.7 -561.6,72.6 -848.5,72.6 -269,0 -475.8,203.1 -819.5,-72.6 -44.1,-35.5 -76.4,-76.4 -99,-120.9 30,-113.6 123.6,-301 416.3,-362.6 351.7,-74.1 463.9,33.4 493.2,75.2 29.2,-41.8 141.4,-149.3 493.2,-75.2 349.7,73.6 415.2,326.8 427.6,419.2" /></g><g
         transform="scale(1.40415)"
         id="g192"><path
           id="path194"
           style="fill:#e1e1df;fill-opacity:1;fill-rule:nonzero;stroke:none"
           d="m 14431.8,11414.6 c -0.3,0 -0.6,0 -1,0 -0.3,0 -0.6,0 -0.9,0 -2,0 -4.1,0 -6,0 -476.9,0.1 -1270.6,15.9 -1819.3,-113.8 17.2,-26 36.8,-48.3 59.3,-65.2 199.3,-149.5 821.9,-373.6 1793.4,-373.6 v 0 0 c 971.3,0 1593.9,224.1 1793.2,373.6 18.4,13.7 34.8,31.1 49.5,51 -546.4,144.2 -1373.5,128.3 -1868.2,128" /></g><g
         transform="scale(1.38794)"
         id="g196"><path
           id="path198"
           style="fill:#ffffff;fill-opacity:1;fill-rule:nonzero;stroke:none"
           d="m 14592.4,11371.5 c -431.9,0.1 -1120.2,12.9 -1658,-78.4 280.3,-141.7 859.4,-304.3 1691.7,-304.3 v 0 0 c 814.9,0 1387.3,156 1673.9,295.4 -544.4,101 -1262.4,87.4 -1707.6,87.3" /></g><g
         transform="scale(1.36158)"
         id="g200"><path
           id="path202"
           style="fill:#e1e1df;fill-opacity:1;fill-rule:nonzero;stroke:none"
           d="m 16099.7,10636.5 c -105.5,0 -760,-138.2 -1212.5,-140.8 -452.4,2.6 -1106.8,140.8 -1212.4,140.8 -87.3,0 -174.6,-170.2 -203.2,-231.7 443.2,-125.9 951.5,-201 1386,-204.8 v -0.2 c 5.8,0 11.5,0.1 17.3,0.1 5.7,0 11.5,-0.1 17.3,-0.1 v 0.2 c 441.6,3.9 959.6,81.4 1407.8,211.1 -31.3,66 -115.7,225.4 -200.3,225.4" /></g><g
         transform="scale(1.35757)"
         id="g204"><path
           id="path206"
           style="fill:#ffffff;fill-opacity:1;fill-rule:nonzero;stroke:none"
           d="m 16147.3,10667.9 c -105.8,0 -762.2,-138.6 -1216.1,-141.2 -453.7,2.6 -1110.1,141.2 -1216,141.2 -57.7,0 -115.4,-74.1 -156.2,-142.3 433,-118.4 922.1,-188.7 1342.5,-192.4 v -0.2 c 5.8,0 11.5,0 17.4,0.1 5.7,-0.1 11.5,-0.1 17.3,-0.1 v 0.2 c 427.3,3.7 925.6,76.3 1363.8,198.3 -40.6,66.5 -96.6,136.4 -152.7,136.4" /></g><g
         transform="scale(1.2654)"
         id="g208"><path
           id="path210"
           style="fill:#463234;fill-opacity:1;fill-rule:nonzero;stroke:none"
           d="m 16157.1,9741.81 c 0,27.66 -9,46.8 -27.2,57.47 -14,8.16 -36,12.24 -66,12.24 -21.4,0 -32.9,-3.29 -34.2,-9.87 -1.5,-7.7 -2.1,-29.92 -2.1,-66.65 0,-5.21 0.1,-12.92 0.3,-23.12 0.2,-10.2 0.3,-17.8 0.3,-22.78 0,-1.14 3.7,-2.27 10.9,-3.4 13.9,-2.04 28.4,-3.06 43.6,-3.06 49.6,0 74.4,19.72 74.4,59.17 z m 142.9,-305.02 c 0,-1.59 -2.3,-2.73 -6.8,-3.41 -8.7,-1.36 -30.3,-2.04 -65,-2.04 -29.7,0 -49.8,0.68 -60.5,2.04 -5,0.68 -7.8,1.25 -8.5,1.7 -1.4,0.68 -2.9,2.95 -4.8,6.81 -3.4,8.84 -8.3,21.98 -14.9,39.44 -8.9,22.67 -22.7,56.11 -41.5,100.32 -4.1,8.84 -13.5,13.71 -28.3,14.61 6.9,-0.46 -4.8,-0.67 -35,-0.67 -3.4,0 -5,-5.78 -5,-17.34 0,-15.42 1.4,-38.43 4.2,-69.03 2.8,-30.61 4.2,-53.62 4.2,-69.03 0,-3.86 -1,-6.13 -3,-6.81 -3.2,-0.22 -6.4,-0.45 -9.6,-0.68 -13.3,-0.9 -34.2,-1.36 -62.5,-1.36 -32.4,0 -52,0.68 -58.5,2.04 -6.6,1.36 -9.8,4.88 -9.8,10.55 0,24.94 1.2,62.57 3.5,112.89 2.4,50.33 3.6,88.08 3.6,113.24 0,95.89 -2.1,170.71 -6.5,224.43 l -0.3,4.76 c -0.2,3.85 3.3,6.46 10.7,7.82 7.3,1.36 42,2.72 103.9,4.08 41.9,0.9 75.4,1.36 100.3,1.36 51.6,0 93.8,-11.68 126.5,-35.02 36.9,-26.3 55.4,-64.28 55.4,-113.92 0,-33.1 -4.8,-59.5 -14.2,-79.23 -9.6,-19.73 -27.1,-38.88 -52.8,-57.47 -5.2,-3.62 -7.8,-7.02 -7.8,-10.2 0,0.22 13.9,-28.22 41.5,-85.35 27.7,-57.13 41.5,-88.64 41.5,-94.53" /></g><path
         id="path212"
         style="fill:#6c1327;fill-opacity:1;fill-rule:nonzero;stroke:none"
         d="m 15028.6,15741.5 c -558.7,537.1 -1742.1,185.6 -3203.7,181.4 -1461.7,4.2 -2645.06,355.7 -3203.71,-181.4 -597.28,-574.3 388.51,-2184.9 3189.91,-2203.1 v -0.2 c 4.6,0 9.2,0.1 13.8,0.1 4.6,0 9.2,-0.1 13.8,-0.1 v 0.2 c 2801.4,18.2 3787.1,1628.8 3189.9,2203.1" /><path
         id="path214"
         style="fill:#da174e;fill-opacity:1;fill-rule:nonzero;stroke:none"
         d="m 13458.3,15007 c -670,319.1 -1496.9,-125.6 -1626.2,-199.6 -129.3,74 -956.3,518.7 -1626.3,199.6 -734.45,-349.7 209.8,-1154.1 209.8,-1154.1 l 1399,-102.3 v -2.6 l 17.5,1.3 17.4,-1.3 v 2.6 l 1399,102.3 c 0,0 944.3,804.4 209.8,1154.1" /><path
         id="path216"
         style="fill:#e1e1df;fill-opacity:1;fill-rule:nonzero;stroke:none"
         d="m 13482.9,14132.7 c -143.7,0 -1034.8,-188.1 -1650.8,-191.7 -616.1,3.6 -1507.2,191.7 -1650.9,191.7 -130.5,0 -260.89,-279.1 -285.81,-335.3 502.31,-299.6 1144.61,-501.7 1930.01,-503.9 v -0.1 c 2.3,0 4.4,0 6.7,0 2.2,0 4.4,0 6.6,0 v 0.1 c 785.4,2.2 1427.7,204.3 1930,503.9 -24.9,56.2 -155.3,335.3 -285.8,335.3" /><path
         id="path218"
         style="fill:#ffffff;fill-opacity:1;fill-rule:nonzero;stroke:none"
         d="m 13482.9,14132.7 c -143.7,0 -1034.8,-188.1 -1650.8,-191.7 -616.1,3.6 -1507.2,191.7 -1650.9,191.7 -65.8,0 -131.7,-71.1 -183.93,-148.8 486.33,-267.2 1094.83,-443.5 1828.13,-445.6 v -0.1 c 2.3,0 4.4,0 6.7,0 2.2,0 4.4,0 6.6,0 v 0.1 c 733.3,2.1 1341.8,178.4 1828.2,445.6 -52.3,77.7 -118.1,148.8 -184,148.8" /><g
         transform="scale(1.00853)"
         id="g220"><path
           id="path222"
           style="fill:#e7a98a;fill-opacity:1;fill-rule:nonzero;stroke:none"
           d="m 15459.8,15553.6 c -156.4,252.6 -355.2,464.8 -637.4,558.2 -182.8,70.4 -477.3,67.9 -523.2,71.6 211.9,100 487.1,116.6 743.1,-16.3 266.2,-143.7 406.3,-425.1 417.5,-613.5" /></g><g
         transform="scale(1.00858)"
         id="g224"><path
           id="path226"
           style="fill:#e7a98a;fill-opacity:1;fill-rule:nonzero;stroke:none"
           d="m 8172.51,15552.9 c 11.32,189.6 150.84,469.5 417.53,613.4 257.43,133.7 532.74,115.5 743.04,16.2 -60.07,-4.7 -249.48,-2.5 -400.09,-37.9 -283.37,-65.6 -524.22,-210.1 -760.48,-591.7" /></g><path
         id="path228"
         style="fill:#ef3174;fill-opacity:1;fill-rule:nonzero;stroke:none"
         d="m 13581.8,14932.7 c -34.5,26.5 -75.3,51.4 -123.5,74.3 -670,319.1 -1525.3,213.9 -1654.6,139.9 -129.3,74 -927.9,179.2 -1597.9,-139.9 -86.2,-41 -149,-88.3 -193.1,-139.8 58.4,-131.5 241,-348.4 811.8,-419.7 685.9,-85.8 904.6,38.7 961.7,87 57.1,-48.3 275.9,-172.8 961.8,-87 682,85.2 809.8,378.3 833.8,485.2" /><path
         id="path230"
         style="fill:#e1e1df;fill-opacity:1;fill-rule:nonzero;stroke:none"
         d="m 11824.9,15922.9 c -1090.6,3.1 -2026.12,199.5 -2662.96,76 36.04,-134.4 92.73,-260.4 182.02,-327.4 279.79,-209.8 1154.14,-524.6 2518.04,-524.6 v 0 0 c 1363.9,0 2238.2,314.8 2518,524.6 85.9,64.4 141.7,183.5 177.8,312.2 -637.2,153.6 -1601.7,-57.6 -2732.9,-60.8" /><path
         id="path232"
         style="fill:#ffffff;fill-opacity:1;fill-rule:nonzero;stroke:none"
         d="m 11824.9,15678.1 c -1038,2.9 -1935.31,180.8 -2568.54,91.5 25.01,-39.3 53.99,-72.9 87.6,-98.1 279.79,-209.8 1154.14,-524.6 2518.04,-524.6 v 0 0 c 1363.9,0 2238.2,314.8 2518,524.6 30.5,22.9 57.1,52.7 80.5,87.3 -636.2,113 -1560.4,-77.7 -2635.6,-80.7" /><path
         id="path234"
         style="fill:#463234;fill-opacity:1;fill-rule:nonzero;stroke:none"
         d="m 10532.7,12386.8 c 0,-4.6 -3,-10.6 -9,-18.1 -52.8,-62.8 -122.9,-94.2 -210.4,-94.2 -89.5,0 -162.1,30.5 -217.8,91.6 -54.2,59.1 -81.3,133.7 -81.3,223.8 0,87.2 26.5,161.2 79.6,222 55.4,63.7 125.8,95.5 211.3,95.5 92.9,0 165.8,-28.5 218.6,-85.6 5.7,-6.3 8.6,-11.9 8.6,-16.8 0,-5.4 -10,-25.6 -29.9,-60.6 -20,-35 -32.5,-54.7 -37.7,-59 -2.3,-2.3 -5.1,-3.4 -8.6,-3.4 -1.4,0 -8.6,5.7 -21.5,17.2 -15.5,13.7 -30.7,24.5 -45.6,32.2 -22.7,11.5 -46.2,17.3 -70.6,17.3 -42.1,0 -75.8,-15.8 -101.1,-47.4 -23.2,-29.2 -34.8,-65.4 -34.8,-108.4 0,-43.6 11.6,-80.2 34.8,-109.7 25.3,-32.2 59,-48.2 101.1,-48.2 25,0 48.7,5.4 71,16.3 14.7,7.2 29.6,17.2 44.8,30.1 12.6,10.9 19.6,16.4 21.1,16.4 2.8,0 5.7,-1.6 8.6,-4.7 4.6,-5.2 17,-23.1 37.4,-53.8 20.9,-31.9 31.4,-49.4 31.4,-52.5" /><path
         id="path236"
         style="fill:#463234;fill-opacity:1;fill-rule:nonzero;stroke:none"
         d="m 11152.2,12594.6 c 0,48.5 -14.5,88.1 -43.5,118.8 -29.2,31.8 -68,47.7 -116.2,47.7 -44.1,0 -66.2,-5.8 -66.2,-17.6 0,-16.9 -0.3,-42.4 -0.9,-76.4 -0.6,-34 -0.9,-59.4 -0.9,-76.4 0,-16.6 0.3,-41.6 0.9,-75 0.6,-33.5 0.9,-58.6 0.9,-75.6 0,-12.3 22.9,-18.5 68.8,-18.5 49.6,0 88.7,16.5 117.1,49.5 26.6,31.3 40,72.4 40,123.5 z m 164.8,0 c 0,-84.3 -27.1,-157.5 -81.4,-219.4 -47.9,-55.4 -115.1,-84.5 -201.8,-87.4 -16.6,-0.6 -62.4,-0.9 -137.2,-0.9 -14.1,0 -35.2,0.5 -63.5,1.3 -28.2,0.9 -49.4,1.3 -63.5,1.3 -8.3,0 -12.4,3.3 -12.4,9.9 0,31.6 1.2,79 3.6,142.2 2.5,63.3 3.7,110.7 3.7,142.3 0,32.9 -1.2,82.4 -3.7,148.2 -2.4,65.8 -3.6,115.1 -3.6,147.8 0,6 4.1,9.6 12.4,10.8 20.4,2.2 53.8,3.4 100.3,3.4 88.4,0 145.6,-1.3 171.7,-3.9 68,-6.9 121.2,-24.1 159.6,-51.6 36.2,-25.8 64.7,-62 85.7,-108.4 20,-43.9 30.1,-89.1 30.1,-135.6" /><path
         id="path238"
         style="fill:#463234;fill-opacity:1;fill-rule:nonzero;stroke:none"
         d="m 12126.2,12303.3 c 0.6,-7.7 -3.5,-11.6 -12.1,-11.6 -5.4,0 -21.1,3.1 -47.1,9.5 -25.9,6.2 -41.9,10.6 -48,12.9 -59.9,-23.6 -117.4,-35.3 -172.5,-35.3 -88.6,0 -161.4,29.5 -218.2,88.6 -56.2,58.2 -84.3,131.8 -84.3,220.8 0,90.9 27.2,166.3 81.8,226.3 56.2,61.9 129.2,92.9 219,92.9 43.6,0 84.6,-8.3 123,-24.9 41.6,-18.4 74.3,-44.2 98.1,-77.5 4.9,-6.9 7.4,-11.7 7.4,-14.6 0,-9.2 -12.9,-29.8 -38.6,-61.8 -25.6,-31.9 -42.2,-47.9 -49.7,-47.9 -1.7,0 -8.3,5.8 -19.7,17.6 -14.1,14.1 -28.4,25 -43.1,32.7 -21.8,11.8 -45.9,17.7 -72.3,17.7 -43,0 -77.1,-16.1 -102.4,-48.2 -23.5,-29.6 -35.3,-66.5 -35.3,-110.6 0,-46.8 12.2,-83.8 36.6,-111 25.3,-28.2 61,-42.2 107.2,-42.2 29.2,0 61.9,7.3 98.1,21.9 -0.9,9.5 -3.5,33.6 -7.8,72.3 -3.7,29.9 -5.6,54 -5.6,72.3 0,5.5 1.9,8.8 5.6,9.9 1.5,0.6 3.7,0.9 6.9,0.9 8.3,0 20.9,-0.8 37.7,-2.4 16.7,-1.6 29.4,-2.4 38,-2.4 9.2,0 23,0.7 41.3,2 18.4,1.3 32.2,1.9 41.4,1.9 7.1,0 10.7,-4.7 10.7,-14.2 0,-13.8 -0.8,-34.6 -2.4,-62.4 -1.5,-27.8 -2.3,-48.6 -2.3,-62.4 0,-37 2.7,-92.3 8.2,-166.1 l 0.4,-4.7" /><path
         id="path240"
         style="fill:#463234;fill-opacity:1;fill-rule:nonzero;stroke:none"
         d="m 12892.4,12313.6 c 0,-12.3 -5.4,-20.3 -16,-24.1 -8.6,-2.8 -31.2,-4.3 -67.9,-4.3 -35.3,0 -61.1,1.5 -77.5,4.3 -7.7,1.5 -12.8,3 -15.3,4.6 -2.4,1.5 -5.5,5.6 -9.2,12.2 -21,38.5 -41.8,76.9 -62.4,115.3 -34.2,62 -54.5,96.1 -61.1,102.4 -31,-11.1 -46.5,-19.2 -46.5,-24.1 0,-21.5 0.9,-54 2.6,-97.4 1.7,-43.5 2.6,-76.1 2.6,-97.9 0,-8.9 -3.9,-13.9 -11.6,-15.1 -15,-2.3 -41.9,-3.4 -80.9,-3.4 -37.3,0 -62,1.1 -74,3.4 -8.4,1.8 -12.5,6.2 -12.5,13.4 0,31 1.5,77.7 4.5,140.2 3,62.6 4.5,109.5 4.5,140.8 0,33.2 -1.4,83.2 -4.3,149.9 -2.9,66.7 -4.3,116.7 -4.3,150 0,6.3 3,9.4 9,9.4 8.9,0 22.3,-0.4 40.3,-1.3 17.9,-0.8 31.3,-1.2 40.2,-1.2 9.2,0 22.8,0.4 40.9,1.2 18.1,0.9 31.5,1.3 40.4,1.3 4.9,0 7.3,-2.5 7.3,-7.7 0,-21.2 -1,-53.3 -3.2,-96.2 -2.1,-42.9 -3.2,-74.9 -3.2,-96.2 0,-24.6 6.7,-37 20.2,-37 34.2,0 60.7,9.4 79.6,28 14.1,13.8 28.3,38.9 42.6,75.3 9.2,27.8 24.3,68.9 45.2,123.1 3.2,7.1 9.6,10.7 19.4,10.7 7.4,0 18.7,-0.4 33.7,-1.3 15.1,-0.8 26.3,-1.2 33.8,-1.2 7.8,0 19.3,0.2 34.7,0.8 15.3,0.6 26.7,0.9 34.2,0.9 6.8,0 10.3,-3.3 10.3,-9.9 0,-9.5 -6,-32.6 -18.1,-69.3 -35.6,-108.4 -76.4,-176.1 -122.6,-203.1 -9.5,-5.4 -14.2,-9.9 -14.2,-13.3 0,0.2 26.4,-42.8 79.4,-129.1 52.9,-86.4 79.4,-137.7 79.4,-154.1" /><path
         id="path242"
         style="fill:#463234;fill-opacity:1;fill-rule:nonzero;stroke:none"
         d="m 13693.8,12879.9 c 0,-32.7 -1.3,-81.8 -4.1,-147.4 -2.7,-65.5 -4,-114.8 -4,-147.8 v -283.5 c 0,-7.8 -4.2,-11.7 -12.5,-11.7 -6.9,0 -17.3,-0.2 -31.2,-0.8 -13.9,-0.6 -24.3,-0.9 -31.2,-0.9 -7.5,0 -18.7,0.6 -33.6,1.7 -14.9,1.2 -26.1,1.8 -33.5,1.8 -5.2,0 -11.4,4.7 -18.5,14.1 -20.7,27.9 -67.2,89.5 -139.5,185.1 -19.8,26.7 -49.9,65.9 -90.3,117.9 -1.2,1.7 -3.3,3.4 -6.5,5.1 -2.3,-2 -3.4,-5.1 -3.4,-9.4 0,-33.3 0.9,-83.2 2.8,-149.8 1.8,-66.5 2.8,-116.4 2.8,-149.7 0,-10.1 -3.9,-15.1 -11.6,-15.1 h -148.9 c -8.4,0 -12.5,4.5 -12.5,13.4 0,31 1.5,77.7 4.5,140.2 3,62.6 4.5,109.5 4.5,140.8 0,32.9 -1.3,82.3 -4.1,148 -2.7,65.7 -4,114.9 -4,147.6 0,6.3 5.6,9.4 16.7,9.4 16.7,0 37.2,1.2 61.6,3.5 5.7,0.5 17,2.4 34,5.6 14.3,2.5 25.6,3.8 34,3.8 3.4,0 8.7,-4.9 15.9,-14.6 l 160.5,-219.9 c 14.3,-19.8 36,-48.7 65,-86.9 7.1,-8.9 13.3,-13.3 18.5,-13.3 3.7,0 5.5,11.2 5.5,33.5 0,30.2 -1.6,75.5 -4.9,136 -3.3,60.5 -4.9,106 -4.9,136.4 0,10.6 3,15.9 9,15.9 17.2,0 43.2,0.7 77.9,2.2 34.7,1.4 60.6,2.1 77.9,2.1 5.4,0 8.1,-4.4 8.1,-13.3" /><path
         id="path244"
         style="fill:#463234;fill-opacity:1;fill-rule:nonzero;stroke:none"
         d="m 10644.8,11430 c 0,-58.3 -24.5,-108.2 -73.6,-149.8 -43,-36.7 -95.4,-60.1 -157,-70.1 -2.3,-0.3 -4.2,-0.4 -5.6,-0.4 -6.6,0 -21.3,20.1 -43.9,60.4 -22.7,40.3 -34,64.9 -34,73.8 0,3.2 2.1,5.2 6.4,6 41.6,9.5 69.2,17.5 82.7,24.1 29.8,14.9 44.7,37 44.7,66.3 0,18.6 -9.7,39.4 -29.2,62.4 -33.9,39 -52.3,60.7 -55.1,65 -19.8,29.8 -29.7,62.8 -29.7,98.9 0,52.5 24.2,96.1 72.7,130.8 39.6,28.7 88.2,47.4 145.9,56 3.1,0.3 5.6,0.4 7.3,0.4 4.3,0 7.7,-3.4 10.3,-10.3 7.5,-21 24.8,-58.8 52.1,-113.6 0.8,-1.7 1.3,-3.2 1.3,-4.3 0,-4.9 -2.6,-7.3 -7.8,-7.3 -2.3,0 -6.1,0.4 -11.6,1.3 -5.4,0.8 -9.6,1.3 -12.5,1.3 -20.6,0 -38.7,-4.8 -54.2,-14.2 -18.6,-10.9 -28,-26.1 -28,-45.7 0,-17.5 10.4,-39 31,-64.5 36.5,-45.9 55.5,-70 57.3,-72.3 20.3,-31.5 30.5,-63 30.5,-94.2" /><path
         id="path246"
         style="fill:#463234;fill-opacity:1;fill-rule:nonzero;stroke:none"
         d="m 11311.6,11704.1 c 0,-5.8 -3.2,-8.6 -9.5,-8.6 -10.9,0 -54,2.1 -129.5,6.4 -1.7,-72.6 -2.6,-123.2 -2.6,-151.9 0,-33.8 1.4,-84.7 4.1,-152.7 2.7,-68 4.1,-118.9 4.1,-152.8 0,-5.4 -1.3,-8.9 -3.9,-10.3 -0.8,-0.6 -4.9,-1.3 -12,-2.2 -17.2,-2.3 -42.5,-3.4 -75.8,-3.4 -37,0 -62.9,1.1 -77.8,3.4 -8.1,1.5 -12.1,5.9 -12.1,13.4 0,33.8 1.4,84.6 4.3,152.3 2.9,67.7 4.3,118.5 4.3,152.3 0,22.4 -1.1,72.3 -3.4,149.8 -57.4,-5.8 -103.1,-8.6 -137.3,-8.6 -4.6,0 -6.9,1.4 -6.9,4.3 0,3.7 2,14.7 6.1,33.1 4.5,20.1 7.1,32.3 7.7,36.6 0.9,13.5 1.9,26.9 3,40.4 2,21.5 5.5,32.3 10.3,32.3 0.6,0 2.6,-0.2 6.1,-0.4 46.4,-6.1 115.1,-9.1 206.1,-9.1 25.8,0 73.4,2.8 142.8,8.2 37.3,2.9 56.1,4.3 56.4,4.3 5.7,0 9,-0.4 9.9,-1.1 0.9,-0.7 1.4,-3.5 1.7,-8.4 0,-7.7 -0.3,-18.5 -0.8,-32.2 -0.6,-15.2 -0.9,-26 -0.9,-32.3 0,-7.2 0.9,-17.7 2.8,-31.6 1.9,-13.9 2.8,-24.4 2.8,-31.2" /><path
         id="path248"
         style="fill:#463234;fill-opacity:1;fill-rule:nonzero;stroke:none"
         d="m 12008.9,11289.3 c 0,-28.1 -1.3,-44.8 -3.8,-49.9 -3.2,-6.4 -13,-9.5 -29.3,-9.5 -2.6,0 -8.3,0 -17.2,0 -8.6,0.3 -15.9,0.4 -21.8,0.4 -5.8,0 -14.6,0.3 -26.2,0.9 -11.6,0.6 -20.3,0.8 -26,0.8 -4.6,0 -25.3,27.6 -62,82.7 -36.7,55 -55.8,82.7 -57.2,83 -6,-4.9 -26.7,-33.8 -62,-86.9 -33.8,-50.8 -53.6,-77 -59.4,-78.8 -4,-1.1 -14.7,-1.7 -32.2,-1.7 -58.8,0 -88.2,3 -88.2,9.1 0,6 -0.4,14.6 -1.1,25.8 -0.7,11.2 -1.1,19.5 -1.1,24.9 0,35.6 2.2,56.5 6.5,62.8 0.2,0.3 23.9,31.7 71,94.3 38.1,50.5 57.2,79.3 57.2,86.5 0,7.1 -19.1,35.5 -57.2,85.2 -24.1,30.7 -48.1,61.5 -71.9,92.5 -2.6,3.7 -4.2,9.9 -4.7,18.5 -0.3,6 -0.3,14.2 0,24.5 0.8,12.4 1.3,19.2 1.3,20.7 0,5.7 -0.5,14.6 -1.6,26.7 -1,12 -1.5,20.9 -1.5,26.6 0,5.5 5.1,8.2 15.1,8.2 6.6,0 16.4,-0.4 29.3,-1.3 12.9,-0.9 22.5,-1.3 28.8,-1.3 5.7,0 14.2,0.3 25.4,0.9 11.2,0.5 19.5,0.8 24.9,0.8 4.6,0 25.5,-27.9 62.6,-83.6 37.2,-55.8 56.6,-83.7 58.3,-83.7 5.8,3.4 26.9,32.7 63.3,87.7 34.7,53.1 54.6,79.6 59.8,79.6 h 102.4 c 10.1,0 15.1,-2.4 15.1,-7.3 v -104.5 c 0,-7.5 -22.2,-40 -66.5,-97.7 -44.3,-57.7 -66.5,-88.2 -66.5,-91.7 0,-4.8 19.5,-33.1 58.5,-84.7 45.9,-60.6 69.9,-92.3 71.9,-95.1 4,-6.3 6,-28.1 6,-65.4" /><path
         id="path250"
         style="fill:#463234;fill-opacity:1;fill-rule:nonzero;stroke:none"
         d="m 12746.7,11679.5 c 0,-12.3 -2.3,-23.1 -6.9,-32.2 -37.6,-74.3 -88.8,-152.5 -153.6,-234.5 -9.2,-12.1 -13.8,-23 -13.8,-32.7 0,-15.2 0.9,-38 2.6,-68.5 1.7,-30.4 2.6,-53 2.6,-67.9 0,-5.2 -1.1,-8.4 -3.4,-9.5 -0.6,-0.3 -4.5,-1 -11.7,-2.2 -10.3,-1.7 -36.1,-2.5 -77.4,-2.5 -41.6,0 -68.2,0.8 -79.6,2.5 -8.1,1.2 -12.1,5.3 -12.1,12.5 0,15.2 1.3,38.4 3.9,69.5 2.6,31.1 3.9,54.4 3.9,69.9 0,9.2 -3.5,19.1 -10.3,29.7 -34.8,49.1 -84.4,124.2 -148.9,225.5 -6.6,11.2 -9.9,20.4 -9.9,27.5 0,17.3 -0.9,43.1 -2.6,77.5 -1.7,34.4 -2.6,60.2 -2.6,77.4 0,9.5 2.9,14.2 8.6,14.2 17.5,0 44,-0.7 79.6,-2.1 35.6,-1.4 62.3,-2.2 80.1,-2.2 6.6,0 9.9,-2.1 9.9,-6.4 0,-14.6 -0.7,-36.7 -2,-66.1 -1.3,-29.4 -1.9,-51.4 -1.9,-66 0,-8.6 12.6,-30.1 37.8,-64.6 20.1,-26.9 36.6,-47.7 49.5,-62.4 11.8,13.8 27.4,34.5 46.9,62 24.7,34.4 37,55.2 37,62.4 0,14.3 -1,36.1 -3.2,65.2 -2.1,29.1 -3.2,50.8 -3.2,65.2 0,6 1.3,9.5 3.9,10.3 h 10.7 c 17.2,0 43.1,0.8 77.7,2.4 34.5,1.5 60.6,2.3 78.1,2.3 5.7,0 8.6,-6.1 8.6,-18.5 0,-15.2 0.3,-38 0.8,-68.6 0.6,-30.5 0.9,-53.6 0.9,-69.1" /><path
         id="path252"
         style="fill:#463234;fill-opacity:1;fill-rule:nonzero;stroke:none"
         d="m 13364.4,11225.2 c -16.9,0 -42.3,0.8 -76.1,2.5 -33.9,1.8 -59.3,2.6 -76.2,2.6 -24.1,0 -60.1,0.3 -108,0.9 -47.9,0.6 -83.9,0.8 -108,0.8 -10.3,0 -16.2,3.3 -17.6,9.9 -0.6,18.4 -3.5,45.7 -8.6,81.8 -3.5,14 -5.2,21.9 -5.2,23.7 0,1.4 35.1,57 105.4,166.7 70.3,109.7 105.4,168.7 105.4,177.1 0,4.6 -3.7,6.9 -11.2,6.9 -20,0 -50.4,-0.6 -91,-1.8 -40.6,-1.1 -71,-1.7 -91.4,-1.7 -6.3,0 -9.5,3.3 -9.5,9.9 0,10.6 3.3,31.3 9.7,62 6.5,30.7 9.7,52.9 9.7,66.7 0,4.5 3.9,6.8 11.6,6.8 39.6,0 99.1,-0.8 178.4,-2.5 79.3,-1.8 138.7,-2.6 178.3,-2.6 6.1,0 9.9,-3.3 11.7,-9.9 5.1,-23 7.7,-55.8 7.7,-98.6 0,-5.1 -2.6,-11.6 -7.7,-19.3 -18.1,-26.1 -56.1,-83.8 -114.1,-173 -66,-101.8 -98.9,-155.2 -98.9,-160.1 0,-2.3 2.4,-3.4 7.3,-3.4 58.2,0 103,1.1 134.2,3.4 6.3,0.3 20.1,2 41.3,5.2 18.1,2.9 31.4,4.3 40,4.3 4.1,0 6.1,-3 6.1,-9 0,-46.8 -4.2,-93.4 -12.5,-139.9 -1.2,-6.3 -4.7,-9.4 -10.8,-9.4" /></g></g></svg>